<?xml version="1.0" ?><!DOCTYPE svg  PUBLIC '-//W3C//DTD SVG 1.0//EN'  'http://www.w3.org/TR/2001/REC-SVG-20010904/DTD/svg10.dtd'><svg height="160px" id="icon" style="enable-background:new 0 0 160 160;" version="1.0" viewBox="0 0 160 160" width="160px" xml:space="preserve" xmlns="http://www.w3.org/2000/svg" xmlns:xlink="http://www.w3.org/1999/xlink"><path fill="#ffb500" d="M10,141h140c2.209,0,4,1.791,4,4s-1.791,4-4,4H10c-2.209,0-4-1.791-4-4S7.791,141,10,141z M13.324,51.368l65-30  c1.063-0.491,2.289-0.491,3.353,0l65,30c1.706,0.787,2.634,2.655,2.23,4.49C148.504,57.693,146.878,59,145,59h-5.104  c0.067,0.328,0.104,0.663,0.104,1c0,1.32-0.53,2.61-1.46,3.54C137.61,64.47,136.32,65,135,65c-1.32,0-2.6-0.53-3.54-1.46  C130.53,62.6,130,61.32,130,60c0-0.338,0.037-0.672,0.104-1h-10.208c0.067,0.328,0.104,0.663,0.104,1c0,1.32-0.53,2.6-1.46,3.54  C117.61,64.47,116.32,65,115,65c-1.32,0-2.6-0.53-3.54-1.46C110.53,62.61,110,61.32,110,60c0-0.337,0.037-0.672,0.104-1H99.896  c0.067,0.328,0.104,0.663,0.104,1c0,1.32-0.53,2.61-1.46,3.54C97.61,64.47,96.32,65,95,65c-1.32,0-2.61-0.53-3.54-1.46  C90.53,62.6,90,61.31,90,60c0-0.338,0.037-0.672,0.104-1H69.895C69.962,59.329,70,59.663,70,60c0,1.31-0.53,2.6-1.46,3.54  C67.61,64.47,66.32,65,65,65c-1.31,0-2.6-0.53-3.54-1.46C60.53,62.6,60,61.31,60,60c0-0.337,0.038-0.671,0.105-1H49.896  C49.963,59.328,50,59.663,50,60c0,1.32-0.53,2.61-1.46,3.53C47.61,64.47,46.32,65,45,65c-1.31,0-2.6-0.53-3.54-1.47  C40.53,62.61,40,61.32,40,60c0-0.337,0.037-0.672,0.104-1H29.896C29.963,59.328,30,59.663,30,60c0,1.32-0.53,2.6-1.47,3.54  C27.61,64.47,26.32,65,25,65c-1.32,0-2.6-0.53-3.54-1.46C20.53,62.6,20,61.32,20,60c0-0.337,0.037-0.672,0.104-1H15  c-1.878,0-3.504-1.307-3.907-3.142C10.69,54.023,11.618,52.155,13.324,51.368z M33.212,51h93.576L80,29.405L33.212,51z M15,129h130  c2.209,0,4-1.791,4-4s-1.791-4-4-4h-6.142c0.083-0.321,0.142-0.652,0.142-1V75c0-2.209-1.791-4-4-4s-4,1.791-4,4v45  c0,0.348,0.058,0.679,0.142,1h-12.283c0.083-0.321,0.142-0.652,0.142-1V75c0-2.209-1.791-4-4-4s-4,1.791-4,4v45  c0,0.348,0.058,0.679,0.142,1H98.858c0.083-0.321,0.142-0.652,0.142-1V75c0-2.209-1.791-4-4-4s-4,1.791-4,4v45  c0,0.348,0.058,0.679,0.142,1H68.858c0.083-0.321,0.142-0.652,0.142-1V75c0-2.209-1.791-4-4-4s-4,1.791-4,4v45  c0,0.348,0.058,0.679,0.142,1H48.858c0.083-0.321,0.142-0.652,0.142-1V75c0-2.209-1.791-4-4-4s-4,1.791-4,4v45  c0,0.348,0.058,0.679,0.142,1H28.858c0.083-0.321,0.142-0.652,0.142-1V75c0-2.209-1.791-4-4-4s-4,1.791-4,4v45  c0,0.348,0.058,0.679,0.142,1H15c-2.209,0-4,1.791-4,4S12.791,129,15,129z" id="greece"/></svg>