<?xml version="1.0" ?><!DOCTYPE svg  PUBLIC '-//W3C//DTD SVG 1.0//EN'  'http://www.w3.org/TR/2001/REC-SVG-20010904/DTD/svg10.dtd'><svg height="160px" id="icon" style="enable-background:new 0 0 160 160;" version="1.0" viewBox="0 0 160 160" width="160px" xml:space="preserve" xmlns="http://www.w3.org/2000/svg" xmlns:xlink="http://www.w3.org/1999/xlink"><path fill="#ffb500" d="M52.726,10.819l-3.388,14.214l14.037,27.689c0.999,1.971,0.212,4.377-1.759,5.376  c-0.579,0.294-1.197,0.434-1.806,0.434c-1.459,0-2.865-0.802-3.57-2.192L41.539,27.342c-0.429-0.845-0.543-1.814-0.323-2.736  l4.894-20.533c0.27-1.131,1.018-2.089,2.05-2.624c1.032-0.534,2.247-0.595,3.326-0.162C78.688,12.167,79,48.46,79,50  c0,2.209-1.791,4-4,4s-4-1.791-4-4C70.999,49.703,70.706,21.781,52.726,10.819z M97.401,57.29c0.786,0.825,1.841,1.241,2.897,1.241  c0.99,0,1.983-0.366,2.757-1.104l14.701-13.998c1.032-0.981,1.464-2.438,1.133-3.824l-4.894-20.533  c-0.27-1.131-1.018-2.089-2.05-2.624c-1.031-0.534-2.247-0.595-3.326-0.162C81.418,27.167,81.105,49.073,81.105,50  c0,2.209,1.791,4,4,4s4-1.791,4-4c0-0.161,0.225-15.122,18.233-24.356l3.235,13.579L97.539,51.635  C95.939,53.158,95.878,55.689,97.401,57.29z M55.811,96.036L47.501,79H35c-2.209,0-4-1.791-4-4s1.791-4,4-4h90c2.209,0,4,1.791,4,4  s-1.791,4-4,4h-12.391l-8.418,17.047l9.729,48.161c0.237,1.176-0.065,2.396-0.825,3.325S111.2,149,110,149H50  c-1.2,0-2.336-0.538-3.096-1.467s-1.063-2.149-0.825-3.325L55.811,96.036z M56.401,79l7.193,14.746  c0.386,0.79,0.5,1.685,0.326,2.546L54.889,141h50.223l-9.032-44.708c-0.175-0.868-0.058-1.77,0.334-2.563L103.687,79H56.401z M75,99  h10c2.209,0,4-1.791,4-4s-1.791-4-4-4H75c-2.209,0-4,1.791-4,4S72.791,99,75,99z" id="hat-trick"/></svg>