<?xml version="1.0" ?><!DOCTYPE svg  PUBLIC '-//W3C//DTD SVG 1.0//EN'  'http://www.w3.org/TR/2001/REC-SVG-20010904/DTD/svg10.dtd'><svg height="160px" id="icon" style="enable-background:new 0 0 160 160;" version="1.0" viewBox="0 0 160 160" width="160px" xml:space="preserve" xmlns="http://www.w3.org/2000/svg" xmlns:xlink="http://www.w3.org/1999/xlink"><path fill="#ffb500" d="M8.477,96.302l85-35C93.96,61.103,94.478,61,95,61h3.344l33.536-33.537c-0.637-0.807-0.963-1.821-0.86-2.857  c0.118-1.192,0.765-2.269,1.762-2.934l15-10c1.586-1.058,3.699-0.85,5.047,0.5c1.349,1.348,1.558,3.46,0.5,5.047l-10,15  c-0.665,0.997-1.741,1.644-2.934,1.762C140.263,33.993,140.131,34,140,34c-0.9,0-1.763-0.319-2.468-0.876L104,66.656V70  c0,0.522-0.103,1.04-0.302,1.523l-35,85c-0.623,1.512-2.094,2.477-3.697,2.477c-0.165,0-0.331-0.01-0.498-0.031  c-1.79-0.224-3.208-1.617-3.464-3.403l-5-35c-0.312-2.187,1.208-4.213,3.394-4.525c2.191-0.313,4.213,1.208,4.526,3.395l2.926,20.48  L96,69.209V69h-0.209L25.085,98.114l20.481,2.926c2.187,0.313,3.706,2.339,3.394,4.525c-0.313,2.187-2.335,3.705-4.526,3.395l-35-5  c-1.786-0.255-3.18-1.674-3.403-3.464S6.809,96.988,8.477,96.302z M72.171,97.828C72.953,98.609,73.976,99,75,99  s2.047-0.391,2.829-1.172c1.562-1.562,1.562-4.095,0-5.656l-5-5c-1.563-1.563-4.095-1.563-5.657,0c-1.562,1.562-1.562,4.095,0,5.656  L72.171,97.828z" id="guitar"/></svg>