<?xml version="1.0" ?><!DOCTYPE svg  PUBLIC '-//W3C//DTD SVG 1.0//EN'  'http://www.w3.org/TR/2001/REC-SVG-20010904/DTD/svg10.dtd'><svg height="160px" id="icon" style="enable-background:new 0 0 160 160;" version="1.0" viewBox="0 0 160 160" width="160px" xml:space="preserve" xmlns="http://www.w3.org/2000/svg" xmlns:xlink="http://www.w3.org/1999/xlink"><path fill="#ffb500" d="M5,109h120c2.209,0,4-1.791,4-4V45c0-2.209-1.791-4-4-4H5c-2.209,0-4,1.791-4,4v60C1,107.209,2.791,109,5,109z   M9,49h112v52H9V49z M113.152,62.539c0.759,0.971,1.027,2.237,0.729,3.432l-5,20c-0.455,1.817-2.086,3.031-3.878,3.031  c-0.321,0-0.647-0.039-0.973-0.121c-2.144-0.536-3.446-2.708-2.911-4.851L104.877,69H100c-2.209,0-4-1.791-4-4s1.791-4,4-4h10  C111.231,61,112.395,61.567,113.152,62.539z M89,60v30c0,2.209-1.791,4-4,4s-4-1.791-4-4V60c0-2.209,1.791-4,4-4S89,57.791,89,60z   M105,115c1.319,0,2.6,0.53,3.54,1.46c0.93,0.93,1.46,2.22,1.46,3.54c0,1.32-0.53,2.61-1.46,3.54c-0.94,0.93-2.23,1.46-3.54,1.46  c-1.311,0-2.601-0.53-3.54-1.46c-0.93-0.94-1.46-2.22-1.46-3.54c0-1.32,0.53-2.61,1.46-3.54C102.399,115.53,103.68,115,105,115z   M131,15c0,6.329,4.225,11.685,10,13.41V71h-1c-2.209,0-4,1.791-4,4s1.791,4,4,4h5c2.209,0,4-1.791,4-4V28.41  c5.775-1.726,10-7.081,10-13.41c0-7.72-6.28-14-14-14S131,7.28,131,15z M145,9c3.309,0,6,2.691,6,6s-2.691,6-6,6s-6-2.691-6-6  S141.691,9,145,9z M65,115c1.319,0,2.609,0.53,3.53,1.47C69.47,117.39,70,118.68,70,120c0,1.32-0.53,2.61-1.47,3.54  C67.609,124.47,66.319,125,65,125c-1.32,0-2.61-0.53-3.54-1.47C60.53,122.61,60,121.32,60,120c0-1.32,0.53-2.61,1.46-3.54  C62.39,115.53,63.68,115,65,115z M33.152,62.539c0.759,0.971,1.027,2.237,0.729,3.432l-5,20c-0.455,1.817-2.086,3.031-3.878,3.031  c-0.321,0-0.647-0.039-0.973-0.121c-2.144-0.536-3.446-2.708-2.911-4.851L24.877,69H20c-2.209,0-4-1.791-4-4s1.791-4,4-4h10  C31.231,61,32.395,61.567,33.152,62.539z M73.152,62.539c0.759,0.971,1.027,2.237,0.729,3.432l-5,20  c-0.455,1.817-2.086,3.031-3.878,3.031c-0.321,0-0.647-0.039-0.973-0.121c-2.144-0.536-3.446-2.708-2.911-4.851L64.877,69H60  c-2.209,0-4-1.791-4-4s1.791-4,4-4h10C71.231,61,72.395,61.567,73.152,62.539z M49,60v30c0,2.209-1.791,4-4,4s-4-1.791-4-4V60  c0-2.209,1.791-4,4-4S49,57.791,49,60z M1,135c0-2.209,1.791-4,4-4h120c2.209,0,4,1.791,4,4s-1.791,4-4,4H5  C2.791,139,1,137.209,1,135z M25,115c1.319,0,2.6,0.53,3.53,1.46C29.47,117.39,30,118.68,30,120c0,1.32-0.53,2.61-1.47,3.53  C27.609,124.47,26.319,125,25,125c-1.32,0-2.61-0.53-3.54-1.47C20.53,122.61,20,121.32,20,120c0-1.32,0.53-2.61,1.46-3.54  C22.399,115.53,23.68,115,25,115z" id="prize"/></svg>