<?xml version="1.0" ?><!DOCTYPE svg  PUBLIC '-//W3C//DTD SVG 1.0//EN'  'http://www.w3.org/TR/2001/REC-SVG-20010904/DTD/svg10.dtd'><svg height="160px" id="icon" style="enable-background:new 0 0 160 160;" version="1.0" viewBox="0 0 160 160" width="160px" xml:space="preserve" xmlns="http://www.w3.org/2000/svg" xmlns:xlink="http://www.w3.org/1999/xlink"><path fill="#ffb500" d="M66,35c0,7.72,6.28,14,14,14s14-6.28,14-14s-6.28-14-14-14S66,27.28,66,35z M86,35c0,3.309-2.691,6-6,6  s-6-2.691-6-6s2.691-6,6-6S86,31.691,86,35z M22.171,27.829l34.144,34.144l4.584,22.918L49.602,86.02  c-1.568,0.157-2.898,1.22-3.397,2.715l-5,15c-0.335,1.007-0.257,2.105,0.217,3.054l5,10c0.474,0.949,1.306,1.67,2.313,2.006l15,5  C64.149,123.933,64.576,124,65,124c0.34,0,0.673-0.059,1-0.144V141H25c-2.209,0-4,1.791-4,4s1.791,4,4,4h110c2.209,0,4-1.791,4-4  s-1.791-4-4-4H94v-30.604l3.435-17.174l4.936-4.936l39.419-19.709c1.976-0.988,2.776-3.39,1.789-5.367  c-0.988-1.976-3.391-2.776-5.367-1.789l-38.24,19.12l3.714-18.57l34.144-34.144c1.562-1.563,1.562-4.095,0-5.657  c-1.563-1.562-4.095-1.562-5.657,0l-35,35c-0.558,0.559-0.939,1.27-1.094,2.044l-4.522,22.609l-22.658,2.266l-4.975-24.875  c-0.155-0.774-0.536-1.485-1.094-2.044l-35-35c-1.563-1.562-4.095-1.562-5.657,0C20.609,23.734,20.609,26.266,22.171,27.829z   M86.078,109.215C86.026,109.474,86,109.737,86,110v31H74v-24.343l13.236-13.236L86.078,109.215z M63.919,115.423l-11.083-3.694  l-3.518-7.037l3.657-10.971l36.272-3.627L63.919,115.423z" id="concert"/></svg>