<?xml version="1.0" ?><!DOCTYPE svg  PUBLIC '-//W3C//DTD SVG 1.0//EN'  'http://www.w3.org/TR/2001/REC-SVG-20010904/DTD/svg10.dtd'><svg height="160px" id="icon" style="enable-background:new 0 0 160 160;" version="1.0" viewBox="0 0 160 160" width="160px" xml:space="preserve" xmlns="http://www.w3.org/2000/svg" xmlns:xlink="http://www.w3.org/1999/xlink"><path fill="#ffb500" d="M122.086,114.176l10.526-50c0.064-0.307,0.165-0.605,0.299-0.888L142,44.101V25c0-2.209,1.791-4,4-4  s4,1.791,4,4v20c0,0.592-0.132,1.177-0.385,1.712l-9.271,19.573L130,115.417V147c0,2.209-1.791,4-4,4s-4-1.791-4-4v-32  C122,114.723,122.028,114.447,122.086,114.176z M19.905,69.132c-0.479-2.156-2.619-3.517-4.772-3.037  c-2.157,0.479-3.516,2.616-3.037,4.772L22,115.439V147c0,2.209,1.791,4,4,4s4-1.791,4-4v-32c0-0.292-0.032-0.583-0.095-0.868  L19.905,69.132z M2.422,61.789c-0.988-1.976-0.187-4.379,1.789-5.367l18.013-9.006C22.086,46.63,22,45.825,22,45  c0-7.72,6.28-14,14-14s14,6.28,14,14c0,0.702-0.069,1.386-0.169,2.061l13.871,4.624C62.618,49.697,62,47.419,62,45  c0-7.72,6.28-14,14-14s14,6.28,14,14c0,2.419-0.617,4.697-1.702,6.685l13.871-4.624C102.068,46.386,102,45.702,102,45  c0-7.72,6.28-14,14-14s14,6.28,14,14s-6.28,14-14,14c-4.125,0-7.828-1.804-10.393-4.653l-28.342,9.448  C76.854,63.932,76.427,64,76,64s-0.854-0.068-1.265-0.205l-28.342-9.447c-0.062,0.068-0.122,0.136-0.185,0.203l12.621,12.621  c0.024,0.024,0.04,0.052,0.063,0.077c0.124,0.13,0.235,0.272,0.341,0.418c0.042,0.058,0.09,0.111,0.128,0.17  c0.13,0.203,0.246,0.417,0.339,0.644c0.024,0.059,0.036,0.121,0.057,0.182c0.055,0.154,0.112,0.307,0.148,0.47l10,45  C69.968,114.417,70,114.708,70,115v32c0,2.209-1.791,4-4,4s-4-1.791-4-4v-31.561l-6-27l-6,27V147c0,2.209-1.791,4-4,4s-4-1.791-4-4  v-32c0-0.292,0.032-0.583,0.095-0.868l9.523-42.856l-12.61-12.61C38.039,58.879,37.034,59,36,59c-4.019,0-7.636-1.711-10.192-4.432  L7.789,63.578c-0.574,0.287-1.185,0.423-1.786,0.423C4.536,64.001,3.123,63.19,2.422,61.789z M110,45c0,3.309,2.691,6,6,6  s6-2.691,6-6s-2.691-6-6-6S110,41.691,110,45z M70,45c0,3.309,2.691,6,6,6s6-2.691,6-6s-2.691-6-6-6S70,41.691,70,45z M30,45  c0,3.309,2.691,6,6,6s6-2.691,6-6s-2.691-6-6-6S30,41.691,30,45z M106,151c2.209,0,4-1.791,4-4v-32c0-0.292-0.032-0.583-0.096-0.868  l-10-45C99.498,67.302,97.875,66,96,66s-3.498,1.302-3.904,3.132l-10,45C82.032,114.417,82,114.708,82,115v32c0,2.209,1.791,4,4,4  s4-1.791,4-4v-31.561l6-27l6,27V147C102,149.209,103.791,151,106,151z" id="friends"/></svg>