<?xml version="1.0" ?><!DOCTYPE svg  PUBLIC '-//W3C//DTD SVG 1.0//EN'  'http://www.w3.org/TR/2001/REC-SVG-20010904/DTD/svg10.dtd'><svg height="160px" id="icon" style="enable-background:new 0 0 160 160;" version="1.0" viewBox="0 0 160 160" width="160px" xml:space="preserve" xmlns="http://www.w3.org/2000/svg" xmlns:xlink="http://www.w3.org/1999/xlink"><path fill="#ffb500" d="M49,140c0-7.72-6.28-14-14-14s-14,6.28-14,14s6.28,14,14,14S49,147.72,49,140z M29,140c0-3.309,2.691-6,6-6  s6,2.691,6,6s-2.691,6-6,6S29,143.309,29,140z M135,126c-7.72,0-14,6.28-14,14s6.28,14,14,14s14-6.28,14-14S142.72,126,135,126z   M135,146c-3.309,0-6-2.691-6-6s2.691-6,6-6s6,2.691,6,6S138.309,146,135,146z M95,121c2.209,0,4,1.791,4,4s-1.791,4-4,4H75  c-2.209,0-4-1.791-4-4s1.791-4,4-4H95z M17.598,116.8c5.05-3.794,11.068-5.8,17.402-5.8c15.99,0,29,13.009,29,29v1h42v-1  c0-14.356,10.485-26.309,24.2-28.603l-13.798-68.988l-13.621-9.081c-1.838-1.225-2.335-3.709-1.109-5.547  c1.226-1.838,3.71-2.334,5.547-1.109l15,10c0.883,0.588,1.495,1.503,1.703,2.543l15,75c0.235,1.175-0.068,2.394-0.828,3.321  S136.198,119,135,119c-11.579,0-21,9.42-21,21v5c0,2.209-1.791,4-4,4H60c-2.209,0-4-1.791-4-4v-5c0-11.58-9.421-21-21-21  c-4.588,0-8.943,1.451-12.598,4.196c-0.72,0.541-1.563,0.802-2.399,0.802c-1.215,0-2.415-0.551-3.201-1.597  C15.475,120.634,15.831,118.127,17.598,116.8z" id="scooter"/></svg>