<?xml version="1.0" ?><!DOCTYPE svg  PUBLIC '-//W3C//DTD SVG 1.0//EN'  'http://www.w3.org/TR/2001/REC-SVG-20010904/DTD/svg10.dtd'><svg height="160px" id="icon" style="enable-background:new 0 0 160 160;" version="1.0" viewBox="0 0 160 160" width="160px" xml:space="preserve" xmlns="http://www.w3.org/2000/svg" xmlns:xlink="http://www.w3.org/1999/xlink"><path fill="#ffb500" d="M6.021,39.587c0.179-1.724,1.446-3.135,3.141-3.498l140-30c1.328-0.283,2.708,0.124,3.666,1.083  c0.96,0.959,1.367,2.34,1.083,3.666l-30,140c-0.363,1.694-1.774,2.962-3.498,3.141c-0.139,0.015-0.277,0.021-0.415,0.021  c-1.566,0-3.007-0.92-3.653-2.375l-20-45c-0.897-2.02,0.012-4.383,2.03-5.28c2.019-0.896,4.384,0.012,5.28,2.03l15.009,33.77  l26.13-121.938L22.855,41.336l33.77,15.009c2.019,0.897,2.928,3.261,2.03,5.28c-0.896,2.018-3.261,2.926-5.28,2.03l-45-20  C6.793,42.952,5.843,41.31,6.021,39.587z M86,60c0-7.72,6.28-14,14-14s14,6.28,14,14s-6.28,14-14,14S86,67.72,86,60z M94,60  c0,3.309,2.691,6,6,6s6-2.691,6-6s-2.691-6-6-6S94,56.691,94,60z M32.172,127.828c0.772,0.773,1.797,1.172,2.829,1.172  c0.769,0,1.541-0.221,2.218-0.672l58.372-38.915l13.145,4.382c1.437,0.477,3.022,0.104,4.093-0.967l15-15  c1.563-1.562,1.563-4.095,0-5.656c-1.561-1.563-4.096-1.563-5.656,0L108.92,85.424l-12.655-4.219  c-1.168-0.39-2.456-0.218-3.483,0.467l-43.359,28.906l28.906-43.359c0.685-1.027,0.857-2.313,0.467-3.483L74.576,51.08  l13.252-13.252c1.563-1.562,1.563-4.095,0-5.656c-1.561-1.563-4.096-1.563-5.656,0l-15,15c-1.071,1.071-1.445,2.655-0.967,4.093  l4.382,13.145l-38.915,58.372C30.614,124.368,30.823,126.48,32.172,127.828z" id="paraglider"/></svg>