<?xml version="1.0" ?><!DOCTYPE svg  PUBLIC '-//W3C//DTD SVG 1.0//EN'  'http://www.w3.org/TR/2001/REC-SVG-20010904/DTD/svg10.dtd'><svg height="160px" id="icon" style="enable-background:new 0 0 160 160;" version="1.0" viewBox="0 0 160 160" width="160px" xml:space="preserve" xmlns="http://www.w3.org/2000/svg" xmlns:xlink="http://www.w3.org/1999/xlink"><path fill="#ffb500" d="M94,135c0,2.209-1.791,4-4,4H70c-2.209,0-4-1.791-4-4s1.791-4,4-4h20C92.209,131,94,132.791,94,135z M139,130  c0,10.477-8.523,19-19,19s-19-8.523-19-19s8.523-19,19-19S139,119.523,139,130z M131,130c0-6.065-4.935-11-11-11s-11,4.935-11,11  s4.935,11,11,11S131,136.065,131,130z M59,130c0,10.477-8.523,19-19,19s-19-8.523-19-19s8.523-19,19-19S59,119.523,59,130z M51,130  c0-6.065-4.935-11-11-11s-11,4.935-11,11s4.935,11,11,11S51,136.065,51,130z M40,125c-1.32,0-2.61,0.529-3.53,1.46  C35.53,127.399,35,128.68,35,130c0,1.319,0.53,2.609,1.47,3.54c0.92,0.93,2.21,1.46,3.53,1.46c1.32,0,2.61-0.53,3.54-1.46  c0.93-0.931,1.46-2.221,1.46-3.54c0-1.32-0.53-2.601-1.46-3.54C42.61,125.529,41.32,125,40,125z M120,125  c-1.32,0-2.61,0.529-3.54,1.46c-0.93,0.939-1.46,2.22-1.46,3.54c0,1.319,0.53,2.609,1.46,3.54c0.93,0.93,2.22,1.46,3.54,1.46  c1.319,0,2.6-0.53,3.53-1.46c0.93-0.931,1.47-2.221,1.47-3.54c0-1.32-0.54-2.61-1.47-3.54C122.609,125.529,121.319,125,120,125z   M147.828,107.172c-0.438-0.439-0.974-0.771-1.563-0.967l-45-15c-1.438-0.478-3.023-0.104-4.093,0.967L88.343,101H67.472l-6-12H85  c2.209,0,4-1.791,4-4s-1.791-4-4-4H55c-0.035,0-0.069,0.012-0.104,0.012c-0.21,0.006-0.419,0.034-0.628,0.074  c-0.077,0.014-0.155,0.019-0.231,0.037c-0.28,0.07-0.557,0.164-0.825,0.299l-50,25C1.856,107.1,1,108.485,1,110v15  c0,1.061,0.421,2.078,1.171,2.828l5,5C7.953,133.609,8.976,134,10,134s2.047-0.391,2.829-1.172c1.562-1.562,1.562-4.095,0-5.656  L9,123.343v-10.871l44.211-22.104l8.211,16.422C62.1,108.144,63.485,109,65,109h25c1.061,0,2.078-0.422,2.828-1.172l8.252-8.252  l41.759,13.92l8.161,8.161v6.686l-3.828,3.829c-1.563,1.562-1.563,4.095,0,5.656c0.78,0.781,1.805,1.172,2.828,1.172  s2.048-0.391,2.828-1.172l5-5c0.75-0.75,1.172-1.768,1.172-2.828v-10c0-1.061-0.422-2.078-1.172-2.828L147.828,107.172z M15,89  c2.209,0,4-1.791,4-4s-1.791-4-4-4H5c-2.209,0-4,1.791-4,4s1.791,4,4,4H15z M55,69c2.209,0,4-1.791,4-4s-1.791-4-4-4H25  c-2.209,0-4,1.791-4,4s1.791,4,4,4H55z" id="car"/></svg>