<?xml version="1.0" ?><!DOCTYPE svg  PUBLIC '-//W3C//DTD SVG 1.0//EN'  'http://www.w3.org/TR/2001/REC-SVG-20010904/DTD/svg10.dtd'><svg height="160px" id="icon" style="enable-background:new 0 0 160 160;" version="1.0" viewBox="0 0 160 160" width="160px" xml:space="preserve" xmlns="http://www.w3.org/2000/svg" xmlns:xlink="http://www.w3.org/1999/xlink"><path fill="#ffb500" d="M32.171,142.172c6.564-6.564,14.093-6.564,20.657,0c1.711,1.711,3.283,2.578,4.671,2.578  s2.96-0.867,4.671-2.578c6.564-6.564,14.093-6.564,20.657,0c3.449,3.449,5.895,3.449,9.344,0c6.563-6.564,14.094-6.564,20.656,0  c3.449,3.449,5.895,3.449,9.344,0c6.563-6.564,14.094-6.564,20.656,0c1.563,1.562,1.563,4.095,0,5.656  c-1.561,1.563-4.096,1.563-5.656,0c-3.449-3.449-5.895-3.449-9.344,0c-3.281,3.282-6.805,4.923-10.328,4.923  s-7.047-1.641-10.328-4.923c-1.711-1.711-3.283-2.578-4.672-2.578s-2.961,0.867-4.672,2.578c-6.563,6.564-14.092,6.564-20.657,0  c-3.448-3.449-5.895-3.449-9.343,0c-6.564,6.564-14.093,6.564-20.657,0c-3.448-3.449-5.895-3.449-9.343,0  c-6.564,6.564-14.093,6.564-20.657,0c-1.562-1.562-1.562-4.095,0-5.656c1.563-1.563,4.095-1.563,5.657,0  C26.277,145.621,28.723,145.621,32.171,142.172z M73.84,65c-17.88,3.319-32.972,16.948-42.495,38.375  c-0.897,2.02,0.012,4.383,2.031,5.28c0.528,0.234,1.08,0.346,1.622,0.346c1.533,0,2.995-0.886,3.658-2.376  C47.198,87.404,59.869,75.73,75.3,72.865c14.425-2.677,29.684,2.776,41.872,14.963c0.186,0.187,0.391,0.354,0.609,0.5l15,10  c1.837,1.226,4.321,0.729,5.547-1.109c1.226-1.838,0.729-4.321-1.109-5.547l-14.675-9.783C108.508,68.008,90.775,61.852,73.84,65z   M75.003,89.001c0.601,0,1.212-0.136,1.786-0.423l10-5c1.976-0.988,2.776-3.391,1.789-5.367c-0.989-1.977-3.394-2.777-5.367-1.789  l-10,5c-1.976,0.988-2.776,3.391-1.789,5.367C72.123,88.19,73.536,89.001,75.003,89.001z M57.5,119.75  c-1.389,0-2.96-0.867-4.671-2.578c-1.563-1.563-4.095-1.563-5.657,0c-1.562,1.562-1.562,4.095,0,5.656  c3.282,3.282,6.805,4.923,10.329,4.923s7.046-1.641,10.329-4.923c3.449-3.449,5.894-3.449,9.343,0  c3.266,3.266,6.741,4.922,10.329,4.922s7.063-1.656,10.328-4.922c3.449-3.449,5.895-3.449,9.344,0  c3.266,3.266,6.74,4.922,10.328,4.922s7.063-1.656,10.328-4.922c1.711-1.711,3.283-2.578,4.672-2.578s2.961,0.867,4.672,2.578  c1.561,1.563,4.096,1.563,5.656,0c1.563-1.562,1.563-4.095,0-5.656c-6.563-6.564-14.094-6.564-20.656,0  c-3.449,3.449-5.895,3.449-9.344,0c-3.266-3.266-6.74-4.922-10.328-4.922s-7.063,1.656-10.328,4.922  c-3.449,3.449-5.895,3.449-9.344,0c-3.266-3.266-6.74-4.922-10.328-4.922s-7.063,1.656-10.329,4.922  C60.46,118.883,58.889,119.75,57.5,119.75z M6.042,130.458c0.015,0.126,0.03,0.251,0.057,0.378c0.03,0.139,0.073,0.273,0.118,0.409  c0.026,0.08,0.038,0.161,0.069,0.24c0.017,0.041,0.04,0.077,0.058,0.116c0.033,0.075,0.07,0.146,0.107,0.219  c0.075,0.146,0.157,0.287,0.248,0.42c0.042,0.063,0.083,0.125,0.13,0.186c0.13,0.17,0.27,0.328,0.422,0.473  c0.019,0.018,0.033,0.037,0.051,0.055c0.181,0.164,0.378,0.307,0.583,0.435c0.021,0.013,0.036,0.03,0.056,0.042  c0.062,0.037,0.127,0.064,0.191,0.098c0.076,0.04,0.15,0.082,0.229,0.117c0.108,0.048,0.218,0.087,0.328,0.125  c0.065,0.023,0.129,0.049,0.195,0.068c0.133,0.039,0.268,0.066,0.403,0.092c0.049,0.008,0.097,0.021,0.147,0.029  c0.187,0.026,0.375,0.042,0.562,0.042c0.001,0,0.002,0,0.003,0s0.001,0,0.002,0c0.003,0,0.007-0.001,0.011-0.001  c0.217-0.001,0.432-0.025,0.645-0.061c0.058-0.01,0.116-0.021,0.174-0.034c0.224-0.048,0.444-0.108,0.657-0.192l24.996-9.999  c2.051-0.82,3.049-3.148,2.229-5.199c-0.82-2.051-3.147-3.051-5.199-2.229l-13.976,5.591l8.891-14.819  c0.029-0.048,0.043-0.1,0.07-0.148c0.072-0.131,0.134-0.266,0.19-0.405c0.045-0.109,0.087-0.219,0.122-0.33  c0.039-0.125,0.067-0.252,0.093-0.383c0.027-0.131,0.05-0.262,0.063-0.394c0.005-0.05,0.021-0.097,0.023-0.147  c2.636-42.183,31.506-64.537,58.661-64.819c0.151-0.001,0.299-0.002,0.45-0.002c16.252,0,35.761,9.112,37.91,34.903  c0.183,2.202,2.123,3.819,4.318,3.654c2.201-0.184,3.838-2.117,3.654-4.318c-1.106-13.276-6.449-24.281-15.451-31.825  c-8.157-6.836-19.197-10.557-30.964-10.411c-0.32,0.004-0.641,0.026-0.961,0.035c-1.408-3.555-3.39-6.824-5.917-9.735  c-3.452-3.979-7.837-7.145-12.679-9.151C63.886,11.868,59.507,11,55,11c-2.209,0-4,1.791-4,4v15c0,2.209,1.791,4,4,4s4-1.791,4-4  V19.308c2.042,0.314,4.033,0.868,5.951,1.663c3.702,1.534,7.057,3.956,9.7,7.004c1.422,1.638,2.618,3.423,3.581,5.334  c-12.46,2.173-24.527,8.33-34.113,17.607c-9.472,9.167-21.089,25.752-23.037,52.84L6.57,127.942  c-0.044,0.073-0.068,0.152-0.107,0.228c-0.065,0.125-0.129,0.25-0.18,0.383c-0.047,0.121-0.083,0.244-0.118,0.367  c-0.035,0.125-0.068,0.248-0.092,0.376c-0.023,0.129-0.035,0.257-0.045,0.388c-0.01,0.128-0.019,0.255-0.017,0.385  C6.014,130.199,6.027,130.328,6.042,130.458z" id="dolphinarium"/></svg>