<?xml version="1.0" ?><!DOCTYPE svg  PUBLIC '-//W3C//DTD SVG 1.0//EN'  'http://www.w3.org/TR/2001/REC-SVG-20010904/DTD/svg10.dtd'><svg height="160px" id="icon" style="enable-background:new 0 0 160 160;" version="1.0" viewBox="0 0 160 160" width="160px" xml:space="preserve" xmlns="http://www.w3.org/2000/svg" xmlns:xlink="http://www.w3.org/1999/xlink"><path fill="#ffb500" d="M110,59c-2.209,0-4-1.791-4-4s1.791-4,4-4h10c2.209,0,4,1.791,4,4s-1.791,4-4,4H110z M139,135V70  c0-2.209-1.791-4-4-4H80c-15.991,0-29,13.01-29,29s13.009,29,29,29c15.912,0,28.873-12.882,28.999-28.765  c0.005-0.077,0.007-0.155,0.007-0.233c0.001-3.816-0.743-7.55-2.214-11.099c-0.845-2.042-3.183-3.011-5.227-2.165  c-2.04,0.846-3.01,3.186-2.164,5.227c1.04,2.51,1.579,5.145,1.604,7.834C101.002,94.865,101,94.933,101,95c0,11.579-9.421,21-21,21  c-11.58,0-21-9.421-21-21s9.42-21,21-21h51v57H29V74h21c1.405,0,2.707-0.737,3.43-1.942L67.265,49H95c2.209,0,4-1.791,4-4  s-1.791-4-4-4H65c-1.405,0-2.707,0.737-3.43,1.942L47.735,66H25c-2.209,0-4,1.791-4,4v65c0,2.209,1.791,4,4,4h110  C137.209,139,139,137.209,139,135z M76.46,91.46C75.53,92.39,75,93.68,75,95c0,1.319,0.53,2.609,1.46,3.529  C77.39,99.47,78.68,100,80,100c1.319,0,2.609-0.53,3.53-1.471C84.47,97.609,85,96.319,85,95c0-1.32-0.53-2.61-1.47-3.54  C82.609,90.529,81.319,90,80,90C78.68,90,77.39,90.529,76.46,91.46z" id="photo_camera"/></svg>