<?xml version="1.0" ?><!DOCTYPE svg  PUBLIC '-//W3C//DTD SVG 1.0//EN'  'http://www.w3.org/TR/2001/REC-SVG-20010904/DTD/svg10.dtd'><svg height="160px" id="icon" style="enable-background:new 0 0 160 160;" version="1.0" viewBox="0 0 160 160" width="160px" xml:space="preserve" xmlns="http://www.w3.org/2000/svg" xmlns:xlink="http://www.w3.org/1999/xlink"><path fill="#ffb500" d="M24.084,34.957c-0.846-2.041,0.124-4.381,2.165-5.226c12.093-5.01,25.412-5.009,37.503,0  c12.092,5.009,21.51,14.427,26.518,26.519c0.846,2.041-0.124,4.381-2.165,5.227c-0.5,0.207-1.019,0.305-1.528,0.305  c-1.57,0-3.06-0.93-3.697-2.47C78.688,49.192,70.808,41.312,60.69,37.121c-10.118-4.19-21.262-4.19-31.38,0  C27.271,37.968,24.93,36.998,24.084,34.957z M105,111c-14.337,0-26-11.664-26-26V75c0-18.748-15.252-34-34-34S11,56.252,11,75v72  c0,2.209,1.791,4,4,4s4-1.791,4-4V97.584c3.908,5.93,7.846,9.918,8.171,10.244L31,111.657V147c0,2.209,1.791,4,4,4s4-1.791,4-4  v-27.343l12,12V147c0,2.209,1.791,4,4,4s4-1.791,4-4v-7.343l10.171,10.171C69.953,150.609,70.976,151,72,151  s2.047-0.391,2.829-1.171c1.562-1.563,1.562-4.095,0-5.657l-42-42c0,0-0.001-0.001-0.001-0.001C32.614,101.955,19,88.099,19,75  c0-9.184,4.791-17.265,12-21.892V90c0,2.209,1.791,4,4,4s4-1.791,4-4V50c0-0.098-0.022-0.19-0.029-0.287  C40.907,49.251,42.924,49,45,49s4.093,0.251,6.029,0.713C51.022,49.81,51,49.902,51,50v60c0,2.209,1.791,4,4,4s4-1.791,4-4V53.108  C66.209,57.735,71,65.816,71,75v55c0,2.209,1.791,4,4,4s4-1.791,4-4v-23.124c3.253,3.86,7.349,6.984,12,9.096V147  c0,2.209,1.791,4,4,4s4-1.791,4-4v-28.541c1.949,0.349,3.952,0.541,6,0.541h6v28c0,2.209,1.791,4,4,4s4-1.791,4-4v-28h12v28  c0,2.209,1.791,4,4,4s4-1.791,4-4v-28h11c2.209,0,4-1.791,4-4s-1.791-4-4-4H105z" id="rollercoaster"/></svg>