<?xml version="1.0" ?><!DOCTYPE svg  PUBLIC '-//W3C//DTD SVG 1.0//EN'  'http://www.w3.org/TR/2001/REC-SVG-20010904/DTD/svg10.dtd'><svg height="160px" id="icon" style="enable-background:new 0 0 160 160;" version="1.0" viewBox="0 0 160 160" width="160px" xml:space="preserve" xmlns="http://www.w3.org/2000/svg" xmlns:xlink="http://www.w3.org/1999/xlink"><path fill="#ffb500" d="M115,31H45c-2.209,0-4,1.791-4,4v110c0,2.209,1.791,4,4,4h70c2.209,0,4-1.791,4-4V35  C119,32.791,117.209,31,115,31z M111,141H49V39h62V141z M76.46,133.529c-0.93-0.92-1.46-2.21-1.46-3.529  c0-1.32,0.53-2.601,1.47-3.54C77.4,125.529,78.68,125,80,125c1.32,0,2.61,0.529,3.54,1.46c0.93,0.939,1.46,2.229,1.46,3.54  c0,1.31-0.53,2.6-1.46,3.529C82.61,134.46,81.32,135,80,135C78.68,135,77.39,134.46,76.46,133.529z" id="smartphone"/></svg>