<?xml version="1.0" ?><!DOCTYPE svg  PUBLIC '-//W3C//DTD SVG 1.0//EN'  'http://www.w3.org/TR/2001/REC-SVG-20010904/DTD/svg10.dtd'><svg height="160px" id="icon" style="enable-background:new 0 0 160 160;" version="1.0" viewBox="0 0 160 160" width="160px" xml:space="preserve" xmlns="http://www.w3.org/2000/svg" xmlns:xlink="http://www.w3.org/1999/xlink"><path fill="#ffb500" d="M106.843,87.544l35-45c1.355-1.744,3.868-2.059,5.613-0.701c1.744,1.356,2.058,3.869,0.702,5.613l-35,45  c-0.788,1.014-1.968,1.544-3.16,1.544c-0.858,0-1.723-0.274-2.453-0.843C105.8,91.801,105.486,89.288,106.843,87.544z M80,109  c-10.477,0-19-8.523-19-19s8.523-19,19-19s19,8.523,19,19S90.477,109,80,109z M91,90c0-6.065-4.935-11-11-11s-11,4.935-11,11  s4.935,11,11,11S91,96.065,91,90z M49,90c0-2.209-1.791-4-4-4s-4,1.791-4,4c0,21.505,17.495,39,39,39c2.209,0,4-1.791,4-4  s-1.791-4-4-4C62.907,121,49,107.094,49,90z M80,149c32.533,0,59-26.467,59-59c0-2.209-1.791-4-4-4s-4,1.791-4,4  c0,28.121-22.878,51-51,51s-51-22.879-51-51c0-13.623,5.305-26.431,14.938-36.063c19.885-19.885,52.239-19.885,72.124,0  c1.563,1.563,4.095,1.563,5.657,0c1.562-1.561,1.562-4.095,0-5.656C110.576,37.138,95.759,31,80,31s-30.576,6.138-41.719,17.281  C27.137,59.424,21,74.24,21,90C21,122.533,47.467,149,80,149z" id="mixer"/></svg>