<?xml version="1.0" ?><!DOCTYPE svg  PUBLIC '-//W3C//DTD SVG 1.0//EN'  'http://www.w3.org/TR/2001/REC-SVG-20010904/DTD/svg10.dtd'><svg height="160px" id="icon" style="enable-background:new 0 0 160 160;" version="1.0" viewBox="0 0 160 160" width="160px" xml:space="preserve" xmlns="http://www.w3.org/2000/svg" xmlns:xlink="http://www.w3.org/1999/xlink"><path fill="#ffb500" d="M35,141c-2.209,0-4,1.791-4,4s1.791,4,4,4h80c2.209,0,4-1.791,4-4s-1.791-4-4-4H79v-27h3.528l8.894,17.789  c0.006,0.013,0.015,0.023,0.021,0.036c0.037,0.072,0.082,0.138,0.123,0.208c0.063,0.105,0.125,0.211,0.195,0.309  c0.049,0.068,0.104,0.129,0.156,0.193c0.074,0.092,0.15,0.182,0.232,0.265c0.057,0.057,0.115,0.11,0.175,0.163  c0.088,0.08,0.178,0.156,0.272,0.227c0.063,0.047,0.127,0.092,0.192,0.135c0.099,0.065,0.198,0.125,0.302,0.182  c0.069,0.037,0.139,0.074,0.21,0.108c0.106,0.05,0.215,0.092,0.325,0.133c0.074,0.027,0.146,0.056,0.221,0.078  c0.119,0.036,0.241,0.062,0.363,0.086c0.068,0.014,0.137,0.033,0.206,0.043c0.184,0.027,0.368,0.042,0.555,0.044  c0.01,0,0.019,0.002,0.027,0.002c0.001,0,0.001,0,0.002,0s0.001,0,0.002,0c0.003,0,0.006-0.001,0.009-0.001  c0.262-0.001,0.524-0.037,0.787-0.091c0.077-0.016,0.152-0.035,0.229-0.056c0.079-0.021,0.158-0.032,0.237-0.059l15-5  c0.112-0.037,0.209-0.096,0.315-0.142c0.068-0.03,0.141-0.042,0.209-0.076c0.036-0.018,0.064-0.044,0.1-0.063  c0.128-0.068,0.244-0.148,0.362-0.229c0.103-0.071,0.207-0.138,0.302-0.217c0.103-0.085,0.193-0.18,0.286-0.275  c0.091-0.092,0.183-0.182,0.264-0.282c0.079-0.098,0.146-0.203,0.215-0.308c0.073-0.109,0.147-0.217,0.208-0.332  c0.06-0.112,0.105-0.229,0.153-0.346c0.05-0.119,0.101-0.235,0.138-0.357c0.038-0.124,0.062-0.25,0.088-0.377  c0.025-0.125,0.053-0.248,0.066-0.375c0.013-0.126,0.012-0.253,0.013-0.382c0.001-0.133,0.004-0.266-0.009-0.4  c-0.011-0.122-0.037-0.243-0.06-0.365c-0.026-0.141-0.052-0.28-0.095-0.419c-0.011-0.038-0.013-0.077-0.025-0.115  c-0.03-0.091-0.079-0.169-0.115-0.256c-0.037-0.089-0.058-0.181-0.102-0.268L104,104.056v-6.582l8.781,5.854  c0.954,0.637,2.138,0.833,3.245,0.538c1.109-0.295,2.038-1.051,2.552-2.077l5-10c0.642-1.284,0.546-2.813-0.25-4.008L114,73.789V65  c0-1.286-0.618-2.493-1.661-3.245s-2.384-0.957-3.604-0.55l-15,5c-0.59,0.197-1.125,0.527-1.563,0.966L79,80.343V48.408  c2.302-0.688,4.36-1.945,6-3.62C87.543,47.386,91.087,49,95,49s7.457-1.614,10-4.211c2.543,2.598,6.087,4.211,10,4.211  c7.72,0,14-6.28,14-14V25c0-1.636-0.996-3.106-2.515-3.714l-50-20c-0.953-0.382-2.018-0.382-2.971,0l-50,20  C21.996,21.894,21,23.364,21,25v10c0,7.72,6.28,14,14,14c3.913,0,7.457-1.614,10-4.211C47.543,47.386,51.087,49,55,49  s7.457-1.614,10-4.211c1.64,1.674,3.698,2.932,6,3.62V81H55c-0.43,0-0.857,0.069-1.265,0.205l-15,5  c-1.194,0.398-2.132,1.335-2.53,2.53l-5,15c-0.698,2.096,0.435,4.361,2.53,5.06c2.088,0.695,4.36-0.434,5.06-2.53l4.367-13.103  L55.649,89H80c1.061,0,2.078-0.421,2.828-1.171l14.333-14.333L106,70.55V75c0,0.79,0.233,1.562,0.672,2.219l8.712,13.069  l-1.936,3.871l-11.229-7.486c-1.228-0.818-2.805-0.894-4.106-0.199C96.812,87.169,96,88.525,96,90v15  c0,0.621,0.145,1.233,0.422,1.789l7.938,15.875l-7.333,2.444l-8.448-16.897C87.9,106.856,86.515,106,85,106H65  c-1.515,0-2.9,0.856-3.578,2.211l-8.448,16.897l-7.333-2.444l7.938-15.875c0.987-1.976,0.187-4.379-1.789-5.367  c-1.976-0.988-4.378-0.188-5.367,1.789l-10,20c-0.043,0.087-0.064,0.178-0.102,0.267c-0.036,0.088-0.085,0.166-0.115,0.257  c-0.013,0.038-0.015,0.077-0.025,0.115c-0.043,0.139-0.068,0.278-0.095,0.419c-0.022,0.123-0.049,0.243-0.06,0.365  c-0.013,0.134-0.01,0.267-0.009,0.4c0.001,0.128,0,0.256,0.013,0.382c0.014,0.127,0.041,0.25,0.066,0.375  c0.026,0.127,0.05,0.254,0.088,0.377c0.037,0.123,0.088,0.239,0.138,0.357c0.048,0.117,0.094,0.234,0.153,0.346  c0.061,0.115,0.135,0.223,0.208,0.332c0.069,0.105,0.136,0.21,0.215,0.308c0.081,0.1,0.173,0.19,0.264,0.282  c0.093,0.095,0.184,0.189,0.286,0.275c0.095,0.079,0.199,0.146,0.302,0.217c0.118,0.081,0.234,0.161,0.362,0.229  c0.035,0.019,0.063,0.045,0.1,0.063c0.068,0.034,0.141,0.046,0.209,0.076c0.106,0.046,0.203,0.104,0.315,0.142l15,5  c0.045,0.015,0.091,0.02,0.136,0.033c0.085,0.025,0.169,0.043,0.254,0.063c0.16,0.036,0.319,0.063,0.479,0.079  c0.081,0.008,0.16,0.016,0.241,0.019c0.051,0.002,0.104,0.013,0.155,0.013c0.132,0,0.262-0.018,0.393-0.031  c0.053-0.005,0.106-0.005,0.158-0.013c0.239-0.033,0.473-0.085,0.7-0.161c0.025-0.009,0.049-0.021,0.075-0.031  c0.194-0.069,0.383-0.152,0.564-0.25c0.066-0.036,0.128-0.076,0.192-0.116c0.14-0.085,0.273-0.178,0.402-0.28  c0.063-0.05,0.125-0.101,0.186-0.154c0.136-0.122,0.261-0.255,0.38-0.396c0.037-0.044,0.077-0.083,0.112-0.128  c0.149-0.193,0.281-0.401,0.396-0.624c0.005-0.01,0.013-0.019,0.019-0.029L67.472,114H71v27H35z M69,35c0-2.209-1.791-4-4-4  s-4,1.791-4,4c0,3.309-2.691,6-6,6s-6-2.691-6-6c0-2.209-1.791-4-4-4s-4,1.791-4,4c0,3.309-2.691,6-6,6s-6-2.691-6-6v-7.292l46-18.4  l46,18.4V35c0,3.309-2.691,6-6,6s-6-2.691-6-6c0-2.209-1.791-4-4-4s-4,1.791-4,4c0,3.309-2.691,6-6,6s-6-2.691-6-6  c0-2.209-1.791-4-4-4s-4,1.791-4,4c0,3.309-2.691,6-6,6S69,38.309,69,35z" id="carousel"/></svg>