<?xml version="1.0" ?><!DOCTYPE svg  PUBLIC '-//W3C//DTD SVG 1.0//EN'  'http://www.w3.org/TR/2001/REC-SVG-20010904/DTD/svg10.dtd'><svg height="160px" id="icon" style="enable-background:new 0 0 160 160;" version="1.0" viewBox="0 0 160 160" width="160px" xml:space="preserve" xmlns="http://www.w3.org/2000/svg" xmlns:xlink="http://www.w3.org/1999/xlink"><path fill="#ffb500" d="M11.055,129.343l10-60c0.196-1.18,0.91-2.21,1.946-2.808l26-15c1.182-0.68,2.627-0.715,3.837-0.088  L80.03,65.513l28.181-14.091c1.223-0.61,2.674-0.555,3.847,0.148l25,15c1.005,0.603,1.695,1.616,1.888,2.772l10,60  C148.981,129.56,149,129.779,149,130c0,8.41-4.045,15.106-10.819,17.913c-2.121,0.88-4.347,1.307-6.585,1.307  c-5.045,0-10.158-2.177-14.314-6.282l-28.893-24.908c-1.674-1.442-1.86-3.968-0.418-5.641c1.442-1.674,3.97-1.86,5.641-0.418l29,25  c0.075,0.064,0.147,0.131,0.217,0.201c3.683,3.682,8.396,4.966,12.291,3.35c3.661-1.516,5.792-5.227,5.878-10.207l-9.639-57.835  l-21.533-12.92L81.789,73.578c-1.145,0.571-2.491,0.562-3.627-0.025L51.104,59.558l-22.47,12.963l-9.632,57.794  c0.086,4.98,2.217,8.691,5.878,10.207c3.898,1.616,8.609,0.332,12.291-3.35c0.085-0.086,0.175-0.167,0.268-0.245l30-25  c1.697-1.413,4.219-1.185,5.634,0.513c1.414,1.697,1.185,4.219-0.513,5.634l-29.866,24.889c-5.999,5.909-13.982,7.807-20.875,4.951  C15.045,145.106,11,138.41,11,130C11,129.779,11.019,129.56,11.055,129.343z M50,104c2.209,0,4-1.791,4-4v-6h6c2.209,0,4-1.791,4-4  s-1.791-4-4-4h-6v-6c0-2.209-1.791-4-4-4s-4,1.791-4,4v6h-6c-2.209,0-4,1.791-4,4s1.791,4,4,4h6v6C46,102.209,47.791,104,50,104z   M100,85c-1.32,0-2.61,0.529-3.53,1.46C95.53,87.39,95,88.68,95,90c0,1.319,0.53,2.609,1.47,3.529C97.39,94.47,98.68,95,100,95  c1.319,0,2.6-0.53,3.54-1.471c0.93-0.92,1.46-2.21,1.46-3.529c0-1.32-0.53-2.601-1.46-3.54C102.609,85.529,101.319,85,100,85z   M110,75c-1.32,0-2.61,0.529-3.54,1.46C105.53,77.39,105,78.68,105,80c0,1.319,0.53,2.609,1.46,3.529  C107.399,84.47,108.689,85,110,85c1.319,0,2.6-0.53,3.54-1.471c0.93-0.92,1.46-2.21,1.46-3.529c0-1.32-0.53-2.61-1.46-3.54  C112.609,75.529,111.319,75,110,75z M120,95c1.319,0,2.609-0.53,3.54-1.471C124.47,92.6,125,91.31,125,90  c0-1.311-0.53-2.601-1.46-3.54C122.609,85.529,121.319,85,120,85c-1.32,0-2.61,0.529-3.54,1.46C115.53,87.399,115,88.68,115,90  c0,1.319,0.53,2.609,1.46,3.529C117.39,94.47,118.68,95,120,95z M106.46,103.54c0.939,0.93,2.229,1.46,3.54,1.46  c1.31,0,2.6-0.53,3.54-1.46c0.93-0.931,1.46-2.221,1.46-3.54c0-1.311-0.53-2.601-1.46-3.54C112.6,95.529,111.31,95,110,95  c-1.32,0-2.61,0.529-3.54,1.46c-0.93,0.93-1.46,2.22-1.46,3.54C105,101.319,105.53,102.609,106.46,103.54z M80,16  c-2.209,0-4,1.791-4,4v25c0,2.209,1.791,4,4,4s4-1.791,4-4V20C84,17.791,82.209,16,80,16z" id="gamepad"/></svg>