<?xml version="1.0" ?><!DOCTYPE svg  PUBLIC '-//W3C//DTD SVG 1.0//EN'  'http://www.w3.org/TR/2001/REC-SVG-20010904/DTD/svg10.dtd'><svg height="160px" id="icon" style="enable-background:new 0 0 160 160;" version="1.0" viewBox="0 0 160 160" width="160px" xml:space="preserve" xmlns="http://www.w3.org/2000/svg" xmlns:xlink="http://www.w3.org/1999/xlink"><path fill="#ffb500" d="M31.064,49.285l-10,55c-0.006,0.032-0.002,0.064-0.008,0.096c-0.022,0.145-0.028,0.291-0.035,0.438  c-0.005,0.118-0.017,0.237-0.012,0.354c0.005,0.129,0.029,0.258,0.047,0.387c0.019,0.132,0.033,0.265,0.064,0.393  c0.027,0.111,0.071,0.22,0.108,0.33c0.048,0.142,0.095,0.282,0.159,0.417c0.014,0.029,0.019,0.06,0.034,0.089l10,20  c0.111,0.223,0.247,0.425,0.391,0.617C31.291,129.012,31,130.722,31,132.5c0,9.098,7.402,16.5,16.5,16.5  c4.996,0,9.472-2.241,12.5-5.76c3.028,3.52,7.504,5.76,12.5,5.76s9.472-2.241,12.5-5.76c3.028,3.52,7.504,5.76,12.5,5.76  s9.472-2.241,12.5-5.76c3.028,3.52,7.504,5.76,12.5,5.76c9.098,0,16.5-7.402,16.5-16.5c0-1.202-0.137-2.371-0.382-3.5H145  c2.209,0,4-1.791,4-4s-1.791-4-4-4h-10c-0.217,0-0.426,0.031-0.633,0.064c-3.003-3.116-7.208-5.064-11.867-5.064  c-4.996,0-9.472,2.241-12.5,5.76c-3.028-3.52-7.504-5.76-12.5-5.76s-9.472,2.241-12.5,5.76c-3.028-3.52-7.504-5.76-12.5-5.76  s-9.472,2.241-12.5,5.76c-3.028-3.52-7.504-5.76-12.5-5.76c-4.031,0-7.725,1.458-10.594,3.868l-7.732-15.464l9.428-51.855  L67.4,36.093l8.437,33.747l-4.632,13.896c-0.698,2.096,0.434,4.361,2.53,5.06c0.42,0.14,0.846,0.206,1.266,0.206  c1.675,0,3.235-1.06,3.794-2.736L82.53,75.06l7.41,2.47l-3.735,11.205c-0.698,2.096,0.434,4.361,2.53,5.06  c0.42,0.14,0.846,0.206,1.266,0.206c1.675,0,3.235-1.06,3.794-2.736L97.53,80.06l7.41,2.47l-3.735,11.205  c-0.698,2.096,0.434,4.361,2.53,5.06c0.42,0.14,0.846,0.206,1.266,0.206c1.675,0,3.235-1.06,3.794-2.736l3.735-11.205l24.633,8.211  l3.365,6.729l-4.105,8.211c-0.988,1.976-0.187,4.379,1.789,5.367c0.575,0.287,1.185,0.423,1.786,0.423  c1.467,0,2.88-0.811,3.581-2.212l5-10c0.563-1.126,0.563-2.452,0-3.578l-5-10c-0.474-0.949-1.306-1.67-2.313-2.006L83.348,66.899  L73.88,29.03c-0.304-1.215-1.159-2.217-2.311-2.709c-1.151-0.491-2.467-0.415-3.554,0.206l-35,20  C31.99,47.113,31.276,48.123,31.064,49.285z M122.5,124c4.687,0,8.5,3.813,8.5,8.5c0,4.687-3.813,8.5-8.5,8.5s-8.5-3.813-8.5-8.5  C114,127.813,117.813,124,122.5,124z M97.5,124c4.687,0,8.5,3.813,8.5,8.5c0,4.687-3.813,8.5-8.5,8.5s-8.5-3.813-8.5-8.5  C89,127.813,92.813,124,97.5,124z M72.5,124c4.687,0,8.5,3.813,8.5,8.5c0,4.687-3.813,8.5-8.5,8.5s-8.5-3.813-8.5-8.5  C64,127.813,67.813,124,72.5,124z M47.5,124c4.687,0,8.5,3.813,8.5,8.5c0,4.687-3.813,8.5-8.5,8.5s-8.5-3.813-8.5-8.5  C39,127.813,42.813,124,47.5,124z M65,65c1.32,0,2.6,0.53,3.54,1.46C69.47,67.39,70,68.68,70,70c0,1.32-0.53,2.61-1.46,3.54  C67.61,74.47,66.32,75,65,75c-1.32,0-2.61-0.53-3.54-1.46C60.53,72.6,60,71.32,60,70c0-1.32,0.53-2.61,1.46-3.54  C62.4,65.53,63.68,65,65,65z" id="skates"/></svg>