<?xml version="1.0" ?><!DOCTYPE svg  PUBLIC '-//W3C//DTD SVG 1.0//EN'  'http://www.w3.org/TR/2001/REC-SVG-20010904/DTD/svg10.dtd'><svg height="160px" id="icon" style="enable-background:new 0 0 160 160;" version="1.0" viewBox="0 0 160 160" width="160px" xml:space="preserve" xmlns="http://www.w3.org/2000/svg" xmlns:xlink="http://www.w3.org/1999/xlink"><path fill="#ffb500" d="M106.789,111.422c-1.976-0.985-4.378-0.187-5.367,1.789L92.528,131H48.24c0.496-1.918,0.76-3.929,0.76-6  c0-13.233-10.766-24-24-24S1,111.767,1,125s10.766,24,24,24c8.033,0,15.152-3.971,19.51-10.049C44.673,138.971,44.832,139,45,139  h49.989c0.002,0,0.005,0.002,0.008,0.002c0.242,0,0.48-0.031,0.717-0.074c0.064-0.012,0.126-0.024,0.189-0.039  c0.198-0.046,0.391-0.104,0.58-0.18c0.03-0.012,0.062-0.02,0.092-0.033c0.209-0.089,0.408-0.201,0.6-0.325  c0.049-0.032,0.096-0.067,0.144-0.101c0.152-0.109,0.296-0.229,0.433-0.357c0.036-0.035,0.073-0.066,0.108-0.102  c0.161-0.164,0.31-0.342,0.442-0.535c0.023-0.035,0.041-0.072,0.063-0.107c0.075-0.117,0.15-0.232,0.213-0.359l10-20  C109.565,114.813,108.765,112.41,106.789,111.422z M25,141c-8.822,0-16-7.178-16-16s7.178-16,16-16s16,7.178,16,16  S33.822,141,25,141z M37.829,77.172L46.657,86h22.573l43.653-17.461l-10.711-10.711c-1.562-1.562-1.562-4.095,0-5.656  c1.563-1.563,4.095-1.563,5.657,0l13.917,13.916C131.406,66.974,139,75.112,139,85v5c0,2.209-1.791,4-4,4s-4-1.791-4-4v-5  c0-5.834-4.57-10.609-10.316-10.965L71.485,93.714C71.013,93.903,70.509,94,70,94H45c-0.263,0-0.525-0.027-0.784-0.079  c-0.116-0.022-0.223-0.066-0.335-0.1c-0.138-0.04-0.277-0.071-0.411-0.128c-0.132-0.055-0.252-0.129-0.377-0.197  c-0.104-0.057-0.212-0.104-0.312-0.17c-0.219-0.146-0.424-0.313-0.61-0.498l0,0l-8.251-8.252L6.265,93.795  c-0.42,0.14-0.847,0.207-1.266,0.207c-1.675,0-3.235-1.061-3.794-2.737c-0.698-2.096,0.434-4.36,2.53-5.06l30-10  c0.078-0.025,0.156-0.031,0.234-0.053c0.138-0.037,0.274-0.071,0.415-0.094c0.13-0.02,0.258-0.029,0.388-0.037  c0.125-0.007,0.25-0.012,0.375-0.008c0.136,0.006,0.269,0.021,0.403,0.039c0.121,0.017,0.241,0.036,0.36,0.064  c0.13,0.029,0.255,0.069,0.381,0.112c0.119,0.04,0.235,0.083,0.351,0.136c0.123,0.055,0.24,0.119,0.356,0.188  c0.105,0.061,0.209,0.122,0.309,0.193c0.122,0.086,0.234,0.183,0.346,0.282C37.71,77.079,37.774,77.117,37.829,77.172z   M123.578,93.211l15,30c0.988,1.977,0.187,4.379-1.789,5.367c-0.574,0.287-1.185,0.424-1.786,0.424c-1.467,0-2.88-0.812-3.581-2.213  l-15-30c-0.988-1.977-0.187-4.379,1.789-5.367C120.187,90.436,122.59,91.235,123.578,93.211z M85,111c2.209,0,4,1.791,4,4  s-1.791,4-4,4H60c-2.209,0-4-1.791-4-4s1.791-4,4-4H85z M157.177,115.811c1.209,2.921,1.823,6.012,1.823,9.189  c0,13.233-10.767,24-24.001,24c-6.41,0-12.437-2.496-16.97-7.029C113.496,137.437,111,131.41,111,125  c0-3.181,0.613-6.271,1.822-9.187c0.846-2.04,3.187-3.006,5.227-2.163c2.041,0.847,3.009,3.187,2.163,5.228  C119.408,120.816,119,122.877,119,125c0,4.273,1.664,8.291,4.686,11.313c3.022,3.022,7.04,4.687,11.313,4.687  c8.823,0,16.001-7.178,16.001-16c0-2.122-0.408-4.183-1.213-6.125c-0.807-1.946-1.976-3.691-3.472-5.188  c-1.5-1.499-3.246-2.668-5.191-3.475c-2.041-0.847-3.009-3.187-2.163-5.228c0.846-2.042,3.188-3.005,5.227-2.163  c2.919,1.211,5.538,2.963,7.783,5.208C154.213,110.271,155.965,112.889,157.177,115.811z M28.54,121.46  c0.93,0.939,1.46,2.22,1.46,3.54c0,1.319-0.53,2.609-1.46,3.54C27.6,129.47,26.32,130,25,130c-1.32,0-2.61-0.53-3.53-1.46  C20.54,127.609,20,126.319,20,125c0-1.32,0.54-2.601,1.47-3.54c0.92-0.931,2.21-1.46,3.53-1.46  C26.32,120,27.61,120.529,28.54,121.46z" id="motor"/></svg>