<?xml version="1.0" ?><!DOCTYPE svg  PUBLIC '-//W3C//DTD SVG 1.0//EN'  'http://www.w3.org/TR/2001/REC-SVG-20010904/DTD/svg10.dtd'><svg height="160px" id="icon" style="enable-background:new 0 0 160 160;" version="1.0" viewBox="0 0 160 160" width="160px" xml:space="preserve" xmlns="http://www.w3.org/2000/svg" xmlns:xlink="http://www.w3.org/1999/xlink"><path fill="#ffb500" d="M95,99c7.72,0,14-6.28,14-14s-6.28-14-14-14s-14,6.28-14,14S87.28,99,95,99z M95,79c3.309,0,6,2.691,6,6  s-2.691,6-6,6s-6-2.691-6-6S91.691,79,95,79z M139,95c0,2.209-1.791,4-4,4s-4-1.791-4-4V68.893  c-27.729-1.351-41.23-16.659-47.703-29.604c-1.326-2.652-2.409-5.298-3.297-7.854c-0.888,2.557-1.971,5.203-3.297,7.854  C70.23,52.233,56.729,67.542,29,68.893V95c0,2.209-1.791,4-4,4s-4-1.791-4-4V10c0-2.209,1.791-4,4-4s4,1.791,4,4v41.938  C40.813,38.927,41,10.327,41,9.998c0.002-2.208,1.793-3.997,4-3.997c0.001,0,0.001,0,0.002,0C47.21,6.002,49,7.792,49,10  c0,1.51-0.194,32.676-14.734,47.962c22.78-11.485,26.713-47.945,26.754-48.36c0.22-2.199,2.183-3.801,4.378-3.582  c2.198,0.22,3.802,2.18,3.582,4.378c-0.155,1.55-3.025,28.038-18.395,44.997C75.532,42.49,75.995,11.639,76,9.994  c0-0.077,0.019-0.148,0.023-0.224C76.145,7.67,77.87,6,80,6c1.657,0,3.079,1.008,3.686,2.444c0.022,0.052,0.031,0.11,0.052,0.164  c0.07,0.19,0.14,0.382,0.181,0.584c0.022,0.109,0.021,0.226,0.035,0.338C83.971,9.684,84,9.835,84,9.994  c0.006,1.645,0.469,32.496,25.414,45.401C94.045,38.436,91.175,11.948,91.02,10.398C90.8,8.2,92.404,6.24,94.602,6.02  c2.211-0.219,4.158,1.384,4.379,3.581c0.051,0.499,4.055,36.861,26.74,48.347C111.194,42.657,111,11.51,111,10c0-2.209,1.791-4,4-4  c2.208,0,3.999,1.79,4,3.998c0,0.329,0.186,28.929,12,41.939V10c0-2.209,1.791-4,4-4s4,1.791,4,4V95z M25,141h58.528l-7.106-14.211  c-0.178-0.357-0.302-0.738-0.368-1.131l-4.665-27.991L43.211,83.578c-1.976-0.988-2.776-3.39-1.789-5.367  c0.988-1.976,3.391-2.775,5.367-1.789l30,15c1.145,0.572,1.946,1.658,2.157,2.92l4.901,29.407l9.731,19.462  c0.619,1.24,0.554,2.713-0.176,3.892C92.674,148.282,91.387,149,90,149H25c-2.209,0-4-1.791-4-4S22.791,141,25,141z   M117.172,147.829l-25-25c-1.349-1.349-1.558-3.461-0.5-5.047l10-15c1.12-1.68,3.315-2.26,5.117-1.359l20,10  c1.976,0.988,2.776,3.391,1.789,5.367c-0.989,1.975-3.393,2.774-5.367,1.789l-16.842-8.421l-6.222,9.333l21.51,21.51H135  c2.209,0,4,1.791,4,4s-1.791,4-4,4h-15C118.939,149,117.922,148.579,117.172,147.829z" id="theater"/></svg>