<?xml version="1.0" ?><!DOCTYPE svg  PUBLIC '-//W3C//DTD SVG 1.0//EN'  'http://www.w3.org/TR/2001/REC-SVG-20010904/DTD/svg10.dtd'><svg height="160px" id="icon" style="enable-background:new 0 0 160 160;" version="1.0" viewBox="0 0 160 160" width="160px" xml:space="preserve" xmlns="http://www.w3.org/2000/svg" xmlns:xlink="http://www.w3.org/1999/xlink"><path fill="#ffb500" d="M80,66h19.45l-2.721-8.163l-18.518-9.259c-1.976-0.988-2.776-3.391-1.789-5.367  c0.988-1.975,3.39-2.776,5.367-1.789l20,10c0.949,0.475,1.67,1.307,2.006,2.313l4.701,14.104l19.333,19.333  c1.562,1.562,1.562,4.095,0,5.656C127.047,93.609,126.024,94,125,94s-2.047-0.391-2.829-1.172L103.343,74H80.896  c-3.427,1.562-15.943,6.709-31.944,6.709c-9.42,0-20.046-1.783-30.742-7.131c-1.976-0.988-2.776-3.391-1.789-5.367  c0.988-1.975,3.39-2.775,5.367-1.789c27.89,13.947,56.14,0.142,56.422,0C78.767,66.145,79.379,66,80,66z M90,111H72.141  l-8.813-13.219c-0.465-0.697-1.138-1.232-1.924-1.526l-40-15c-2.067-0.775-4.374,0.271-5.149,2.341  c-0.776,2.068,0.272,4.374,2.341,5.149l38.792,14.548l9.284,13.926C67.414,118.332,68.663,119,70,119h20c2.209,0,4-1.791,4-4  S92.209,111,90,111z M125,120c-1.32,0-2.61,0.529-3.54,1.46c-0.93,0.939-1.46,2.22-1.46,3.54c0,1.319,0.53,2.609,1.46,3.54  c0.94,0.93,2.22,1.46,3.54,1.46c1.32,0,2.61-0.53,3.53-1.46c0.94-0.931,1.47-2.221,1.47-3.54c0-1.311-0.53-2.601-1.47-3.54  C127.61,120.529,126.32,120,125,120z M35,120c-1.32,0-2.61,0.529-3.54,1.46C30.53,122.399,30,123.68,30,125  c0,1.319,0.53,2.609,1.46,3.54C32.4,129.47,33.68,130,35,130c1.32,0,2.61-0.53,3.53-1.46c0.94-0.931,1.47-2.221,1.47-3.54  c0-1.311-0.53-2.601-1.47-3.54C37.61,120.529,36.32,120,35,120z M149,125c0,13.233-10.766,24-24,24s-24-10.767-24-24  s10.766-24,24-24S149,111.767,149,125z M141,125c0-8.822-7.178-16-16-16s-16,7.178-16,16s7.178,16,16,16S141,133.822,141,125z   M59,125c0,13.233-10.766,24-24,24s-24-10.767-24-24s10.766-24,24-24S59,111.767,59,125z M51,125c0-8.822-7.178-16-16-16  s-16,7.178-16,16s7.178,16,16,16S51,133.822,51,125z" id="quad"/></svg>