<?xml version="1.0" ?><!DOCTYPE svg  PUBLIC '-//W3C//DTD SVG 1.0//EN'  'http://www.w3.org/TR/2001/REC-SVG-20010904/DTD/svg10.dtd'><svg height="160px" id="icon" style="enable-background:new 0 0 160 160;" version="1.0" viewBox="0 0 160 160" width="160px" xml:space="preserve" xmlns="http://www.w3.org/2000/svg" xmlns:xlink="http://www.w3.org/1999/xlink"><path fill="#ffb500" d="M121,105v42c0,2.209,1.791,4,4,4s4-1.791,4-4v-41.604l9.922-49.611c0.354-1.769-0.52-3.556-2.133-4.362  l-12.306-6.153C127.253,42.71,129,39.06,129,35c0-7.72-6.28-14-14-14s-14,6.28-14,14c0,4.06,1.747,7.71,4.517,10.27l-12.306,6.153  c-0.019,0.009-0.033,0.023-0.052,0.033c-0.136,0.07-0.259,0.159-0.386,0.244c-0.093,0.063-0.191,0.117-0.277,0.186  c-0.104,0.083-0.194,0.184-0.29,0.278c-0.089,0.088-0.187,0.169-0.267,0.265c-0.076,0.091-0.137,0.196-0.205,0.294  c-0.08,0.115-0.166,0.225-0.233,0.347c-0.051,0.091-0.085,0.193-0.129,0.29c-0.065,0.145-0.134,0.288-0.181,0.438  c-0.006,0.019-0.017,0.035-0.022,0.054L80,91.081l-11.169-37.23c-0.006-0.019-0.017-0.035-0.022-0.054  c-0.048-0.152-0.116-0.295-0.182-0.441c-0.044-0.095-0.078-0.196-0.128-0.287c-0.068-0.125-0.157-0.238-0.239-0.355  c-0.066-0.096-0.125-0.198-0.199-0.286c-0.083-0.099-0.184-0.184-0.277-0.275c-0.093-0.09-0.178-0.187-0.277-0.267  c-0.09-0.072-0.193-0.129-0.291-0.194c-0.122-0.082-0.242-0.168-0.373-0.236c-0.019-0.01-0.033-0.024-0.053-0.034L54.483,45.27  C57.253,42.71,59,39.06,59,35c0-7.72-6.28-14-14-14s-14,6.28-14,14c0,4.06,1.747,7.71,4.517,10.27l-12.306,6.153  c-1.613,0.807-2.487,2.593-2.133,4.362L31,105.396V147c0,2.209,1.791,4,4,4s4-1.791,4-4v-42c0-0.263-0.026-0.526-0.078-0.785  l-9.4-47.004L45,49.472l16.666,8.333l14.503,48.344c0.002,0.006,0.005,0.012,0.007,0.018c0.018,0.056,0.044,0.107,0.063,0.162  c0.063,0.177,0.132,0.35,0.216,0.513c0.034,0.066,0.076,0.127,0.114,0.191c0.085,0.145,0.175,0.284,0.276,0.414  c0.051,0.066,0.105,0.127,0.16,0.19c0.105,0.119,0.216,0.23,0.334,0.335c0.063,0.058,0.127,0.115,0.194,0.168  c0.141,0.11,0.289,0.207,0.442,0.297c0.054,0.032,0.103,0.069,0.158,0.098c0.216,0.114,0.441,0.206,0.674,0.279  c0.015,0.004,0.027,0.013,0.042,0.017c0.099,0.03,0.198,0.044,0.298,0.066c0.083,0.018,0.164,0.042,0.248,0.055  c0.189,0.029,0.379,0.044,0.566,0.046c0.012,0,0.023,0.003,0.035,0.003c0.001,0,0.001,0,0.002,0s0.001,0,0.002,0  c0.012,0,0.022-0.002,0.034-0.003c0.188-0.001,0.378-0.017,0.568-0.046c0.081-0.012,0.159-0.036,0.239-0.053  c0.103-0.022,0.204-0.038,0.306-0.068c0.015-0.004,0.028-0.013,0.043-0.018c0.231-0.073,0.456-0.165,0.671-0.277  c0.059-0.031,0.111-0.07,0.168-0.104c0.149-0.089,0.295-0.184,0.432-0.291c0.07-0.055,0.135-0.114,0.201-0.173  c0.115-0.104,0.224-0.213,0.327-0.33c0.057-0.064,0.112-0.127,0.164-0.194c0.101-0.129,0.189-0.267,0.273-0.409  c0.039-0.065,0.082-0.127,0.116-0.195c0.084-0.162,0.153-0.334,0.215-0.51c0.02-0.055,0.047-0.107,0.064-0.163  c0.002-0.006,0.005-0.011,0.007-0.018l14.503-48.344L115,49.472l15.479,7.739l-9.4,47.004C121.026,104.474,121,104.737,121,105z   M45.002,41C45,41,45,41,44.998,41C41.69,40.999,39,38.308,39,35c0-3.309,2.691-6,6-6s6,2.691,6,6C51,38.308,48.31,40.999,45.002,41  z M115.002,41c-0.002,0-0.002,0-0.004,0C111.69,40.999,109,38.308,109,35c0-3.309,2.691-6,6-6s6,2.691,6,6  C121,38.308,118.31,40.999,115.002,41z M101,147v-41.606l-4.922-24.609c-0.434-2.167,0.971-4.274,3.138-4.707  c2.168-0.43,4.273,0.972,4.706,3.138l4.994,24.968c0.001,0.007,0.002,0.015,0.004,0.021l0.002,0.01  c0.02,0.098,0.017,0.195,0.028,0.293c0.021,0.163,0.05,0.323,0.05,0.492v0.018c0,0.003,0,0.005,0,0.008V147c0,2.209-1.791,4-4,4  S101,149.209,101,147z M60.784,76.078c2.167,0.433,3.571,2.541,3.138,4.707L59,105.394V147c0,2.209-1.791,4-4,4s-4-1.791-4-4  v-41.974c0-0.003,0-0.005,0-0.008V105c0-0.168,0.029-0.329,0.05-0.492c0.012-0.098,0.009-0.195,0.028-0.293l0.002-0.01  c0.002-0.007,0.003-0.014,0.004-0.021l4.994-24.968C56.511,77.05,58.617,75.647,60.784,76.078z" id="couple_2_"/></svg>