<?xml version="1.0" ?><!DOCTYPE svg  PUBLIC '-//W3C//DTD SVG 1.0//EN'  'http://www.w3.org/TR/2001/REC-SVG-20010904/DTD/svg10.dtd'><svg height="160px" id="icon" style="enable-background:new 0 0 160 160;" version="1.0" viewBox="0 0 160 160" width="160px" xml:space="preserve" xmlns="http://www.w3.org/2000/svg" xmlns:xlink="http://www.w3.org/1999/xlink"><path fill="#ffb500" d="M55,149h50c2.209,0,4-1.791,4-4v-11.34c11.335-1.91,20-11.79,20-23.66V70c0-13.233-10.767-24-24-24H55  c-13.233,0-24,10.767-24,24v40c0,11.87,8.665,21.75,20,23.66V145C51,147.209,52.791,149,55,149z M39,110V70c0-8.822,7.178-16,16-16  h50c8.822,0,16,7.178,16,16v40c0,8.822-7.178,16-16,16H70c-2.209,0-4,1.791-4,4s1.791,4,4,4h31v7H59v-11c0-2.209-1.791-4-4-4  C46.178,126,39,118.822,39,110z M61.46,88.54C60.53,87.609,60,86.319,60,85c0-1.32,0.53-2.601,1.46-3.53  C62.39,80.529,63.68,80,65,80c1.319,0,2.6,0.529,3.54,1.47C69.47,82.399,70,83.68,70,85c0,1.319-0.53,2.609-1.46,3.54  C67.6,89.47,66.31,90,65,90C63.68,90,62.399,89.47,61.46,88.54z M91.46,88.54C90.53,87.609,90,86.319,90,85  c0-1.32,0.53-2.601,1.46-3.53C92.39,80.529,93.68,80,95,80c1.319,0,2.6,0.529,3.54,1.47c0.93,0.93,1.46,2.21,1.46,3.53  c0,1.319-0.53,2.609-1.46,3.54C97.6,89.47,96.31,90,95,90C93.68,90,92.399,89.47,91.46,88.54z M67.207,101.664  c0.556,0.363,13.067,8.345,25.574,0.008c1.838-1.229,4.321-0.729,5.547,1.109c1.226,1.838,0.729,4.321-1.109,5.547  c-5.792,3.861-11.55,5.149-16.651,5.149c-9.892,0-17.322-4.84-17.786-5.149c-1.838-1.226-2.335-3.709-1.109-5.547  C62.894,100.947,65.37,100.448,67.207,101.664z M65,26h30c2.209,0,4,1.791,4,4v5c0,2.209-1.791,4-4,4s-4-1.791-4-4v-1H69v1  c0,2.209-1.791,4-4,4s-4-1.791-4-4v-5C61,27.791,62.791,26,65,26z" id="lego"/></svg>