<?xml version="1.0" ?><!DOCTYPE svg  PUBLIC '-//W3C//DTD SVG 1.0//EN'  'http://www.w3.org/TR/2001/REC-SVG-20010904/DTD/svg10.dtd'><svg height="160px" id="icon" style="enable-background:new 0 0 160 160;" version="1.0" viewBox="0 0 160 160" width="160px" xml:space="preserve" xmlns="http://www.w3.org/2000/svg" xmlns:xlink="http://www.w3.org/1999/xlink"><path fill="#ffb500" d="M99,45c0-7.72-6.28-14-14-14s-14,6.28-14,14s6.28,14,14,14S99,52.72,99,45z M85,51c-3.309,0-6-2.691-6-6  s2.691-6,6-6s6,2.691,6,6S88.309,51,85,51z M141,35v-6h-2v11c0,2.209-1.791,4-4,4s-4-1.791-4-4V29h-2.721l-4.357,21.784  c-0.155,0.774-0.536,1.486-1.094,2.044l-14.333,14.333l-9.365,28.096l9.792,48.959c0.433,2.166-0.972,4.273-3.138,4.706  c-0.265,0.054-0.529,0.08-0.789,0.08c-1.868,0-3.538-1.316-3.918-3.218l-10-50c-0.137-0.683-0.092-1.389,0.127-2.049l10-30  c0.197-0.59,0.527-1.125,0.966-1.563l14.144-14.144L120.121,29H85H49.879l3.806,19.028l14.144,14.144  c0.439,0.438,0.77,0.974,0.966,1.563l10,30c0.22,0.66,0.264,1.366,0.127,2.049l-10,50c-0.38,1.901-2.05,3.218-3.918,3.218  c-0.26,0-0.524-0.026-0.789-0.08c-2.166-0.433-3.571-2.54-3.138-4.706l9.792-48.959l-9.365-28.096L47.171,52.828  c-0.558-0.558-0.939-1.27-1.094-2.044L41.721,29H39v11c0,2.209-1.791,4-4,4s-4-1.791-4-4V29h-2v6c0,2.209-1.791,4-4,4s-4-1.791-4-4  V15c0-2.209,1.791-4,4-4s4,1.791,4,4v6h2V10c0-2.209,1.791-4,4-4s4,1.791,4,4v11h6c0.014,0,0.027,0,0.041,0H85h39.958  c0.014,0,0.027,0,0.041,0H131V10c0-2.209,1.791-4,4-4s4,1.791,4,4v11h2v-6c0-2.209,1.791-4,4-4s4,1.791,4,4v20c0,2.209-1.791,4-4,4  S141,37.209,141,35z" id="strongman"/></svg>