<?xml version="1.0" ?><!DOCTYPE svg  PUBLIC '-//W3C//DTD SVG 1.0//EN'  'http://www.w3.org/TR/2001/REC-SVG-20010904/DTD/svg10.dtd'><svg height="160px" style="enable-background:new 0 0 160 160;" version="1.0" viewBox="0 0 160 160" width="160px" xml:space="preserve" xmlns="http://www.w3.org/2000/svg" xmlns:xlink="http://www.w3.org/1999/xlink"><g id="icon"/><g id="Warstwa_2"><path fill="#ffb500" d="M83.172,57.563C82.415,56.578,81.243,56,80,56c-1.243,0-2.415,0.578-3.172,1.563l-65.301,85   c-0.928,1.208-1.089,2.838-0.416,4.205S13.176,149,14.699,149h130.602c0.007,0,0.015,0,0.02,0c2.21,0,4-1.791,4-4   c0-1.045-0.4-1.997-1.057-2.709L83.172,57.563z M22.816,141L80,66.566L137.184,141H22.816z M120,59c10.477,0,19-8.523,19-19   s-8.523-19-19-19s-19,8.523-19,19S109.523,59,120,59z M120,29c6.065,0,11,4.935,11,11s-4.935,11-11,11s-11-4.935-11-11   S113.935,29,120,29z M49.984,41.646L27.748,71H50c2.209,0,4,1.791,4,4s-1.791,4-4,4H19.699c-1.519,0-2.906-0.86-3.582-2.22   s-0.523-2.985,0.394-4.196l30.301-40C47.568,31.586,48.748,31,50,31c0.003,0,0.006,0,0.01,0c1.255,0.003,2.437,0.595,3.19,1.6   l15.002,20.002c1.325,1.767,0.967,4.274-0.8,5.6c-1.766,1.325-4.274,0.968-5.6-0.8L49.984,41.646z" id="egypt"/></g></svg>