<?xml version="1.0" ?><!DOCTYPE svg  PUBLIC '-//W3C//DTD SVG 1.0//EN'  'http://www.w3.org/TR/2001/REC-SVG-20010904/DTD/svg10.dtd'><svg height="160px" id="icon" style="enable-background:new 0 0 160 160;" version="1.0" viewBox="0 0 160 160" width="160px" xml:space="preserve" xmlns="http://www.w3.org/2000/svg" xmlns:xlink="http://www.w3.org/1999/xlink"><path fill="#ffb500" d="M70,134c-2.209,0-4-1.791-4-4s1.791-4,4-4h5c2.209,0,4,1.791,4,4s-1.791,4-4,4H70z M138.018,83.583  c-2.041-0.847-4.381,0.122-5.228,2.163c-0.846,2.041,0.122,4.381,2.163,5.227c9.748,4.043,16.048,13.474,16.049,24.028  c-0.001,14.336-11.665,26-26.001,26C110.664,141,99,129.336,99,114.999c-0.001-3.447,0.662-6.795,1.972-9.951  c0.846-2.041-0.122-4.381-2.163-5.227c-2.041-0.847-4.381,0.122-5.228,2.163C91.867,106.117,90.999,110.497,91,115  c0,18.748,15.253,34,34.001,34c18.747,0,34-15.252,34.001-34C159.001,101.2,150.764,88.868,138.018,83.583z M1,125  c0-13.234,10.767-24,24-24c2.085,0,4.131,0.269,6.116,0.792c2.128-3.732,4.622-7.685,7.521-11.652  c13.591-18.599,30.578-29.888,49.633-33.147l-5.497-3.665c-1.838-1.225-2.335-3.709-1.109-5.547c1.225-1.838,3.71-2.334,5.547-1.109  l15,10c0.003,0.002,0.005,0.004,0.008,0.006c0.019,0.013,0.035,0.029,0.054,0.042c0.172,0.119,0.331,0.253,0.48,0.396  c0.048,0.045,0.093,0.093,0.138,0.141c0.125,0.131,0.239,0.271,0.345,0.417c0.031,0.043,0.065,0.084,0.096,0.129  c0.113,0.172,0.217,0.352,0.303,0.541l25,55c0.914,2.012,0.024,4.383-1.986,5.297c-0.537,0.244-1.1,0.359-1.653,0.359  c-1.52,0-2.974-0.872-3.644-2.346l-12.565-27.644c-60.853,0.485-80.027,37.402-80.215,37.777c-0.095,0.189-0.204,0.365-0.322,0.532  c-0.03,0.042-0.066,0.08-0.098,0.121c-0.094,0.122-0.19,0.239-0.296,0.347c-0.04,0.041-0.084,0.078-0.126,0.117  c-0.105,0.099-0.213,0.194-0.328,0.28c-0.048,0.037-0.098,0.07-0.147,0.104c-0.116,0.079-0.233,0.152-0.356,0.218  c-0.055,0.03-0.11,0.059-0.167,0.086c-0.124,0.06-0.251,0.112-0.381,0.159c-0.059,0.021-0.116,0.043-0.176,0.062  c-0.142,0.044-0.285,0.077-0.431,0.105c-0.05,0.009-0.098,0.023-0.148,0.031c-0.199,0.031-0.401,0.05-0.604,0.05  c-0.015,0-0.028-0.005-0.043-0.005c-0.244-0.003-0.49-0.035-0.736-0.085c-0.077-0.015-0.152-0.032-0.229-0.052  c-0.056-0.015-0.112-0.021-0.168-0.039c-0.131-0.041-0.246-0.104-0.37-0.156c-0.079-0.034-0.162-0.048-0.24-0.087  c-0.025-0.012-0.045-0.031-0.069-0.043c-0.121-0.063-0.229-0.142-0.342-0.217c-0.109-0.072-0.224-0.14-0.324-0.222  c-0.097-0.079-0.18-0.17-0.269-0.258c-0.098-0.096-0.199-0.187-0.285-0.291c-0.076-0.092-0.137-0.193-0.203-0.291  c-0.078-0.114-0.161-0.223-0.227-0.343c-0.06-0.11-0.103-0.228-0.152-0.343c-0.051-0.118-0.107-0.233-0.146-0.356  c-0.04-0.125-0.061-0.256-0.089-0.386c-0.026-0.121-0.059-0.24-0.073-0.364c-0.015-0.125-0.01-0.253-0.013-0.381  c-0.003-0.134-0.012-0.267-0.001-0.401c0.01-0.116,0.037-0.231,0.057-0.347c0.025-0.147,0.047-0.295,0.089-0.44  c0.007-0.023,0.007-0.047,0.014-0.07c0.126-0.411,1.993-6.385,6.042-14.654C26.482,109.069,25.747,109,25,109  c-8.822,0-16,7.178-16,16s7.178,16,16,16s16-7.178,16-16c0-2.209,1.791-4,4-4s4,1.791,4,4c0,13.234-10.767,24-24,24S1,138.234,1,125  z M40.475,101.872c13-9.972,33.614-19.86,64.705-20.793l-7.738-17.024C69.309,65.188,51.036,84.939,40.475,101.872z" id="tricykle"/></svg>