<?xml version="1.0" ?><!DOCTYPE svg  PUBLIC '-//W3C//DTD SVG 1.0//EN'  'http://www.w3.org/TR/2001/REC-SVG-20010904/DTD/svg10.dtd'><svg height="160px" id="icon" style="enable-background:new 0 0 160 160;" version="1.0" viewBox="0 0 160 160" width="160px" xml:space="preserve" xmlns="http://www.w3.org/2000/svg" xmlns:xlink="http://www.w3.org/1999/xlink"><path fill="#ffb500" d="M73.326,136.382c-0.416,0.192-0.812,0.446-1.154,0.79c-1.563,1.563-1.563,4.095,0,5.657L76,146.657V155  c0,2.209,1.791,4,4,4s4-1.791,4-4v-8.343l3.828-3.828c1.563-1.563,1.563-4.095,0-5.657c-0.343-0.343-0.738-0.597-1.154-0.79  l36.799-64.397c1.097-1.918,0.43-4.361-1.488-5.458c-1.916-1.095-4.361-0.429-5.457,1.489L89.479,115.35l19.287-54.004  c0.743-2.08-0.341-4.369-2.421-5.112c-2.084-0.743-4.37,0.342-5.112,2.422L84,106.908V55c0-2.209-1.791-4-4-4s-4,1.791-4,4v51.908  L58.767,58.655c-0.742-2.081-3.028-3.165-5.112-2.422c-2.08,0.743-3.164,3.032-2.421,5.112l19.287,54.004L43.473,68.016  c-1.096-1.918-3.538-2.583-5.457-1.489c-1.918,1.096-2.585,3.54-1.488,5.458L73.326,136.382z M76.46,126.47  c0.93-0.94,2.22-1.47,3.54-1.47c1.319,0,2.6,0.53,3.54,1.47c0.93,0.92,1.46,2.21,1.46,3.53c0,1.32-0.53,2.61-1.46,3.54  C82.6,134.47,81.319,135,80,135c-1.32,0-2.61-0.53-3.54-1.46C75.53,132.61,75,131.32,75,130C75,128.68,75.53,127.39,76.46,126.47z   M31,50C31,22.981,52.981,1,80,1s49,21.981,49,49c0,2.209-1.791,4-4,4s-4-1.791-4-4c0-22.607-18.393-41-41-41S39,27.393,39,50  c0,2.209-1.791,4-4,4S31,52.209,31,50z" id="parachute"/></svg>