<?xml version="1.0" ?><!DOCTYPE svg  PUBLIC '-//W3C//DTD SVG 1.0//EN'  'http://www.w3.org/TR/2001/REC-SVG-20010904/DTD/svg10.dtd'><svg height="160px" id="icon" style="enable-background:new 0 0 160 160;" version="1.0" viewBox="0 0 160 160" width="160px" xml:space="preserve" xmlns="http://www.w3.org/2000/svg" xmlns:xlink="http://www.w3.org/1999/xlink"><path fill="#ffb500" d="M91,35c0,7.72,6.28,14,14,14s14-6.28,14-14s-6.28-14-14-14S91,27.28,91,35z M111,35c0,3.309-2.691,6-6,6  s-6-2.691-6-6s2.691-6,6-6S111,31.691,111,35z M67.63,51.713l10.617-10.617L53.211,28.578c-1.976-0.988-2.776-3.391-1.789-5.367  c0.988-1.975,3.391-2.775,5.367-1.789l30,15c1.149,0.575,1.953,1.668,2.159,2.938s-0.211,2.56-1.12,3.469l-15,15  c-0.304,0.305-0.655,0.558-1.04,0.75l-40,20c-0.574,0.287-1.185,0.424-1.786,0.424c-1.467,0-2.88-0.812-3.581-2.213  c-0.988-1.977-0.187-4.379,1.789-5.367L67.63,51.713z M35,149h100c7.72,0,14-6.28,14-14c0-6.395-4.309-11.801-10.176-13.469  C137.082,104.406,122.577,91,105,91c-2.898,0-5.754,0.364-8.531,1.086c-1.576-3.84-3.87-7.381-6.803-10.471l-0.002-0.002  c-0.208-0.22-0.411-0.441-0.625-0.656c-0.085-0.085-0.184-0.147-0.273-0.224c-3.274-3.2-7.164-5.741-11.458-7.415L105,59.472  l18.211,9.106c1.975,0.986,4.378,0.187,5.367-1.789c0.987-1.977,0.187-4.379-1.789-5.367l-20-10c-1.127-0.563-2.451-0.563-3.578,0  L64.008,71.023C46.959,71.516,33.014,84.609,31.2,101.301C19.766,103.128,11,113.06,11,125C11,138.233,21.766,149,35,149z M35,109  c2.209,0,4-1.791,4-4c0-14.334,11.659-25.995,25.992-26c0.004,0,0.007,0.002,0.011,0.002c0.002,0,0.003-0.002,0.005-0.002  c7.295,0.003,14.049,3.068,18.845,8.109c0.02,0.02,0.039,0.041,0.058,0.061c2.867,3.033,5.027,6.773,6.175,10.991  c0.002,0.007,0.006,0.015,0.009,0.021C90.688,100.379,91,102.664,91,105c0,6.942-2.703,13.471-7.612,18.381  c-1.562,1.563-1.562,4.096,0.001,5.657c0.781,0.78,1.805,1.171,2.828,1.171s2.048-0.391,2.829-1.172  C95.465,122.615,99,114.079,99,105c0-1.757-0.136-3.492-0.396-5.197C100.688,99.273,102.827,99,105,99  c13.202,0,24.129,9.893,25.777,22.653c-2.12,0.668-4.065,1.835-5.682,3.453c-1.562,1.563-1.56,4.096,0.003,5.657  c0.781,0.78,1.804,1.17,2.827,1.17c1.024,0,2.049-0.391,2.83-1.173c1.133-1.134,2.64-1.759,4.242-1.759  c0.005,0,0.009-0.002,0.014-0.002c3.303,0.007,5.988,2.695,5.988,6c0,3.309-2.691,6-6,6H35c-8.822,0-16-7.178-16-16  S26.178,109,35,109z" id="flying"/></svg>