<?xml version="1.0" ?><!DOCTYPE svg  PUBLIC '-//W3C//DTD SVG 1.0//EN'  'http://www.w3.org/TR/2001/REC-SVG-20010904/DTD/svg10.dtd'><svg height="160px" id="icon" style="enable-background:new 0 0 160 160;" version="1.0" viewBox="0 0 160 160" width="160px" xml:space="preserve" xmlns="http://www.w3.org/2000/svg" xmlns:xlink="http://www.w3.org/1999/xlink"><path fill="#ffb500" d="M79,125v22c0,2.209-1.791,4-4,4s-4-1.791-4-4v-22c0-2.209,1.791-4,4-4S79,122.791,79,125z M77.906,22.293  L85,12.156l7.094,10.137C92.872,23.405,94.113,24,95.375,24c0.792,0,1.592-0.235,2.289-0.723c1.811-1.267,2.251-3.761,0.984-5.571  L88.277,2.886C87.528,1.817,86.306,1.18,85,1.18s-2.528,0.637-3.277,1.707l-10.371,14.82c-1.267,1.81-0.826,4.304,0.984,5.571  C74.146,24.543,76.64,24.104,77.906,22.293z M111,147c0,2.209,1.791,4,4,4s4-1.791,4-4v-33h1c2.209,0,4-1.791,4-4V50  c0-2.209-1.791-4-4-4h-7.859l-8.813-13.219c-0.002-0.002-0.004-0.004-0.005-0.006c-0.146-0.219-0.313-0.423-0.5-0.608  c-0.094-0.094-0.202-0.167-0.304-0.25c-0.099-0.081-0.19-0.17-0.297-0.241c-0.117-0.078-0.244-0.135-0.368-0.2  c-0.106-0.056-0.206-0.121-0.318-0.167c-0.146-0.061-0.3-0.097-0.451-0.14c-0.098-0.028-0.19-0.067-0.291-0.088  c-0.259-0.053-0.523-0.079-0.789-0.08c-0.001,0-0.003,0-0.005,0H70c-0.002,0-0.004,0.001-0.007,0.001  c-0.265,0-0.529,0.027-0.788,0.079c-0.094,0.019-0.181,0.057-0.272,0.082c-0.158,0.044-0.318,0.083-0.471,0.146  c-0.104,0.043-0.197,0.104-0.296,0.156c-0.131,0.068-0.266,0.129-0.39,0.212c-0.098,0.065-0.183,0.148-0.275,0.223  c-0.109,0.088-0.224,0.168-0.325,0.269c-0.186,0.185-0.353,0.389-0.499,0.607c-0.001,0.002-0.003,0.004-0.005,0.006L57.859,46H50  c-2.209,0-4,1.791-4,4v60c0,2.209,1.791,4,4,4h1v33c0,2.209,1.791,4,4,4s4-1.791,4-4v-33h16c2.209,0,4-1.791,4-4s-1.791-4-4-4H54V54  h5.989c0.002,0,0.004,0,0.007,0c0.003,0,0.005,0,0.008,0H75c2.209,0,4-1.791,4-4s-1.791-4-4-4h-7.526l4.667-7h25.719l4.667,7H95  c-2.209,0-4,1.791-4,4s1.791,4,4,4h14.996c0.002,0,0.005,0,0.008,0c0.002,0,0.005,0,0.007,0H116v52H95c-2.209,0-4,1.791-4,4  s1.791,4,4,4h16V147z M85,104c-13.234,0-24-10.766-24-24s10.766-24,24-24c13.233,0,24,10.766,24,24S98.233,104,85,104z M101,80  c0-2.962-0.823-5.729-2.232-8.111L87.828,82.829C87.048,83.609,86.023,84,85,84s-2.048-0.391-2.828-1.171  c-1.563-1.563-1.563-4.095,0-5.657l10.939-10.939C90.729,64.824,87.962,64,85,64c-8.822,0-16,7.178-16,16s7.178,16,16,16  S101,88.822,101,80z M95,151c2.209,0,4-1.791,4-4v-22c0-2.209-1.791-4-4-4s-4,1.791-4,4v22C91,149.209,92.791,151,95,151z" id="london"/></svg>