<?xml version="1.0" ?><!DOCTYPE svg  PUBLIC '-//W3C//DTD SVG 1.0//EN'  'http://www.w3.org/TR/2001/REC-SVG-20010904/DTD/svg10.dtd'><svg height="160px" id="icon" style="enable-background:new 0 0 160 160;" version="1.0" viewBox="0 0 160 160" width="160px" xml:space="preserve" xmlns="http://www.w3.org/2000/svg" xmlns:xlink="http://www.w3.org/1999/xlink"><path fill="#ffb500" d="M65.441,101.024c2.196,0.244,3.778,2.222,3.534,4.417l-4.667,42c-0.228,2.045-1.96,3.559-3.971,3.559  c-0.147,0-0.297-0.008-0.446-0.025c-2.196-0.244-3.778-2.222-3.534-4.417l4.667-42C61.27,102.363,63.258,100.783,65.441,101.024z   M115,101h5.121l-8.806-44.028L105,50.657l-6.459,6.458l-14.71,49.034C83.323,107.841,81.767,109,80,109s-3.323-1.159-3.831-2.851  l-14.71-49.034L55,50.657l-6.315,6.315L39.879,101H45c2.038,0,3.75,1.533,3.976,3.558l4.667,42c0.244,2.196-1.338,4.173-3.534,4.417  c-2.188,0.245-4.173-1.338-4.417-3.534L41.42,109H35c-1.198,0-2.334-0.537-3.094-1.464s-1.063-2.146-0.828-3.321l10-50  c0.154-0.774,0.535-1.485,1.094-2.044l5.354-5.354C43.611,44.333,41,39.97,41,35c0-7.72,6.28-14,14-14s14,6.28,14,14  c0,4.97-2.611,9.333-6.525,11.817l5.354,5.354c0.469,0.468,0.813,1.045,1.003,1.679L80,91.08l11.169-37.229  c0.19-0.634,0.534-1.211,1.003-1.679l5.354-5.354C93.611,44.333,91,39.97,91,35c0-7.72,6.28-14,14-14s14,6.28,14,14  c0,4.97-2.611,9.333-6.525,11.817l5.354,5.354c0.559,0.559,0.939,1.27,1.094,2.044l10,50c0.235,1.175-0.068,2.394-0.828,3.321  S126.198,109,125,109h-6.42l-4.271,38.442c-0.228,2.045-1.959,3.559-3.971,3.559c-0.147,0-0.297-0.008-0.446-0.025  c-2.196-0.244-3.778-2.222-3.534-4.417l4.667-42C111.25,102.533,112.962,101,115,101z M61,35c0-3.309-2.691-6-6-6s-6,2.691-6,6  s2.691,6,6,6S61,38.309,61,35z M111,35c0-3.309-2.691-6-6-6s-6,2.691-6,6s2.691,6,6,6S111,38.309,111,35z M94.559,101.024  c-2.196,0.244-3.778,2.222-3.534,4.417l4.667,42c0.228,2.045,1.959,3.559,3.971,3.559c0.147,0,0.297-0.008,0.446-0.025  c2.196-0.244,3.778-2.222,3.534-4.417l-4.667-42C98.731,102.363,96.744,100.78,94.559,101.024z" id="couple_1_"/></svg>