<?xml version="1.0" ?><!DOCTYPE svg  PUBLIC '-//W3C//DTD SVG 1.0//EN'  'http://www.w3.org/TR/2001/REC-SVG-20010904/DTD/svg10.dtd'><svg height="160px" id="icon" style="enable-background:new 0 0 160 160;" version="1.0" viewBox="0 0 160 160" width="160px" xml:space="preserve" xmlns="http://www.w3.org/2000/svg" xmlns:xlink="http://www.w3.org/1999/xlink"><path fill="#ffb500" d="M120,41H40c-2.209,0-4,1.791-4,4v25c0,2.209,1.791,4,4,4s4-1.791,4-4V49h32v17.59  C70.225,68.315,66,73.671,66,80s4.225,11.685,10,13.41V111H44V90c0-2.209-1.791-4-4-4s-4,1.791-4,4v25c0,2.209,1.791,4,4,4h80  c2.209,0,4-1.791,4-4V90c0-2.209-1.791-4-4-4s-4,1.791-4,4v21H84V93.41c5.775-1.726,10-7.081,10-13.41s-4.225-11.685-10-13.41V49h32  v21c0,2.209,1.791,4,4,4s4-1.791,4-4V45C124,42.791,122.209,41,120,41z M86,80c0,3.309-2.691,6-6,6s-6-2.691-6-6s2.691-6,6-6  S86,76.691,86,80z M154,110V50c0-21.505-17.495-39-39-39H45C23.495,11,6,28.495,6,50v60c0,21.505,17.495,39,39,39h70  C136.505,149,154,131.505,154,110z M115,141H45c-17.093,0-31-13.907-31-31V50c0-17.093,13.907-31,31-31h70c17.093,0,31,13.907,31,31  v60C146,127.093,132.093,141,115,141z" id="stadium"/></svg>