<?xml version="1.0" ?><!DOCTYPE svg  PUBLIC '-//W3C//DTD SVG 1.0//EN'  'http://www.w3.org/TR/2001/REC-SVG-20010904/DTD/svg10.dtd'><svg height="160px" id="icon" style="enable-background:new 0 0 160 160;" version="1.0" viewBox="0 0 160 160" width="160px" xml:space="preserve" xmlns="http://www.w3.org/2000/svg" xmlns:xlink="http://www.w3.org/1999/xlink"><path fill="#ffb500" d="M73.26,118.578c-3.628-1.814-6.773-0.609-8.508,1.125c-1.733,1.734-2.939,4.88-1.125,8.508  c0.266,0.533,0.41,1.119,0.421,1.715c0.024,1.326-2.706,15.668-12.56,22.473c-2.725,1.882-6.667,3.632-11.899,3.632  c-3.19,0-6.859-0.649-11.025-2.316c-0.104-0.041-0.204-0.087-0.304-0.136c-10.725-5.362-16.427-11.064-21.789-21.789  c-0.049-0.1-0.095-0.2-0.136-0.304c-4.4-11.001-1.714-18.538,1.314-22.924c6.801-9.85,21.135-12.539,22.473-12.561  c0.597,0.011,1.183,0.154,1.716,0.421c3.628,1.815,6.773,0.609,8.508-1.125c1.733-1.734,2.939-4.88,1.125-8.508  c-0.642-1.284-0.546-2.813,0.25-4.008C42.178,82.096,53.103,66,70.049,66c2.209,0,4,1.791,4,4s-1.791,4-4,4  c-9.914,0-17.57,8.075-20.443,11.606c1.758,5.479,0.454,11.29-3.604,15.347c-4.321,4.32-10.633,5.521-16.413,3.22  c-3.077,0.71-12.229,3.323-15.968,9.908c-2.204,3.881-2.178,8.555,0.081,14.281c1.513,3.01,3.014,5.498,4.672,7.655l13.847-13.846  c1.561-1.563,4.096-1.563,5.656,0c1.563,1.562,1.563,4.095,0,5.656L24.03,141.674c2.158,1.658,4.646,3.16,7.656,4.673  c5.728,2.259,10.399,2.285,14.281,0.081c6.584-3.737,9.197-12.891,9.908-15.968c-2.3-5.78-1.103-12.092,3.22-16.413  c4.058-4.058,9.866-5.362,15.347-3.603c3.526-2.87,11.606-10.527,11.606-20.444c0-2.209,1.791-4,4-4s4,1.791,4,4  c0,16.946-16.096,27.871-16.781,28.328C76.072,119.126,74.543,119.219,73.26,118.578z M132.221,22.172l-70,70  c-1.563,1.562-1.563,4.095,0,5.656C63.001,98.609,64.025,99,65.049,99s2.048-0.391,2.828-1.172l70-70  c1.563-1.562,1.563-4.095,0-5.656C136.316,20.609,133.781,20.609,132.221,22.172z M92.877,152.828l60-60  c1.563-1.562,1.563-4.095,0-5.656c-1.561-1.563-4.096-1.563-5.656,0l-60,60c-1.563,1.562-1.563,4.095,0,5.656  c0.78,0.781,1.805,1.172,2.828,1.172S92.097,153.609,92.877,152.828z" id="violin"/></svg>