<?xml version="1.0" ?><!DOCTYPE svg  PUBLIC '-//W3C//DTD SVG 1.0//EN'  'http://www.w3.org/TR/2001/REC-SVG-20010904/DTD/svg10.dtd'><svg height="160px" id="icon" style="enable-background:new 0 0 160 160;" version="1.0" viewBox="0 0 160 160" width="160px" xml:space="preserve" xmlns="http://www.w3.org/2000/svg" xmlns:xlink="http://www.w3.org/1999/xlink"><path fill="#ffb500" d="M20.999,105C21.001,83.496,38.497,66,60,65.999c5.172,0.001,10.195,0.998,14.93,2.963  c5.388,2.233,9.607,4.919,12.898,8.21l5,5c1.563,1.562,1.563,4.095,0,5.656c-1.561,1.563-4.096,1.563-5.656,0l-5-5  c-2.535-2.534-5.906-4.652-10.306-6.477c-3.76-1.561-7.752-2.352-11.867-2.353C42.908,74,29.001,87.907,28.999,105  c0,2.209-1.791,4-4,4h0C22.79,109,20.999,107.209,20.999,105z M128.99,120.088l13.575-6.582c0.873-0.424,1.563-1.15,1.94-2.045  l4.18-9.906c0.378-0.896,0.417-1.897,0.109-2.819l-5-15c-0.281-0.844-0.836-1.57-1.576-2.063l-14.116-9.411l-14.524-29.05  c-0.388-0.773-1.016-1.401-1.789-1.789l-30-15c-1.448-0.723-3.188-0.503-4.41,0.557c-1.223,1.06-1.686,2.752-1.174,4.286l10,30  c0.196,0.59,0.527,1.125,0.967,1.563l20,20c1.561,1.563,4.096,1.563,5.656,0c1.563-1.562,1.563-4.095,0-5.656L93.496,57.839  l-6.647-19.942l20.17,10.085l14.403,28.808c0.312,0.622,0.78,1.153,1.359,1.539l13.858,9.239l4.089,12.267l-3.008,7.13  l-19.466,9.437c-1.987,0.964-2.818,3.356-1.854,5.345c0.691,1.426,2.118,2.256,3.603,2.256c0.04,0,0.081-0.013,0.121-0.014  L116.722,141h-8.839l-4.088-12.265c-0.698-2.097-2.97-3.225-5.06-2.53c-2.096,0.699-3.229,2.964-2.53,5.06L99.45,141H35  c-6.065,0-11-4.935-11-11s4.935-11,11-11s11,4.935,11,11c0,2.209,1.791,4,4,4s4-1.791,4-4c0-10.477-8.523-19-19-19s-19,8.523-19,19  s8.523,19,19,19h69.986c0.005,0,0.009,0.001,0.013,0.001s0.008-0.001,0.013-0.001h14.982c0.003,0,0.007,0.001,0.01,0.001  c0.004,0,0.008-0.001,0.011-0.001H125c2.209,0,4-1.791,4-4s-1.791-4-4-4h-0.121l4.043-20.216  C128.969,120.551,128.984,120.318,128.99,120.088z" id="rabbit"/></svg>