<?xml version="1.0" ?><!DOCTYPE svg  PUBLIC '-//W3C//DTD SVG 1.0//EN'  'http://www.w3.org/TR/2001/REC-SVG-20010904/DTD/svg10.dtd'><svg height="160px" id="icon" style="enable-background:new 0 0 160 160;" version="1.0" viewBox="0 0 160 160" width="160px" xml:space="preserve" xmlns="http://www.w3.org/2000/svg" xmlns:xlink="http://www.w3.org/1999/xlink"><path fill="#ffb500" d="M155,141h-6v-16c0-2.209-1.791-4-4-4h-6v-16c0-2.209-1.791-4-4-4h-6V85c0-2.209-1.791-4-4-4h-6  V65c0-2.209-1.791-4-4-4h-6V45c0-2.209-1.791-4-4-4h-6V25c0-2.209-1.791-4-4-4H65c-2.209,0-4,1.791-4,4v16h-6c-2.209,0-4,1.791-4,4  v16h-6c-2.209,0-4,1.791-4,4v16h-6c-2.209,0-4,1.791-4,4v16h-6c-2.209,0-4,1.791-4,4v16h-6c-2.209,0-4,1.791-4,4v16H5  c-2.209,0-4,1.791-4,4s1.791,4,4,4h65c2.209,0,4-1.791,4-4s-1.791-4-4-4H19v-12h51c2.209,0,4-1.791,4-4s-1.791-4-4-4H29v-12h41  c2.209,0,4-1.791,4-4s-1.791-4-4-4H39V89h31c2.209,0,4-1.791,4-4s-1.791-4-4-4H49V69h21c2.209,0,4-1.791,4-4s-1.791-4-4-4H59V49h42  v12H90c-2.209,0-4,1.791-4,4s1.791,4,4,4h21v12H90c-2.209,0-4,1.791-4,4s1.791,4,4,4h31v12H90c-2.209,0-4,1.791-4,4s1.791,4,4,4h41  v12H90c-2.209,0-4,1.791-4,4s1.791,4,4,4h51v12H90c-2.209,0-4,1.791-4,4s1.791,4,4,4h65c2.209,0,4-1.791,4-4S157.209,141,155,141z   M69,29h22v12h-7v-1c0-2.209-1.791-4-4-4s-4,1.791-4,4v1h-7V29z" id="mesoamerican_pyramid"/></svg>