<?xml version="1.0" ?><!DOCTYPE svg  PUBLIC '-//W3C//DTD SVG 1.0//EN'  'http://www.w3.org/TR/2001/REC-SVG-20010904/DTD/svg10.dtd'><svg height="160px" id="icon" style="enable-background:new 0 0 160 160;" version="1.0" viewBox="0 0 160 160" width="160px" xml:space="preserve" xmlns="http://www.w3.org/2000/svg" xmlns:xlink="http://www.w3.org/1999/xlink"><path fill="#ffb500" d="M18.515,126.286l25-10c0.953-0.381,2.018-0.381,2.971,0l25,10c2.052,0.82,3.049,3.148,2.229,5.199  c-0.626,1.564-2.128,2.516-3.715,2.516c-0.495,0-0.997-0.092-1.484-0.287L45,124.309l-23.515,9.405  c-2.048,0.821-4.378-0.176-5.199-2.229C15.466,129.435,16.463,127.106,18.515,126.286z M74,145c0-2.209-1.791-4-4-4H20  c-2.209,0-4,1.791-4,4s1.791,4,4,4h50C72.209,149,74,147.209,74,145z M86.286,131.485c0.821,2.053,3.149,3.05,5.199,2.229  L115,124.309l23.515,9.405c0.487,0.195,0.989,0.287,1.484,0.287c1.587,0,3.089-0.951,3.715-2.516  c0.82-2.051-0.177-4.379-2.229-5.199l-25-10c-0.953-0.381-2.018-0.381-2.971,0l-25,10C86.463,127.106,85.466,129.435,86.286,131.485  z M144,145c0-2.209-1.791-4-4-4H90c-2.209,0-4,1.791-4,4s1.791,4,4,4h50C142.209,149,144,147.209,144,145z M45,36  c-5.075,0-9.847,1.977-13.435,5.564C27.977,45.153,26,49.925,26,55s1.977,9.847,5.565,13.436c1.563,1.561,4.095,1.562,5.657-0.001  c1.562-1.563,1.562-4.095-0.001-5.657C35.144,60.7,34,57.938,34,55s1.144-5.7,3.223-7.778C39.3,45.144,42.062,44,45,44  s5.7,1.144,7.778,3.223C54.856,49.3,56,52.062,56,55s-1.144,5.7-3.222,7.777c-1.563,1.563-1.563,4.095-0.001,5.657  c0.781,0.781,1.806,1.172,2.829,1.172s2.047-0.391,2.828-1.171C62.023,64.847,64,60.075,64,55s-1.977-9.847-5.564-13.435  C54.847,37.977,50.075,36,45,36z M55,76c-2.209,0-4,1.791-4,4c0,20.97,10.236,36.565,10.672,37.219  c0.771,1.155,2.036,1.779,3.328,1.779c0.76,0,1.529-0.217,2.211-0.669c1.838-1.221,2.339-3.702,1.121-5.542  C68.239,112.646,59,98.466,59,80C59,77.791,57.209,76,55,76z M22.781,118.328c0.682,0.455,1.452,0.672,2.215,0.672  c1.293,0,2.562-0.625,3.332-1.781C28.764,116.565,39,100.97,39,80c0-2.209-1.791-4-4-4s-4,1.791-4,4  c0,18.466-9.239,32.646-9.328,32.781C20.446,114.619,20.943,117.103,22.781,118.328z M89.03,118.881  c2.14,0.533,4.314-0.767,4.851-2.911l5-20c0.159-0.637,0.159-1.303,0-1.939l-4.642-18.564l13.817-27.635L126,37.064V45  c0,0.725,0.197,1.437,0.57,2.058l13.87,23.117l-2.229,4.459l-16.422-8.212c-1.589-0.795-3.516-0.445-4.724,0.86  c-1.209,1.305-1.41,3.251-0.495,4.775l14.693,24.49l4.855,19.422c0.455,1.818,2.086,3.031,3.878,3.031  c0.321,0,0.647-0.039,0.973-0.12c2.144-0.536,3.446-2.708,2.911-4.851l-5-20c-0.096-0.383-0.248-0.75-0.451-1.088l-7.933-13.222  l7.714,3.857c1.973,0.986,4.378,0.187,5.367-1.789l5-10c0.611-1.224,0.556-2.675-0.148-3.847L134,43.892V30  c0-1.441-0.775-2.771-2.029-3.48c-1.252-0.711-2.792-0.691-4.028,0.051l-25,15c-0.652,0.391-1.18,0.96-1.521,1.641l-15,30  c-0.427,0.854-0.534,1.833-0.303,2.759L90.877,95l-4.758,19.03C85.584,116.173,86.887,118.345,89.03,118.881z" id="chess"/></svg>