<?xml version="1.0" ?><!DOCTYPE svg  PUBLIC '-//W3C//DTD SVG 1.0//EN'  'http://www.w3.org/TR/2001/REC-SVG-20010904/DTD/svg10.dtd'><svg height="160px" id="icon" style="enable-background:new 0 0 160 160;" version="1.0" viewBox="0 0 160 160" width="160px" xml:space="preserve" xmlns="http://www.w3.org/2000/svg" xmlns:xlink="http://www.w3.org/1999/xlink"><path fill="#ffb500" d="M104,125c0,2.209-1.791,4-4,4H90c-2.209,0-4-1.791-4-4s1.791-4,4-4h10C102.209,121,104,122.791,104,125z   M104,145c0-2.209-1.791-4-4-4H90c-2.209,0-4,1.791-4,4s1.791,4,4,4h10C102.209,149,104,147.209,104,145z M100,101H90  c-2.209,0-4,1.791-4,4s1.791,4,4,4h10c2.209,0,4-1.791,4-4S102.209,101,100,101z M120,79c2.209,0,4-1.791,4-4V50  c0-1.061-0.422-2.078-1.172-2.829l-25-25c-1.561-1.562-4.096-1.562-5.656,0l-25,25C66.422,47.922,66,48.939,66,50v25  c0,2.209,1.791,4,4,4s4-1.791,4-4V51.657l21-21l21,21V75C116,77.209,117.791,79,120,79z M125,94h-10.58l4.418,44.181l5.99,5.99  c1.563,1.563,1.563,4.095,0,5.657c-0.78,0.781-1.805,1.171-2.828,1.171s-2.048-0.391-2.828-1.171l-7-7  c-0.653-0.653-1.061-1.512-1.152-2.431L106.38,94H105c-2.209,0-4-1.791-4-4s1.791-4,4-4h20c6.899,0,12.148-3.732,14.041-9.983  c1.694-5.598,0.416-13.238-6.26-17.689C131.668,57.586,131,56.337,131,55c0-25.364-20.636-46-46-46S39,29.636,39,55  c0,1.337-0.668,2.586-1.781,3.328c-6.676,4.451-7.954,12.091-6.26,17.689C32.852,82.268,38.101,86,45,86h40c2.209,0,4,1.791,4,4  s-1.791,4-4,4h-1.38l-4.64,46.398c-0.092,0.919-0.499,1.777-1.152,2.431l-7,7C70.048,150.609,69.023,151,68,151  s-2.048-0.391-2.828-1.171c-1.563-1.563-1.563-4.095,0-5.657l5.99-5.99L75.58,94H49v7.432c8.561,1.843,15,9.464,15,18.568  c0,10.477-8.523,19-19,19s-19-8.523-19-19c0-9.104,6.439-16.725,15-18.568v-7.744c-8.547-1.334-15.156-6.96-17.697-15.353  c-2.854-9.424,0.248-19.359,7.735-25.386C32.121,24.121,55.911,1,85,1s52.879,23.121,53.962,51.95  c7.487,6.026,10.589,15.961,7.735,25.386C143.772,87.998,135.458,94,125,94z M45,109c-6.065,0-11,4.935-11,11s4.935,11,11,11  s11-4.935,11-11S51.065,109,45,109z" id="treehouse"/></svg>