<?xml version="1.0" ?><!DOCTYPE svg  PUBLIC '-//W3C//DTD SVG 1.0//EN'  'http://www.w3.org/TR/2001/REC-SVG-20010904/DTD/svg10.dtd'><svg height="160px" id="icon" style="enable-background:new 0 0 160 160;" version="1.0" viewBox="0 0 160 160" width="160px" xml:space="preserve" xmlns="http://www.w3.org/2000/svg" xmlns:xlink="http://www.w3.org/1999/xlink"><path fill="#ffb500" d="M11,120c0-21.29,14.579-34,39-34c0.145,0,0.288,0.004,0.432,0.009l0.138,0.005  c2.32-0.003,2.801-0.417,4.129-6.088C56.464,72.39,59.131,61,80,61c2.209,0,4,1.791,4,4s-1.791,4-4,4  c-14.526,0-15.91,5.908-17.512,12.75c-1.144,4.88-2.87,12.255-11.985,12.263L50,94c-19.99,0-31,9.233-31,26  c0,14.337,11.663,26,26,26c16.767,0,26-11.01,26-31l-0.012-0.429c0.007-9.189,7.382-10.916,12.262-12.06  C90.092,100.91,96,99.526,96,85c0-2.209,1.791-4,4-4s4,1.791,4,4c0,20.869-11.39,23.536-18.926,25.302  c-5.671,1.328-6.085,1.809-6.087,4.203l0.004,0.063C78.996,114.711,79,114.854,79,115c0,24.421-12.71,39-34,39  C26.252,154,11,138.748,11,120z M61.46,96.46C60.53,97.399,60,98.68,60,100c0,1.319,0.53,2.6,1.46,3.54  c0.939,0.93,2.22,1.46,3.54,1.46c1.31,0,2.6-0.53,3.53-1.46C69.47,102.6,70,101.31,70,100c0-1.32-0.53-2.601-1.47-3.54  C67.609,95.53,66.319,95,65,95C63.68,95,62.39,95.53,61.46,96.46z M147.781,11.672l-15,10c-0.997,0.665-1.644,1.741-1.762,2.934  c-0.103,1.036,0.224,2.051,0.86,2.857L77.172,82.172c-1.563,1.562-1.563,4.095,0,5.656C77.952,88.609,78.977,89,80,89  s2.048-0.391,2.828-1.172l54.704-54.704C138.237,33.681,139.1,34,140,34c0.131,0,0.263-0.007,0.395-0.02  c1.192-0.118,2.269-0.765,2.934-1.762l10-15c1.058-1.587,0.849-3.699-0.5-5.047C151.48,10.822,149.367,10.614,147.781,11.672z   M37.172,112.172c-1.563,1.562-1.563,4.095,0,5.656l10,10C47.952,128.609,48.977,129,50,129s2.048-0.391,2.828-1.172  c1.563-1.562,1.563-4.095,0-5.656l-10-10C41.268,110.609,38.732,110.609,37.172,112.172z" id="guitar_1_"/></svg>