<?xml version="1.0" ?><!DOCTYPE svg  PUBLIC '-//W3C//DTD SVG 1.0//EN'  'http://www.w3.org/TR/2001/REC-SVG-20010904/DTD/svg10.dtd'><svg height="160px" id="icon" style="enable-background:new 0 0 160 160;" version="1.0" viewBox="0 0 160 160" width="160px" xml:space="preserve" xmlns="http://www.w3.org/2000/svg" xmlns:xlink="http://www.w3.org/1999/xlink"><path fill="#ffb500" d="M80,11c-38.047,0-69,30.953-69,69c0.001,22.471,10.803,42.461,27.48,55.068l-6.475,9.713  c-1.226,1.838-0.729,4.321,1.109,5.547c0.682,0.455,1.452,0.672,2.215,0.672c1.293,0,2.562-0.625,3.332-1.781l6.474-9.711  C55.375,145.529,67.287,149,80,149c12.737,0,24.671-3.482,34.923-9.526l6.789,9.804c0.776,1.121,2.023,1.723,3.292,1.723  c0.785,0,1.579-0.23,2.273-0.712c1.816-1.257,2.269-3.749,1.011-5.565l-6.715-9.697C138.221,122.417,149,102.446,149,80  C149,41.953,118.047,11,80,11z M80,141c-33.635,0-60.999-27.364-61-61c0-33.636,27.364-61,61-61s61,27.364,61,61S113.636,141,80,141  z M132.828,92.828L124.656,101H130c2.209,0,4,1.791,4,4s-1.791,4-4,4h-7.528l-3.894,7.789c-0.701,1.401-2.114,2.212-3.581,2.212  c-0.602,0-1.212-0.136-1.786-0.423c-0.607-0.305-1.088-0.752-1.456-1.27c-3.796,3.234-8.03,5.854-12.599,7.797l2.633,1.316  c1.976,0.988,2.776,3.391,1.789,5.367c-0.701,1.401-2.114,2.212-3.581,2.212c-0.602,0-1.212-0.136-1.786-0.423l-10-5  c-0.123-0.063-0.229-0.145-0.343-0.217c-2.034,0.328-4.093,0.528-6.172,0.599l-3.868,3.868C77.048,133.609,76.023,134,75,134  s-2.048-0.391-2.828-1.172c-1.535-1.535-1.553-4.003-0.07-5.57C65.562,124.252,61,117.655,61,110c0-10.477,8.523-19,19-19  c1.457,0,2.874-0.28,4.211-0.834c1.087-0.451,2.094-1.074,2.99-1.852c1.103-0.956,1.99-2.097,2.64-3.392  c0.991-1.975,3.396-2.771,5.369-1.781c1.975,0.99,2.771,3.395,1.781,5.369c-1.121,2.234-2.651,4.202-4.548,5.847  c-1.547,1.342-3.286,2.418-5.17,3.199C84.96,98.515,82.513,99,80,99c-6.065,0-11,4.935-11,11s4.935,11,11,11  c0.002,0,0.005,0,0.007,0c5.426,0,10.703-1.047,15.688-3.11c4.061-1.684,7.813-4.006,11.152-6.902  c3.72-3.226,6.941-7.526,9.578-12.781c0.191-0.383,0.444-0.731,0.747-1.034L126,88.343v-10.46l-17.42-5.807l-5.752,5.752  c-1.561,1.563-4.096,1.563-5.656,0l-5-5c-1.563-1.562-1.563-4.095,0-5.656c1.561-1.563,4.096-1.563,5.656,0L100,69.343l4.672-4.671  c1.069-1.071,2.654-1.446,4.093-0.967l22.5,7.5C132.898,71.75,134,73.278,134,75v15C134,91.061,133.578,92.078,132.828,92.828z" id="hamster"/></svg>