<?xml version="1.0" ?><!DOCTYPE svg  PUBLIC '-//W3C//DTD SVG 1.0//EN'  'http://www.w3.org/TR/2001/REC-SVG-20010904/DTD/svg10.dtd'><svg height="160px" id="icon" style="enable-background:new 0 0 160 160;" version="1.0" viewBox="0 0 160 160" width="160px" xml:space="preserve" xmlns="http://www.w3.org/2000/svg" xmlns:xlink="http://www.w3.org/1999/xlink"><path fill="#ffb500" d="M149,100c0,21.405-15.622,29-29,29c-10.533,0-22.472,0-28.578-12.211l-5-10  c-2.097-4.166-5.236-7.668-6.436-7.787c-1.298,0.131-4.546,4.062-6.409,7.787l-5,10C62.472,129,50.533,129,40,129  c-13.378,0-29-7.595-29-29c0-2.209,1.791-4,4-4s4,1.791,4,4c0,19.485,16.074,21,21,21c10.867,0,17.716-0.375,21.422-7.789l5-10  c1.433-2.864,6.645-12.209,13.578-12.209s12.145,9.345,13.578,12.209l5,10C102.284,120.625,109.133,121,120,121  c4.926,0,21-1.515,21-21c0-2.209,1.791-4,4-4S149,97.791,149,100z M127.829,52.172C127.078,51.422,126.061,51,125,51h-15  c-2.209,0-4,1.791-4,4s1.791,4,4,4h13.343l18.986,18.986c-20.294-3.889-33.335-1.337-45.08,0.96  C91.361,80.098,85.8,81.186,80,81.186s-11.361-1.088-17.249-2.239c-11.744-2.299-24.785-4.85-45.08-0.96L36.657,59H50  c2.209,0,4-1.791,4-4s-1.791-4-4-4H35c-1.061,0-2.078,0.422-2.829,1.172l-30,30C1.421,82.922,1,83.939,1,85v0.186  c0,1.259,0.593,2.444,1.6,3.2s2.311,0.991,3.52,0.64c26.69-7.783,41.782-4.831,55.095-2.228c6.279,1.228,12.209,2.388,18.785,2.388  s12.506-1.16,18.785-2.388c13.314-2.606,28.405-5.558,55.095,2.228c0.368,0.107,0.745,0.16,1.12,0.16c0.855,0,1.7-0.274,2.4-0.8  c1.007-0.756,1.6-1.941,1.6-3.2V85c0-1.061-0.421-2.078-1.171-2.828L127.829,52.172z" id="glasses"/></svg>