<?xml version="1.0" ?><!DOCTYPE svg  PUBLIC '-//W3C//DTD SVG 1.0//EN'  'http://www.w3.org/TR/2001/REC-SVG-20010904/DTD/svg10.dtd'><svg height="160px" id="icon" style="enable-background:new 0 0 160 160;" version="1.0" viewBox="0 0 160 160" width="160px" xml:space="preserve" xmlns="http://www.w3.org/2000/svg" xmlns:xlink="http://www.w3.org/1999/xlink"><path fill="#ffb500" d="M56.43,134.104l-4.125,11.551c-0.743,2.08,0.341,4.369,2.421,5.112c0.445,0.159,0.899,0.234,1.346,0.234  c1.643,0,3.183-1.02,3.767-2.656l4.127-11.557C69.119,138.235,74.5,139,80,139s10.881-0.764,16.035-2.211l4.127,11.557  c0.584,1.636,2.124,2.656,3.767,2.656c0.446,0,0.9-0.075,1.346-0.234c2.08-0.743,3.164-3.032,2.421-5.112l-4.125-11.551  c6.685-2.914,12.837-7.073,18.148-12.384c23.004-23.004,23.004-60.435,0-83.439C110.575,27.137,95.76,21,80,21  s-30.575,6.137-41.719,17.28c-23.004,23.005-23.004,60.436,0,83.439C43.593,127.031,49.745,131.189,56.43,134.104z M80,131  c-4.568,0-9.041-0.61-13.336-1.766L80,91.892l13.336,37.342C89.041,130.39,84.568,131,80,131z M43.938,43.937  C53.57,34.304,66.377,29,80,29s26.43,5.305,36.063,14.937c19.884,19.886,19.884,52.241,0,72.125  c-4.459,4.459-9.605,7.978-15.191,10.485L83.767,78.655c-0.021-0.06-0.056-0.111-0.08-0.169c-0.054-0.131-0.114-0.257-0.182-0.382  c-0.061-0.112-0.124-0.22-0.193-0.324c-0.071-0.107-0.149-0.209-0.231-0.31c-0.084-0.102-0.17-0.2-0.263-0.292  c-0.089-0.088-0.183-0.17-0.279-0.251c-0.104-0.086-0.21-0.167-0.322-0.242c-0.101-0.067-0.205-0.128-0.313-0.187  c-0.127-0.069-0.257-0.131-0.391-0.186c-0.058-0.023-0.107-0.058-0.166-0.079c-0.055-0.02-0.11-0.024-0.165-0.041  c-0.14-0.043-0.28-0.077-0.424-0.105c-0.12-0.023-0.239-0.043-0.359-0.056c-0.132-0.013-0.264-0.017-0.397-0.017  s-0.266,0.003-0.396,0.017c-0.121,0.012-0.24,0.033-0.361,0.056c-0.144,0.028-0.283,0.062-0.422,0.104  c-0.055,0.017-0.111,0.021-0.166,0.041c-0.06,0.021-0.109,0.056-0.167,0.08c-0.134,0.055-0.262,0.115-0.388,0.184  c-0.109,0.059-0.215,0.121-0.317,0.189c-0.11,0.074-0.215,0.154-0.318,0.24c-0.099,0.081-0.193,0.164-0.282,0.253  c-0.092,0.092-0.178,0.189-0.261,0.291s-0.161,0.203-0.233,0.312c-0.069,0.104-0.132,0.211-0.192,0.323  c-0.067,0.125-0.128,0.251-0.182,0.383c-0.024,0.058-0.059,0.108-0.08,0.168l-17.104,47.893  c-5.586-2.507-10.731-6.026-15.191-10.485C24.054,96.178,24.054,63.822,43.938,43.937z M80,10c1.319,0,2.6,0.53,3.54,1.46  C84.47,12.4,85,13.68,85,15c0,1.32-0.53,2.6-1.46,3.54C82.6,19.47,81.319,20,80,20c-1.32,0-2.61-0.53-3.54-1.46  C75.53,17.61,75,16.32,75,15c0-1.32,0.53-2.61,1.46-3.54C77.39,10.53,78.68,10,80,10z M37.569,30.5  c0.931,0.93,1.471,2.22,1.471,3.54c0,1.32-0.54,2.6-1.471,3.53c-0.93,0.94-2.22,1.47-3.529,1.47c-1.32,0-2.601-0.53-3.54-1.47  c-0.931-0.93-1.46-2.21-1.46-3.53c0-1.32,0.529-2.61,1.46-3.54c0.93-0.93,2.22-1.46,3.54-1.46C35.35,29.04,36.64,29.57,37.569,30.5z   M125.96,130.96c-1.311,0-2.601-0.53-3.53-1.46c-0.939-0.93-1.47-2.22-1.47-3.54c0-1.31,0.53-2.6,1.47-3.53  c0.93-0.93,2.22-1.47,3.53-1.47c1.32,0,2.6,0.54,3.54,1.47c0.93,0.93,1.46,2.22,1.46,3.53c0,1.32-0.53,2.61-1.46,3.54  C128.56,130.43,127.28,130.96,125.96,130.96z M11.46,83.53C10.53,82.6,10,81.32,10,80c0-1.32,0.53-2.6,1.46-3.54  C12.39,75.53,13.68,75,15,75c1.31,0,2.6,0.53,3.54,1.46C19.47,77.4,20,78.68,20,80c0,1.32-0.53,2.6-1.46,3.53  C17.6,84.47,16.31,85,15,85C13.68,85,12.39,84.47,11.46,83.53z M150,80c0,1.32-0.53,2.61-1.47,3.54C147.609,84.47,146.319,85,145,85  c-1.32,0-2.601-0.53-3.54-1.46C140.53,82.61,140,81.32,140,80c0-1.32,0.53-2.61,1.46-3.54c0.93-0.93,2.22-1.46,3.54-1.46  c1.319,0,2.609,0.53,3.53,1.46C149.47,77.4,150,78.69,150,80z M30.5,129.5c-0.931-0.93-1.46-2.22-1.46-3.54  c0-1.32,0.529-2.6,1.46-3.53c0.93-0.93,2.22-1.47,3.54-1.47c1.31,0,2.6,0.54,3.529,1.47c0.931,0.93,1.471,2.21,1.471,3.53  c0,1.32-0.54,2.61-1.471,3.54c-0.93,0.93-2.22,1.46-3.529,1.46C32.72,130.96,31.43,130.43,30.5,129.5z M125.96,29.04  c1.32,0,2.6,0.53,3.54,1.46c0.93,0.93,1.46,2.22,1.46,3.54c0,1.31-0.53,2.6-1.46,3.53c-0.94,0.93-2.22,1.47-3.54,1.47  c-1.311,0-2.601-0.54-3.53-1.47c-0.939-0.93-1.47-2.22-1.47-3.53c0-1.32,0.53-2.61,1.47-3.54  C123.359,29.57,124.649,29.04,125.96,29.04z M80,150c-1.32,0-2.61-0.53-3.54-1.46C75.53,147.61,75,146.32,75,145  c0-1.32,0.53-2.61,1.46-3.54c0.93-0.93,2.22-1.46,3.54-1.46c1.319,0,2.6,0.53,3.54,1.46C84.47,142.4,85,143.68,85,145  c0,1.32-0.53,2.6-1.46,3.54C82.6,149.47,81.319,150,80,150z" id="ferris_wheel"/></svg>