<?xml version="1.0" ?><!DOCTYPE svg  PUBLIC '-//W3C//DTD SVG 1.0//EN'  'http://www.w3.org/TR/2001/REC-SVG-20010904/DTD/svg10.dtd'><svg height="160px" id="icon" style="enable-background:new 0 0 160 160;" version="1.0" viewBox="0 0 160 160" width="160px" xml:space="preserve" xmlns="http://www.w3.org/2000/svg" xmlns:xlink="http://www.w3.org/1999/xlink"><path fill="#ffb500" d="M105,21c-2.209,0-4,1.791-4,4v8.842c-8.704-0.431-16.788,2.205-17.265,2.363  c-1.183,0.395-2.114,1.317-2.519,2.497c-0.404,1.179-0.236,2.48,0.456,3.517c0.409,0.614,9.284,13.602,26.881,16.289  C91.223,92.054,91,123.604,91,125c0,2.209,1.791,4,4,4s4-1.791,4-4c0-0.303,0.19-27.473,13.96-57.286  c4.31,13.441,14.285,20.257,14.821,20.614C128.446,88.771,129.22,89,130,89c0.436,0,0.875-0.071,1.298-0.216  c1.179-0.405,2.102-1.336,2.497-2.519c0.159-0.477,2.795-8.561,2.364-17.265H145c2.209,0,4-1.791,4-4  c0-16.424-11.751-22.394-20.295-23.705C127.394,32.751,121.424,21,105,21z M125,49c0.593,0,13.287,0.149,15.63,12H135  c-0.091,0-0.176,0.021-0.265,0.027c-0.323-0.961-0.702-1.905-1.157-2.816c-0.988-1.975-3.391-2.776-5.367-1.789  c-1.976,0.988-2.776,3.391-1.789,5.367c2.361,4.722,2.003,11.057,1.235,15.708C123.835,73.239,119,65.731,119,55  c0-0.048-0.012-0.092-0.014-0.139c-0.005-0.145-0.022-0.285-0.043-0.428c-0.018-0.123-0.034-0.245-0.063-0.364  c-0.03-0.126-0.072-0.247-0.114-0.369c-0.043-0.124-0.084-0.246-0.138-0.364c-0.053-0.117-0.119-0.226-0.183-0.337  c-0.064-0.11-0.126-0.22-0.2-0.323c-0.076-0.106-0.163-0.204-0.25-0.303c-0.085-0.096-0.168-0.192-0.261-0.28  c-0.09-0.085-0.189-0.161-0.288-0.237c-0.113-0.088-0.226-0.173-0.348-0.248c-0.04-0.025-0.073-0.058-0.114-0.082  c-0.064-0.037-0.133-0.055-0.198-0.088c-0.13-0.065-0.26-0.126-0.397-0.177c-0.12-0.044-0.24-0.079-0.361-0.112  c-0.127-0.034-0.253-0.064-0.385-0.085c-0.14-0.023-0.278-0.035-0.418-0.042C115.149,51.019,115.077,51,115,51  c-10.794,0-18.283-4.829-22.522-8.653c4.654-0.772,11.003-1.135,15.733,1.23c1.978,0.988,4.379,0.188,5.367-1.789  c0.988-1.976,0.187-4.379-1.789-5.367c-0.911-0.456-1.854-0.834-2.816-1.157C108.979,35.176,109,35.091,109,35v-5.635  c11.516,2.249,11.987,14.167,12,15.635C121,47.209,122.791,49,125,49z M17.423,26.13c-6.189,5.855-8.336,15.758-6.383,29.436  C11.322,57.536,13.009,59,15,59h6.673c0.743,9.613,4.483,17.258,4.749,17.789c0.53,1.061,1.504,1.832,2.659,2.104  C29.385,78.965,29.693,79,30,79c0.857,0,1.701-0.276,2.4-0.8c0.711-0.533,14.023-10.753,16.875-28.438  C70.664,88.685,71,124.607,71,125.003c0.002,2.208,1.792,3.997,4,3.997c2.209,0,4-1.791,4-4c0-1.789-0.318-42.221-26.218-85.189  c0.094,0,0.19,0.005,0.284,0.005C74.854,39.815,87.603,23.196,88.2,22.4c0.711-0.949,0.965-2.165,0.693-3.319  s-1.043-2.128-2.104-2.659c-0.582-0.291-9.701-4.748-20.593-4.87l2.381-4.763c0.575-1.15,0.562-2.506-0.035-3.646  c-0.597-1.139-1.705-1.921-2.977-2.104C51.89-0.914,41.985,1.234,36.13,7.423c-4.084,4.317-5.174,9.578-5.345,13.363  C27.001,20.956,21.74,22.046,17.423,26.13z M34.215,28.922c1.315,0.263,2.667-0.148,3.613-1.094  c0.945-0.946,1.356-2.302,1.094-3.613c-0.013-0.067-1.219-6.814,3.02-11.295c3.198-3.379,8.981-4.909,16.883-4.516l-2.142,4.283  c-3.019,0.801-6.029,2.068-8.902,3.984c-1.838,1.225-2.335,3.709-1.109,5.547c1.225,1.838,3.709,2.334,5.547,1.109  c8.586-5.724,19.462-3.723,25.783-1.742c-5.515,5.003-16.786,12.576-32.216,9.492c-0.001,0-0.002,0-0.003-0.001  c-0.224-0.044-0.448-0.063-0.671-0.068c-0.057-0.002-0.112-0.003-0.169-0.002c-0.222,0.003-0.442,0.021-0.659,0.06  c-0.038,0.007-0.075,0.02-0.113,0.027c-0.199,0.042-0.393,0.1-0.582,0.172c-0.044,0.017-0.089,0.031-0.133,0.049  c-0.215,0.09-0.42,0.2-0.618,0.328c-0.018,0.011-0.038,0.018-0.056,0.029c-0.022,0.015-0.039,0.035-0.061,0.05  c-0.193,0.134-0.379,0.28-0.549,0.449c-0.002,0.002-0.004,0.005-0.007,0.008c-0.013,0.013-0.024,0.029-0.037,0.042  c-0.151,0.156-0.284,0.324-0.406,0.5c-0.032,0.046-0.065,0.091-0.095,0.139c-0.119,0.187-0.223,0.381-0.308,0.583  c-0.017,0.041-0.03,0.082-0.045,0.123c-0.071,0.186-0.129,0.375-0.172,0.569c-0.009,0.039-0.021,0.078-0.028,0.118  c-0.042,0.217-0.063,0.438-0.067,0.66c-0.001,0.054,0,0.106,0.001,0.16c0.004,0.202,0.021,0.404,0.056,0.606  c0.005,0.03,0.006,0.06,0.012,0.089c0.001,0.005,0.001,0.011,0.002,0.016c3.115,15.575-4.472,26.794-9.492,32.265  c-1.997-6.3-4.024-17.181,1.743-25.831c1.226-1.838,0.729-4.322-1.109-5.547c-1.84-1.226-4.322-0.729-5.547,1.109  c-2.83,4.245-4.266,8.788-4.831,13.219h-3.283c-0.805-8.984,0.668-15.52,4.316-19.013C27.353,27.696,34.17,28.913,34.215,28.922z   M56.305,146.464c-0.846-2.041,0.122-4.381,2.163-5.227c8.38-3.475,17.266-5.237,26.409-5.237c0.004,0,0.005,0,0.008,0  c9.144,0,18.028,1.762,26.409,5.237c2.041,0.846,3.009,3.187,2.163,5.227c-0.638,1.54-2.127,2.469-3.696,2.469  c-0.511,0-1.03-0.098-1.531-0.306c-7.403-3.07-15.258-4.627-23.345-4.627c-0.003,0-0.006,0-0.007,0  c-8.087,0-15.941,1.557-23.345,4.627C59.491,149.472,57.151,148.505,56.305,146.464z" id="tropical_island"/></svg>