<?xml version="1.0" ?><!DOCTYPE svg  PUBLIC '-//W3C//DTD SVG 1.0//EN'  'http://www.w3.org/TR/2001/REC-SVG-20010904/DTD/svg10.dtd'><svg height="160px" id="icon" style="enable-background:new 0 0 160 160;" version="1.0" viewBox="0 0 160 160" width="160px" xml:space="preserve" xmlns="http://www.w3.org/2000/svg" xmlns:xlink="http://www.w3.org/1999/xlink"><path fill="#ffb500" d="M55,31c16.697,0,21.039-11.802,21.216-12.304C76.779,17.095,78.299,16,79.995,16c0.011,0,0.021,0,0.032,0  c1.71,0,3.227,1.105,3.768,2.727c0.166,0.472,4.508,12.27,21.205,12.27c2.209,0,4,1.793,4,4.002S107.209,39,105,39  c-13.493,0-21.049-6.052-25-11.09C76.049,32.948,68.493,39,55,39c-2.209,0-4-1.791-4-4S52.791,31,55,31z M31,120v27  c0,2.209,1.791,4,4,4s4-1.791,4-4v-27c0-2.209-1.791-4-4-4S31,117.791,31,120z M121,120v27c0,2.209,1.791,4,4,4s4-1.791,4-4v-27  c0-2.209-1.791-4-4-4S121,117.791,121,120z M95,151c2.209,0,4-1.791,4-4v-28.687c1.903,0.433,3.904,0.687,6,0.687  c2.209,0,4-1.792,4-4s-1.791-4-4-4c-12.625,0-21.588-13.095-21.672-13.22C82.588,96.669,81.341,96,80.007,96  c-0.003,0-0.007,0-0.01,0c-1.33,0-2.577,0.667-3.32,1.771C76.588,97.904,67.625,111,55,111c-2.209,0-4,1.791-4,4s1.791,4,4,4  c2.096,0,4.097-0.254,6-0.687V147c0,2.209,1.791,4,4,4s4-1.791,4-4v-31.772c4.791-2.628,8.542-6.132,11-8.848  c2.458,2.716,6.209,6.219,11,8.848V147C91,149.209,92.791,151,95,151z M21,105c0-2.209,1.791-4,4-4c14.933,0,19.988-9.451,21-11.758  V78.567C44.144,78.845,42.148,79,40,79c-2.209,0-4-1.791-4-4s1.791-4,4-4c14.933,0,19.988-9.451,21-11.758V50c0-2.209,1.791-4,4-4  s4,1.791,4,4v1h22v-1c0-2.209,1.791-4,4-4s4,1.791,4,4v9.236C100.043,61.615,105.1,71,120,71c2.209,0,4,1.791,4,4s-1.791,4-4,4  c-2.148,0-4.144-0.155-6-0.433v10.669c1.043,2.379,6.1,11.764,21,11.764c2.209,0,4,1.791,4,4s-1.791,4-4,4  c-22.623,0-28.554-17.011-28.795-17.735c-0.024-0.073-0.029-0.146-0.049-0.219c-0.037-0.134-0.069-0.267-0.092-0.406  c-0.023-0.141-0.035-0.281-0.042-0.421C106.018,90.145,106,90.075,106,90v-1H54v1c0,0.075-0.018,0.145-0.022,0.219  c-0.007,0.141-0.019,0.28-0.042,0.421c-0.022,0.139-0.055,0.273-0.092,0.407c-0.02,0.072-0.024,0.146-0.049,0.218  C53.554,91.989,47.623,109,25,109C22.791,109,21,107.209,21,105z M54,76.334V81h52v-4.666c-11.23-4.817-14.614-14.526-14.795-15.069  c-0.024-0.073-0.029-0.146-0.049-0.219c-0.037-0.134-0.069-0.267-0.092-0.406c-0.023-0.141-0.035-0.281-0.042-0.421  C91.018,60.145,91,60.075,91,60v-1H69v1c0,0.075-0.018,0.145-0.022,0.219c-0.007,0.141-0.019,0.28-0.042,0.421  c-0.022,0.139-0.055,0.273-0.092,0.407c-0.02,0.072-0.024,0.146-0.049,0.218C68.614,61.809,65.23,71.518,54,76.334z" id="china"/></svg>