<?xml version="1.0" ?><!DOCTYPE svg  PUBLIC '-//W3C//DTD SVG 1.0//EN'  'http://www.w3.org/TR/2001/REC-SVG-20010904/DTD/svg10.dtd'><svg height="160px" id="icon" style="enable-background:new 0 0 160 160;" version="1.0" viewBox="0 0 160 160" width="160px" xml:space="preserve" xmlns="http://www.w3.org/2000/svg" xmlns:xlink="http://www.w3.org/1999/xlink"><path fill="#ffb500" d="M119,100v19.669l4.446,26.673c0.363,2.179-1.109,4.24-3.288,4.604c-0.223,0.037-0.444,0.055-0.663,0.055  c-1.92,0-3.615-1.386-3.941-3.343l-4.5-27C111.018,120.44,111,120.22,111,120v-18.078L88.183,83.669l-38.281-9.57L27.848,78.51  l-13.44,31.361l14.17,28.34c0.988,1.976,0.187,4.379-1.789,5.367c-1.976,0.987-4.379,0.187-5.367-1.789l-15-30  c-0.526-1.053-0.563-2.283-0.099-3.365l15-35c0.519-1.21,1.601-2.088,2.892-2.347l25-5c0.581-0.116,1.18-0.102,1.755,0.042l40,10  c0.558,0.139,1.08,0.397,1.529,0.757l25,20C118.448,97.636,119,98.785,119,100z M64.815,150.922  c2.166,0.428,4.273-0.972,4.707-3.138L73.279,129h18.441l3.757,18.785c0.38,1.901,2.05,3.216,3.918,3.216  c0.26,0,0.524-0.026,0.789-0.079c2.166-0.433,3.571-2.541,3.138-4.707l-4.4-22C98.548,122.346,96.907,121,95,121H70  c-1.907,0-3.548,1.346-3.922,3.215l-4.4,22C61.245,148.382,62.649,150.489,64.815,150.922z M51.078,124.215l-4.4,22  c-0.433,2.167,0.972,4.274,3.138,4.707c0.265,0.053,0.529,0.079,0.789,0.079c1.868,0,3.538-1.315,3.918-3.216l4.4-22  c0.433-2.167-0.972-4.274-3.138-4.707C53.615,120.645,51.511,122.049,51.078,124.215z M35,111c-2.209,0-4,1.791-4,4s1.791,4,4,4h15  c1.515,0,2.9-0.856,3.578-2.211l10-20c0.77-1.54,0.468-3.4-0.749-4.618l-10-10c-1.563-1.562-4.095-1.562-5.657,0  c-1.562,1.563-1.562,4.095,0,5.657l7.961,7.961L47.528,111H35z M130.368,151c1.891,0,3.572-1.346,3.929-3.271l9.636-52  C143.978,95.488,144,95.245,144,95V35c0-2.209-1.791-4-4-4s-4,1.791-4,4v59.632l-9.569,51.639c-0.402,2.172,1.032,4.259,3.204,4.662  C129.881,150.979,130.126,151,130.368,151z M158.578,21.789c0.988-1.976,0.187-4.379-1.789-5.367L137.37,6.713l-4.542-4.542  c-1.563-1.562-4.095-1.562-5.657,0c-1.562,1.563-1.562,4.095,0,5.657l2.681,2.681l-8.181,12.271  c-0.363,0.544-0.587,1.169-0.652,1.821l-4.781,47.806l-8.028,4.014c-1.976,0.988-2.776,3.391-1.789,5.367  c0.701,1.401,2.113,2.212,3.581,2.212c0.601,0,1.212-0.136,1.786-0.423l10-5c0.048-0.024,0.087-0.059,0.134-0.084  c0.132-0.073,0.257-0.154,0.38-0.241c0.091-0.064,0.181-0.128,0.266-0.199c0.106-0.09,0.204-0.188,0.3-0.289  c0.079-0.082,0.159-0.16,0.229-0.247c0.09-0.11,0.167-0.23,0.245-0.35c0.057-0.089,0.119-0.173,0.169-0.266  c0.07-0.129,0.124-0.268,0.179-0.405c0.039-0.096,0.084-0.189,0.116-0.288c0.04-0.126,0.063-0.26,0.09-0.392  c0.025-0.121,0.057-0.24,0.071-0.363c0.002-0.02,0.009-0.037,0.011-0.057l4.901-49.008l7.489-11.233l16.841,8.421  C155.188,24.565,157.59,23.765,158.578,21.789z" id="safari"/></svg>