<?xml version="1.0" ?><!DOCTYPE svg  PUBLIC '-//W3C//DTD SVG 1.0//EN'  'http://www.w3.org/TR/2001/REC-SVG-20010904/DTD/svg10.dtd'><svg height="160px" id="icon" style="enable-background:new 0 0 160 160;" version="1.0" viewBox="0 0 160 160" width="160px" xml:space="preserve" xmlns="http://www.w3.org/2000/svg" xmlns:xlink="http://www.w3.org/1999/xlink"><path fill="#ffb500" d="M41,80c0,10.105,3.865,19.325,10.192,26.26l9.927,39.71c0.445,1.782,2.045,3.03,3.88,3.03h30  c1.835,0,3.436-1.248,3.88-3.03l5-20c0.536-2.143-0.767-4.314-2.91-4.851c-2.145-0.533-4.315,0.767-4.851,2.911L91.877,141H68.123  l-6.676-26.703C66.968,117.295,73.289,119,80,119c21.505,0,39-17.495,39-39c0-10.105-3.865-19.325-10.192-26.26L98.88,14.03  C98.436,12.25,96.835,11,95,11H65c-1.835,0-3.436,1.25-3.88,3.03l-5,20c-0.536,2.143,0.767,4.314,2.91,4.851  c2.14,0.535,4.315-0.768,4.851-2.911L68.123,19h23.754l6.676,26.703C93.032,42.705,86.711,41,80,41C58.495,41,41,58.495,41,80z   M80,111c-17.093,0-31-13.906-31-31s13.907-31,31-31s31,13.906,31,31S97.093,111,80,111z M125,89c-2.209,0-4-1.791-4-4V75  c0-2.209,1.791-4,4-4s4,1.791,4,4v10C129,87.209,127.209,89,125,89z M92.829,87.172c1.562,1.562,1.562,4.095,0,5.656  C92.047,93.609,91.024,94,90,94s-2.047-0.391-2.829-1.172l-10-10c-0.001-0.002-0.002-0.004-0.004-0.006  c-0.184-0.184-0.348-0.387-0.493-0.604c-0.069-0.102-0.116-0.213-0.174-0.32c-0.066-0.121-0.14-0.238-0.194-0.367  c-0.056-0.137-0.089-0.279-0.13-0.42c-0.032-0.109-0.075-0.214-0.097-0.327C76.027,80.525,76,80.262,76,79.998V60  c0-2.209,1.791-4,4-4s4,1.791,4,4v18.344L92.829,87.172z" id="watch"/></svg>