<?xml version="1.0" ?><!DOCTYPE svg  PUBLIC '-//W3C//DTD SVG 1.0//EN'  'http://www.w3.org/TR/2001/REC-SVG-20010904/DTD/svg10.dtd'><svg height="160px" id="icon" style="enable-background:new 0 0 160 160;" version="1.0" viewBox="0 0 160 160" width="160px" xml:space="preserve" xmlns="http://www.w3.org/2000/svg" xmlns:xlink="http://www.w3.org/1999/xlink"><path fill="#ffb500" d="M111,75c0,7.72,6.28,14,14,14s14-6.28,14-14s-6.28-14-14-14S111,67.28,111,75z M131,75c0,3.309-2.691,6-6,6  s-6-2.691-6-6s2.691-6,6-6S131,71.691,131,75z M81.099,57.824c0.847,2.041-0.121,4.381-2.162,5.228  c-5.901,2.448-11.193,5.991-15.73,10.528c-4.539,4.539-8.08,9.831-10.526,15.731c-2.441,5.884-3.68,12.13-3.68,18.563  c0,2.209-1.791,4-4,4h0c-2.209,0-4-1.791-4-4c0-7.492,1.444-14.769,4.291-21.629c2.85-6.873,6.974-13.037,12.258-18.322  c5.283-5.283,11.447-9.408,18.322-12.261C77.91,54.815,80.252,55.783,81.099,57.824z M16.616,103.326C12.889,94.339,11,84.808,11,75  c0-9.812,1.891-19.342,5.619-28.328c3.732-9.002,9.134-17.076,16.057-23.998c6.919-6.919,14.993-12.322,23.997-16.06  C65.657,2.889,75.188,1,85,1h29.999c21.505,0,39,17.495,39,39c0,1.061-0.422,2.078-1.172,2.828  c-3.266,3.266-6.74,4.922-10.328,4.922s-7.063-1.656-10.328-4.922c-3.449-3.449-5.895-3.449-9.344,0  c-6.563,6.564-14.094,6.564-20.656,0c-1.711-1.711-3.283-2.578-4.672-2.578s-2.961,0.867-4.672,2.578  c-6.563,6.564-14.092,6.564-20.657,0c-0.75-0.75-1.171-1.767-1.171-2.826c-0.001-5.612-2.185-10.886-6.151-14.852  c-1.562-1.562-1.562-4.095,0-5.656c1.563-1.563,4.095-1.563,5.657,0c5.049,5.049,8.007,11.633,8.438,18.7  c2.89,2.385,5.162,2.043,8.228-1.022c6.563-6.564,14.094-6.564,20.656,0c3.449,3.449,5.895,3.449,9.344,0  c3.266-3.266,6.74-4.922,10.328-4.922s7.063,1.656,10.328,4.922c3.028,3.027,5.283,3.396,8.125,1.106  C145.055,21.982,131.515,9,114.999,9h-30c-8.755,0-17.254,1.684-25.261,5.004c-8.029,3.332-15.232,8.152-21.406,14.326  c-6.176,6.176-10.995,13.379-14.323,21.406C20.686,57.747,19,66.246,19,75c0,8.752,1.684,17.25,5.006,25.262  c3.329,8.027,8.149,15.23,14.328,21.41c6.177,6.176,13.379,10.996,21.406,14.322c8.007,3.32,16.505,5.004,25.261,5.006h8.343  l15.999-16l-12.171-12.172c-1.218-1.217-1.52-3.076-0.75-4.617L103.527,94H85c-2.209,0-4-1.791-4-4s1.791-4,4-4h24.999  c1.387,0,2.674,0.718,3.402,1.897c0.729,1.179,0.795,2.651,0.176,3.892l-8.71,17.421l12.961,12.962c1.563,1.562,1.563,4.095,0,5.656  L104.656,141h17.871l7.604-15.21l-12.961-12.962c-1.563-1.562-1.563-4.094-0.001-5.656l10.001-10.004  c1.219-1.218,3.078-1.521,4.618-0.749l20,10.004c1.977,0.988,2.776,3.391,1.788,5.366c-0.987,1.976-3.392,2.777-5.366,1.788  l-17.421-8.714L125.655,110l12.172,12.172c1.218,1.217,1.52,3.078,0.75,4.617L131.473,141H150c2.209,0,4,1.791,4,4s-1.791,4-4,4  h-24.988c-0.005,0-0.01,0.002-0.015,0.002c-0.003,0-0.006-0.002-0.009-0.002H85c-9.813-0.002-19.342-1.892-28.324-5.615  c-9.001-3.731-17.076-9.133-23.999-16.056C25.752,120.402,20.348,112.327,16.616,103.326z" id="surfing"/></svg>