<?xml version="1.0" ?><!DOCTYPE svg  PUBLIC '-//W3C//DTD SVG 1.0//EN'  'http://www.w3.org/TR/2001/REC-SVG-20010904/DTD/svg10.dtd'><svg height="160px" id="icon" style="enable-background:new 0 0 160 160;" version="1.0" viewBox="0 0 160 160" width="160px" xml:space="preserve" xmlns="http://www.w3.org/2000/svg" xmlns:xlink="http://www.w3.org/1999/xlink"><path fill="#ffb500" d="M11,90v55c0,2.209,1.791,4,4,4h130c2.209,0,4-1.791,4-4v-25c0-1.464-0.8-2.811-2.085-3.512l-55-30  c-1.148-0.627-2.533-0.651-3.704-0.066l-40,20c-1.976,0.988-2.776,3.391-1.789,5.367c0.989,1.976,3.392,2.774,5.367,1.789  L61,108.972V140c0,0.348,0.059,0.679,0.142,1H19V90.944L27.473,74H39.98c0.005,0,0.01,0.001,0.016,0.001  c0.005,0,0.01-0.001,0.015-0.001H55c2.209,0,4-1.791,4-4s-1.791-4-4-4h-8.262l23.604-43.275l36.329,54.494  c0.771,1.156,2.039,1.782,3.332,1.782c0.762,0,1.533-0.218,2.215-0.672c1.838-1.225,2.335-3.709,1.109-5.547l-20.2-30.3  c0.068-0.086,0.139-0.17,0.2-0.263l6.611-9.917l41.696,64.861c0.764,1.189,2.053,1.837,3.368,1.837c0.74,0,1.49-0.206,2.159-0.636  c1.858-1.195,2.396-3.669,1.201-5.528l-45-70c-0.003-0.005-0.007-0.008-0.01-0.013c-0.104-0.161-0.232-0.308-0.361-0.454  c-0.049-0.056-0.09-0.122-0.142-0.175c-0.051-0.051-0.113-0.092-0.167-0.141c-0.146-0.132-0.292-0.264-0.453-0.372  c-0.005-0.003-0.008-0.008-0.013-0.011c-0.061-0.041-0.127-0.063-0.189-0.1c-0.159-0.094-0.318-0.188-0.488-0.259  c-0.118-0.049-0.239-0.078-0.359-0.115c-0.126-0.039-0.249-0.085-0.378-0.111c-0.133-0.027-0.266-0.034-0.399-0.047  c-0.123-0.013-0.245-0.033-0.37-0.034c-0.129-0.001-0.255,0.017-0.382,0.028c-0.131,0.011-0.26,0.016-0.389,0.04  c-0.133,0.025-0.26,0.07-0.389,0.108c-0.118,0.035-0.237,0.06-0.354,0.106c-0.171,0.068-0.332,0.159-0.493,0.251  c-0.063,0.036-0.13,0.058-0.191,0.097c-0.005,0.003-0.009,0.007-0.014,0.011c-0.161,0.105-0.309,0.233-0.456,0.363  c-0.055,0.048-0.12,0.088-0.172,0.14c-0.053,0.052-0.095,0.117-0.146,0.173c-0.13,0.144-0.261,0.288-0.367,0.447  c-0.003,0.004-0.008,0.008-0.011,0.013l-8.339,12.508L73.328,12.781c-0.029-0.044-0.068-0.078-0.1-0.121  c-0.083-0.115-0.175-0.223-0.271-0.33c-0.087-0.096-0.173-0.189-0.267-0.275c-0.092-0.083-0.19-0.16-0.291-0.236  c-0.117-0.088-0.234-0.171-0.359-0.246c-0.044-0.027-0.08-0.062-0.126-0.086c-0.06-0.033-0.124-0.048-0.185-0.078  c-0.131-0.063-0.264-0.121-0.4-0.168c-0.117-0.042-0.233-0.077-0.353-0.106c-0.13-0.033-0.259-0.059-0.392-0.079  c-0.125-0.019-0.248-0.031-0.372-0.038c-0.134-0.007-0.267-0.007-0.401-0.001c-0.121,0.006-0.239,0.017-0.359,0.033  c-0.136,0.019-0.269,0.045-0.403,0.078c-0.119,0.029-0.235,0.064-0.352,0.104c-0.124,0.043-0.245,0.091-0.365,0.146  c-0.127,0.058-0.248,0.124-0.369,0.196c-0.06,0.036-0.124,0.058-0.183,0.097c-0.044,0.029-0.078,0.068-0.12,0.099  c-0.116,0.084-0.224,0.176-0.331,0.272c-0.095,0.086-0.188,0.172-0.272,0.265s-0.162,0.192-0.239,0.294  c-0.086,0.115-0.169,0.231-0.242,0.354c-0.026,0.045-0.063,0.082-0.088,0.129L37.625,66H25c-0.081,0-0.156,0.019-0.236,0.024  c-0.144,0.008-0.285,0.019-0.427,0.043c-0.127,0.021-0.249,0.052-0.372,0.085c-0.125,0.034-0.248,0.069-0.369,0.114  c-0.122,0.046-0.239,0.101-0.356,0.158c-0.115,0.057-0.228,0.116-0.338,0.184c-0.106,0.066-0.207,0.139-0.307,0.214  c-0.106,0.081-0.21,0.164-0.31,0.255c-0.092,0.085-0.176,0.177-0.26,0.271c-0.086,0.097-0.171,0.195-0.249,0.302  c-0.083,0.113-0.153,0.233-0.225,0.355c-0.041,0.071-0.093,0.131-0.13,0.206l-10,20C11.145,88.767,11,89.379,11,90z M141,141  h-22.142c0.083-0.321,0.142-0.652,0.142-1v-29.626l22,12V141z M68.997,104.974L89.92,94.512L111,106.011V140  c0,0.348,0.059,0.679,0.142,1H94v-11c0-2.209-1.791-4-4-4s-4,1.791-4,4v11H68.858c0.083-0.321,0.142-0.652,0.142-1v-35  C69,104.991,68.997,104.982,68.997,104.974z" id="mountains"/></svg>