<?xml version="1.0" ?><!DOCTYPE svg  PUBLIC '-//W3C//DTD SVG 1.0//EN'  'http://www.w3.org/TR/2001/REC-SVG-20010904/DTD/svg10.dtd'><svg height="160px" id="icon" style="enable-background:new 0 0 160 160;" version="1.0" viewBox="0 0 160 160" width="160px" xml:space="preserve" xmlns="http://www.w3.org/2000/svg" xmlns:xlink="http://www.w3.org/1999/xlink"><path fill="#ffb500" d="M40,91h80c2.209,0,4,1.791,4,4s-1.791,4-4,4H40c-2.209,0-4-1.791-4-4S37.791,91,40,91z M75,141  c-2.209,0-4,1.791-4,4s1.791,4,4,4h10c2.209,0,4-1.791,4-4s-1.791-4-4-4H75z M118.226,17.635c-1.308-1.782-3.809-2.164-5.591-0.86  L38.69,71H25c-2.209,0-4,1.791-4,4v40c0,2.209,1.791,4,4,4h16.142c-0.083,0.321-0.142,0.652-0.142,1v27c0,2.209,1.791,4,4,4  s4-1.791,4-4v-27c0-0.348-0.059-0.679-0.142-1h62.283c-0.083,0.321-0.142,0.652-0.142,1v27c0,2.209,1.791,4,4,4s4-1.791,4-4v-27  c0-0.348-0.059-0.679-0.142-1H135c2.209,0,4-1.791,4-4V75c0-2.209-1.791-4-4-4h-11.697l-9.457-33.099  c-0.607-2.124-2.819-3.36-4.944-2.747c-2.124,0.606-3.354,2.82-2.747,4.944L114.983,71H70c-2.209,0-4,1.791-4,4s1.791,4,4,4h61v32  H29V79h11c0.851,0,1.68-0.271,2.365-0.774l75-55C119.146,21.919,119.532,19.416,118.226,17.635z" id="piano"/></svg>