<?xml version="1.0" ?><!DOCTYPE svg  PUBLIC '-//W3C//DTD SVG 1.0//EN'  'http://www.w3.org/TR/2001/REC-SVG-20010904/DTD/svg10.dtd'><svg height="160px" id="icon" style="enable-background:new 0 0 160 160;" version="1.0" viewBox="0 0 160 160" width="160px" xml:space="preserve" xmlns="http://www.w3.org/2000/svg" xmlns:xlink="http://www.w3.org/1999/xlink"><path fill="#ffb500" d="M51,147v-22c0-2.209,1.791-4,4-4h6V55c0-2.209,1.791-4,4-4h1V40c0-4.313,1.962-8.172,5.037-10.743  c0.265-3.207,2.215-5.937,4.963-7.308V5c0-2.209,1.791-4,4-4s4,1.791,4,4v16.95c2.748,1.371,4.698,4.101,4.963,7.308  C92.038,31.828,94,35.688,94,40v11h1c2.209,0,4,1.791,4,4v66h6c2.209,0,4,1.791,4,4v22c0,2.209-1.791,4-4,4s-4-1.791-4-4v-18h-6  c-2.209,0-4-1.791-4-4V59h-1c-2.209,0-4-1.791-4-4V40c0-3.309-2.691-6-6-6s-6,2.691-6,6v15c0,2.209-1.791,4-4,4h-1v66  c0,2.209-1.791,4-4,4h-6v18c0,2.209-1.791,4-4,4S51,149.209,51,147z M11,147c0,2.209,1.791,4,4,4s4-1.791,4-4V89h12v58  c0,2.209,1.791,4,4,4s4-1.791,4-4V69h6c2.209,0,4-1.791,4-4s-1.791-4-4-4H35c-2.209,0-4,1.791-4,4v16H15c-2.209,0-4,1.791-4,4V147z   M145,71h-16V55c0-2.209-1.791-4-4-4h-10c-2.209,0-4,1.791-4,4s1.791,4,4,4h6v88c0,2.209,1.791,4,4,4s4-1.791,4-4V79h12v69  c0,2.209,1.791,4,4,4s4-1.791,4-4V75C149,72.791,147.209,71,145,71z" id="new_york"/></svg>