<?xml version="1.0" ?><!DOCTYPE svg  PUBLIC '-//W3C//DTD SVG 1.0//EN'  'http://www.w3.org/TR/2001/REC-SVG-20010904/DTD/svg10.dtd'><svg height="160px" id="icon" style="enable-background:new 0 0 160 160;" version="1.0" viewBox="0 0 160 160" width="160px" xml:space="preserve" xmlns="http://www.w3.org/2000/svg" xmlns:xlink="http://www.w3.org/1999/xlink"><path fill="#ffb500" d="M41.078,55.785L51,105.396V147c0,2.209,1.791,4,4,4s4-1.791,4-4v-42c0-0.263-0.026-0.526-0.078-0.785  l-9.401-47.004L65,49.472l15.479,7.739l-9.396,46.977c-0.001,0.004-0.001,0.008-0.002,0.012l-0.003,0.015  c-0.007,0.034-0.003,0.069-0.009,0.104C71.03,104.541,71,104.767,71,105v42c0,2.209,1.791,4,4,4s4-1.791,4-4v-38h2.42l4.271,38.442  c0.244,2.195,2.218,3.777,4.417,3.534c2.195-0.244,3.778-2.222,3.534-4.417l-4.667-42C88.75,102.533,87.038,101,85,101h-5.121  l8.805-44.028L95,50.657l6.315,6.315L110.121,101H105c-2.038,0-3.75,1.533-3.976,3.558l-4.667,42  c-0.244,2.196,1.338,4.173,3.534,4.417c0.15,0.017,0.299,0.025,0.447,0.025c2.011,0,3.743-1.513,3.971-3.559L108.58,109H115  c1.198,0,2.333-0.537,3.093-1.464s1.064-2.146,0.829-3.321l-10-50c-0.155-0.774-0.536-1.485-1.094-2.044l-5.354-5.354  C106.389,44.332,109,39.97,109,35c0-7.72-6.28-14-14-14s-14,6.28-14,14c0,4.97,2.611,9.332,6.525,11.817l-3.315,3.315l-9.727-4.863  C77.252,42.71,79,39.06,79,35c0-7.72-6.28-14-14-14s-14,6.28-14,14c0,4.06,1.748,7.71,4.517,10.27l-12.306,6.153  C41.598,52.229,40.724,54.016,41.078,55.785z M95,29c3.309,0,6,2.691,6,6s-2.691,6-6,6s-6-2.691-6-6S91.691,29,95,29z M65,29  c3.309,0,6,2.691,6,6c0,3.308-2.69,5.999-5.999,6C65,41,65,41,64.999,41C61.69,40.999,59,38.308,59,35C59,31.691,61.691,29,65,29z   M121,85c0,4.06,1.748,7.71,4.517,10.27l-2.306,1.153C121.856,97.1,121,98.485,121,100v25c0,0.264,0.026,0.526,0.078,0.785l4.4,22  c0.433,2.166,2.542,3.566,4.707,3.138c2.166-0.433,3.571-2.541,3.138-4.707L129,124.604v-22.132l6-3l6,3v22.132l-4.323,21.611  c-0.433,2.167,0.972,4.274,3.138,4.707c0.265,0.053,0.529,0.079,0.789,0.079c1.868,0,3.538-1.315,3.918-3.216l4.4-22  c0.052-0.258,0.078-0.521,0.078-0.785v-25c0-1.515-0.856-2.9-2.211-3.578l-2.306-1.153C147.252,92.71,149,89.06,149,85  c0-7.72-6.28-14-14-14S121,77.28,121,85z M141,85c0,3.308-2.69,5.999-5.999,6c-0.001,0-0.002,0-0.003,0  C131.69,90.999,129,88.308,129,85c0-3.309,2.691-6,6-6S141,81.691,141,85z M15.611,147.565c0.313,2.187,2.333,3.708,4.526,3.395  c2.187-0.313,3.706-2.339,3.394-4.525L19,114.716V92.472l6-3l6,3v22.244l-4.531,31.719c-0.312,2.187,1.208,4.213,3.394,4.525  c0.192,0.027,0.382,0.041,0.571,0.041c1.958,0,3.67-1.44,3.955-3.435l4.571-32C38.986,115.378,39,115.189,39,115V90  c0-1.515-0.856-2.9-2.211-3.578l-2.306-1.153C37.252,82.71,39,79.06,39,75c0-7.72-6.28-14-14-14s-14,6.28-14,14  c0,4.06,1.748,7.71,4.517,10.27l-2.306,1.153C11.856,87.1,11,88.485,11,90v25c0,0.189,0.014,0.378,0.04,0.565L15.611,147.565z   M25,69c3.309,0,6,2.691,6,6c0,3.308-2.69,5.999-5.999,6C25,81,25,81,24.999,81C21.69,80.999,19,78.308,19,75  C19,71.691,21.691,69,25,69z" id="family"/></svg>