<?xml version="1.0" ?><!DOCTYPE svg  PUBLIC '-//W3C//DTD SVG 1.0//EN'  'http://www.w3.org/TR/2001/REC-SVG-20010904/DTD/svg10.dtd'><svg height="160px" id="icon" style="enable-background:new 0 0 160 160;" version="1.0" viewBox="0 0 160 160" width="160px" xml:space="preserve" xmlns="http://www.w3.org/2000/svg" xmlns:xlink="http://www.w3.org/1999/xlink"><path fill="#ffb500" d="M99,125c0,2.209-1.791,4-4,4H75c-2.209,0-4-1.791-4-4s1.791-4,4-4h20C97.209,121,99,122.791,99,125z M64,120.5  c0,15.99-13.01,29-29,29s-29-13.01-29-29s13.01-29,29-29S64,104.51,64,120.5z M56,120.5c0-11.579-9.421-21-21-21s-21,9.421-21,21  s9.421,21,21,21S56,132.079,56,120.5z M154,125.5c0,13.233-10.767,24-24,24s-24-10.767-24-24s10.767-24,24-24S154,112.267,154,125.5  z M146,125.5c0-8.822-7.178-16-16-16s-16,7.178-16,16s7.178,16,16,16S146,134.322,146,125.5z M35,76.5  c-4.464,0-8.824,0.664-12.974,1.938L32.796,49h34.432l14.027,37.404C81.84,87.966,83.333,89,85,89h43.343l8.829,8.828  C137.952,98.609,138.977,99,140,99s2.048-0.391,2.828-1.172c1.563-1.562,1.563-4.095,0-5.656l-10-10  C132.078,81.422,131.061,81,130,81h-6V60c0-2.209-1.791-4-4-4s-4,1.791-4,4v21H87.772L73.745,43.596C73.16,42.034,71.667,41,70,41  H30c-1.679,0-3.18,1.049-3.757,2.627L11.798,83.109c-2.834,1.766-5.491,3.859-7.91,6.278c-1.563,1.562-1.563,4.095,0,5.656  c1.563,1.563,4.096,1.563,5.656,0c2.024-2.024,4.252-3.771,6.63-5.235c0.578-0.18,1.107-0.487,1.553-0.904  C22.962,86.032,28.862,84.5,35,84.5c9.616,0,18.656,3.745,25.456,10.544c0.78,0.781,1.805,1.172,2.828,1.172  s2.047-0.391,2.828-1.172c1.563-1.562,1.563-4.095,0-5.656C57.803,81.077,46.753,76.5,35,76.5z M35,115.5  c-1.32,0-2.61,0.529-3.53,1.46c-0.939,0.93-1.47,2.22-1.47,3.54c0,1.319,0.54,2.609,1.47,3.529c0.92,0.94,2.21,1.471,3.53,1.471  c1.319,0,2.6-0.53,3.54-1.471c0.93-0.92,1.46-2.21,1.46-3.529c0-1.32-0.53-2.601-1.46-3.54C37.6,116.029,36.319,115.5,35,115.5z   M130,119.5c-1.32,0-2.61,0.54-3.54,1.47s-1.46,2.21-1.46,3.53c0,1.31,0.53,2.6,1.46,3.54c0.93,0.93,2.22,1.46,3.54,1.46  c1.319,0,2.6-0.53,3.54-1.46c0.93-0.94,1.46-2.221,1.46-3.54c0-1.32-0.53-2.61-1.46-3.53C132.6,120.04,131.319,119.5,130,119.5z" id="tractor"/></svg>