<?xml version="1.0" ?><!DOCTYPE svg  PUBLIC '-//W3C//DTD SVG 1.0//EN'  'http://www.w3.org/TR/2001/REC-SVG-20010904/DTD/svg10.dtd'><svg height="160px" id="icon" style="enable-background:new 0 0 160 160;" version="1.0" viewBox="0 0 160 160" width="160px" xml:space="preserve" xmlns="http://www.w3.org/2000/svg" xmlns:xlink="http://www.w3.org/1999/xlink"><path fill="#ffb500" d="M135,41c-2.438,0-4.732,0.629-6.73,1.73c-0.067-0.097-0.12-0.199-0.197-0.291l-12.5-15  c-1.415-1.696-3.936-1.926-5.633-0.513c-1.697,1.415-1.927,3.937-0.512,5.634l12.5,15c0.236,0.283,0.511,0.513,0.8,0.714  C121.628,50.271,121,52.563,121,55c0,7.72,6.28,14,14,14s14-6.28,14-14S142.72,41,135,41z M135,61c-3.309,0-6-2.691-6-6s2.691-6,6-6  s6,2.691,6,6S138.309,61,135,61z M109,40v13.343l8.829,8.829C118.579,62.922,119,63.939,119,65v25c0,1.618-0.975,3.076-2.469,3.695  C116.036,93.9,115.516,94,115.001,94c-1.041,0-2.064-0.406-2.83-1.172L94.21,74.867l-17.421,8.711  c-1.976,0.987-4.379,0.187-5.367-1.789c-0.988-1.977-0.187-4.379,1.789-5.367l20-10c1.539-0.77,3.4-0.469,4.618,0.75L111,80.343  V66.657l-8.829-8.829C101.421,57.078,101,56.061,101,55V40c0-2.209,1.791-4,4-4S109,37.791,109,40z M126.205,81.265  c-0.698-2.096,0.434-4.36,2.53-5.06l15-5c2.098-0.698,4.361,0.434,5.06,2.53c0.698,2.096-0.434,4.36-2.53,5.06l-15,5  c-0.42,0.14-0.847,0.207-1.266,0.207C128.325,84.002,126.764,82.941,126.205,81.265z M149,100c0,1.722-1.102,3.25-2.735,3.795  l-14.493,4.832l-14.553,9.701c-0.677,0.451-1.449,0.672-2.217,0.672c-1.033,0-2.057-0.398-2.83-1.172L90,95.657l-22.171,22.171  c-1.563,1.563-4.095,1.563-5.657,0c-1.562-1.562-1.562-4.095,0-5.656l25-25c1.563-1.563,4.095-1.563,5.657,0l22.681,22.681  l10.49-6.993V90c0-2.209,1.791-4,4-4s4,1.791,4,4v9.45l7-2.333V85c0-2.209,1.791-4,4-4s4,1.791,4,4V100z M15,11h90  c1.386,0,2.674,0.718,3.403,1.897c0.729,1.179,0.795,2.651,0.175,3.892l-15,30C92.9,48.144,91.515,49,90,49h-7.528l-49.895,99.789  c-0.701,1.401-2.113,2.213-3.581,2.213c-0.602,0-1.211-0.137-1.786-0.424c-1.976-0.988-2.776-3.391-1.789-5.367l51-102  C77.1,41.856,78.485,41,80,41h7.528l11-22H15c-2.209,0-4-1.791-4-4S12.791,11,15,11z" id="climbing"/></svg>