<?xml version="1.0" ?><!DOCTYPE svg  PUBLIC '-//W3C//DTD SVG 1.0//EN'  'http://www.w3.org/TR/2001/REC-SVG-20010904/DTD/svg10.dtd'><svg height="160px" id="icon" style="enable-background:new 0 0 160 160;" version="1.0" viewBox="0 0 160 160" width="160px" xml:space="preserve" xmlns="http://www.w3.org/2000/svg" xmlns:xlink="http://www.w3.org/1999/xlink"><path fill="#ffb500" d="M81,149c32.533,0,59-26.467,59-59s-26.467-59-59-59S22,57.467,22,90S48.467,149,81,149z M85,39.172  c26.257,2.049,47,24.054,47,50.828c0,12.711-4.685,24.341-12.405,33.281c-0.19-0.399-0.436-0.779-0.766-1.11L85,88.343V39.172z   M85,99.657l28.171,28.171c0.331,0.331,0.711,0.576,1.11,0.766c-7.992,6.902-18.137,11.364-29.281,12.233V99.657z M77,140.828  c-11.145-0.87-21.289-5.332-29.281-12.233c0.399-0.19,0.779-0.436,1.11-0.766L77,99.657V140.828z M77,39.172v49.171l-33.829,33.829  c-0.331,0.331-0.576,0.711-0.766,1.11C34.685,114.341,30,102.711,30,90C30,63.226,50.743,41.221,77,39.172z" id="peace"/></svg>