<?xml version="1.0" ?><!DOCTYPE svg  PUBLIC '-//W3C//DTD SVG 1.0//EN'  'http://www.w3.org/TR/2001/REC-SVG-20010904/DTD/svg10.dtd'><svg height="160px" id="icon" style="enable-background:new 0 0 160 160;" version="1.0" viewBox="0 0 160 160" width="160px" xml:space="preserve" xmlns="http://www.w3.org/2000/svg" xmlns:xlink="http://www.w3.org/1999/xlink"><path fill="#ffb500" d="M12.525,51.857c-1.325,1.043-1.854,2.807-1.32,4.408l20,60C31.75,117.898,33.278,119,35,119h90  c1.722,0,3.25-1.102,3.795-2.735l20-60c0.533-1.601,0.005-3.364-1.32-4.408c-1.327-1.044-3.165-1.144-4.595-0.25l-36.27,22.668  L83.578,28.211C82.9,26.856,81.515,26,80,26s-2.9,0.856-3.578,2.211L53.39,74.276L17.12,51.608  C15.689,50.715,13.853,50.813,12.525,51.857z M52.88,83.392c0.956,0.598,2.122,0.764,3.203,0.458  c1.085-0.305,1.991-1.054,2.495-2.062L80,38.944l21.422,42.845c0.504,1.008,1.41,1.756,2.495,2.062  c1.082,0.305,2.247,0.139,3.203-0.458l30.567-19.105L122.117,111H37.883l-15.57-46.713L52.88,83.392z M83.54,11.47  C84.47,12.39,85,13.68,85,15c0,1.32-0.53,2.61-1.46,3.54C82.6,19.47,81.319,20,80,20c-1.32,0-2.61-0.53-3.54-1.46  C75.53,17.61,75,16.32,75,15c0-1.32,0.53-2.61,1.46-3.53C77.39,10.53,78.68,10,80,10C81.319,10,82.6,10.53,83.54,11.47z   M11.46,43.54C10.53,42.6,10,41.32,10,40c0-1.32,0.53-2.6,1.46-3.54C12.39,35.53,13.68,35,15,35c1.31,0,2.6,0.53,3.54,1.46  C19.47,37.4,20,38.68,20,40c0,1.32-0.53,2.6-1.46,3.54C17.6,44.47,16.31,45,15,45C13.68,45,12.39,44.47,11.46,43.54z M31,145  c0-2.209,1.791-4,4-4h90c2.209,0,4,1.791,4,4s-1.791,4-4,4H35C32.791,149,31,147.209,31,145z M148.53,36.46  C149.47,37.4,150,38.69,150,40c0,1.32-0.53,2.61-1.47,3.53C147.6,44.47,146.319,45,145,45c-1.311,0-2.601-0.53-3.54-1.47  C140.53,42.61,140,41.32,140,40c0-1.32,0.53-2.61,1.46-3.54c0.939-0.93,2.22-1.46,3.54-1.46C146.319,35,147.609,35.53,148.53,36.46z   M31,130c0-2.209,1.791-4,4-4h90c2.209,0,4,1.791,4,4s-1.791,4-4,4H35C32.791,134,31,132.209,31,130z" id="crown"/></svg>