<?xml version="1.0" ?><!DOCTYPE svg  PUBLIC '-//W3C//DTD SVG 1.0//EN'  'http://www.w3.org/TR/2001/REC-SVG-20010904/DTD/svg10.dtd'><svg height="160px" id="icon" style="enable-background:new 0 0 160 160;" version="1.0" viewBox="0 0 160 160" width="160px" xml:space="preserve" xmlns="http://www.w3.org/2000/svg" xmlns:xlink="http://www.w3.org/1999/xlink"><path fill="#ffb500" d="M80,35c-25.364,0-46,20.524-46,45.752c0,2.209-1.791,4-4,4s-4-1.791-4-4C26,51.113,50.224,27,80,27  s54,24.113,54,53.752c0,2.209-1.791,4-4,4s-4-1.791-4-4C126,55.524,105.364,35,80,35z M111,144V94c0-2.209,1.791-4,4-4  c15.991,0,29,13.01,29,29s-13.009,29-29,29C112.791,148,111,146.209,111,144z M119,98.393v41.215c9.671-1.875,17-10.396,17-20.607  S128.671,100.268,119,98.393z M45,90c2.209,0,4,1.791,4,4v50c0,2.209-1.791,4-4,4c-15.991,0-29-13.01-29-29S29.009,90,45,90z   M41,139.607V98.393c-9.671,1.875-17,10.396-17,20.607S31.329,137.732,41,139.607z" id="headphones"/></svg>