<?xml version="1.0" ?><!DOCTYPE svg  PUBLIC '-//W3C//DTD SVG 1.0//EN'  'http://www.w3.org/TR/2001/REC-SVG-20010904/DTD/svg10.dtd'><svg height="160px" id="icon" style="enable-background:new 0 0 160 160;" version="1.0" viewBox="0 0 160 160" width="160px" xml:space="preserve" xmlns="http://www.w3.org/2000/svg" xmlns:xlink="http://www.w3.org/1999/xlink"><path fill="#ffb500" d="M124.976,12.538C115.282,4.902,100.879,1.134,80.99,1.012C80.951,1.011,80.914,1,80.875,1  c-0.088,0-0.172,0.007-0.26,0.007C80.408,1.006,80.209,1,80,1C59.591,1,44.88,4.774,35.024,12.538C25.719,19.869,21,30.791,21,45  c0,14.353,11.676,36.076,22.603,51.621C48.942,104.216,67.347,129,80,129c0.125,0,0.25-0.008,0.375-0.016  c0.188,0.014,0.357,0.016,0.5,0.016c0.462,0,0.898-0.094,1.311-0.238c12.496-2.503,29.172-24.973,34.212-32.142  C127.324,81.076,139,59.353,139,45C139,30.791,134.281,19.869,124.976,12.538z M50.147,92.02C37.301,73.744,29,55.288,29,45  c0-12.265,3.334-27.736,27.561-33.599C49.055,19.999,46,32.737,46,45c0,11.393,5.062,30.422,13.538,50.905  c2.787,6.733,5.239,12.077,7.402,16.349C61.99,107.413,56.196,100.625,50.147,92.02z M76,112.176C67.3,95.939,54,62.608,54,45  c0-10.049,2.27-32.453,22-35.613V112.176z M84,9.279C105.706,12.248,106.875,39.32,106.875,45c0,18.608-14.258,52.325-22.875,68.086  V9.279z M109.853,92.02c-5.716,8.132-11.206,14.643-15.97,19.419c2.349-4.67,4.787-9.973,7.117-15.514  c4.172-9.924,13.875-34.753,13.875-50.925c0-11.748-3.069-24.627-10.638-33.4C127.739,17.607,131,32.871,131,45  C131,55.288,122.699,73.745,109.853,92.02z M74,145v6h12v-6c0-2.209,1.791-4,4-4s4,1.791,4,4v10c0,2.209-1.791,4-4,4H70  c-2.209,0-4-1.791-4-4v-10c0-2.209,1.791-4,4-4S74,142.791,74,145z" id="baloon"/></svg>