<?xml version="1.0" ?><!DOCTYPE svg  PUBLIC '-//W3C//DTD SVG 1.0//EN'  'http://www.w3.org/TR/2001/REC-SVG-20010904/DTD/svg10.dtd'><svg height="160px" id="icon" style="enable-background:new 0 0 160 160;" version="1.0" viewBox="0 0 160 160" width="160px" xml:space="preserve" xmlns="http://www.w3.org/2000/svg" xmlns:xlink="http://www.w3.org/1999/xlink"><path fill="#ffb500" d="M40,69c-2.209,0-4-1.791-4-4s1.791-4,4-4h15c2.209,0,4,1.791,4,4s-1.791,4-4,4H40z M80,126h-5  c-2.209,0-4,1.791-4,4s1.791,4,4,4h5c2.209,0,4-1.791,4-4S82.209,126,80,126z M108.124,81.403L72.394,108.2  c-0.104,0.078-0.216,0.138-0.326,0.205c-0.052,0.032-0.101,0.068-0.155,0.098c-0.249,0.137-0.507,0.244-0.772,0.323  c-0.017,0.005-0.031,0.015-0.048,0.02l-35,10c-1.452,0.415-3.015-0.023-4.039-1.134c-1.024-1.11-1.336-2.703-0.805-4.117  l14.984-39.958c0.28-0.776,0.803-1.473,1.542-1.966c0.699-0.466,1.488-0.693,2.273-0.672h54.396l-2.811-8.433l-13.858-9.239  c-1.838-1.225-2.335-3.709-1.109-5.547c1.224-1.839,3.707-2.336,5.547-1.109l15,10c0.74,0.493,1.295,1.219,1.576,2.063l4.981,14.943  l14.969,39.918c0.776,2.068-0.272,4.374-2.341,5.149c-0.462,0.174-0.937,0.256-1.404,0.256c-1.62,0-3.144-0.991-3.746-2.597  L108.124,81.403z M57.468,79l13.508,20.263L97.994,79H57.468z M63.626,102.659L50.998,83.716l-9.472,25.257L63.626,102.659z   M138.016,83.583c-2.041-0.847-4.381,0.122-5.227,2.163s0.122,4.381,2.163,5.227C144.7,95.015,150.999,104.446,151,115  c-0.001,14.336-11.665,26-26.001,26c-14.337,0-26.001-11.664-26.001-26.001c-0.001-3.447,0.663-6.795,1.971-9.951  c0.846-2.041-0.122-4.381-2.163-5.227c-2.04-0.848-4.381,0.122-5.227,2.163c-1.714,4.133-2.583,8.513-2.582,13.017  c0,18.748,15.253,34,34.001,34c18.747,0,34-15.252,34.001-34C158.999,101.2,150.762,88.868,138.016,83.583z M35,149  c9.082,0,17.62-3.537,24.042-9.959c1.562-1.562,1.562-4.095,0-5.657c-1.562-1.562-4.094-1.562-5.657,0  C48.474,138.295,41.945,141,35,141s-13.474-2.705-18.385-7.616C11.705,128.474,9,121.945,9,115s2.705-13.474,7.615-18.384  c1.563-1.562,1.563-4.094,0-5.657c-1.562-1.562-4.094-1.562-5.657,0C4.537,97.38,1,105.918,1,115s3.537,17.62,9.958,24.041  C17.38,145.463,25.918,149,35,149z" id="bicykle"/></svg>