<?xml version="1.0" ?><!DOCTYPE svg  PUBLIC '-//W3C//DTD SVG 1.0//EN'  'http://www.w3.org/TR/2001/REC-SVG-20010904/DTD/svg10.dtd'><svg height="160px" id="icon" style="enable-background:new 0 0 160 160;" version="1.0" viewBox="0 0 160 160" width="160px" xml:space="preserve" xmlns="http://www.w3.org/2000/svg" xmlns:xlink="http://www.w3.org/1999/xlink"><path fill="#ffb500" d="M113.54,56.46C114.47,57.4,115,58.68,115,60c0,1.31-0.53,2.6-1.46,3.54C112.6,64.47,111.31,65,110,65  c-1.32,0-2.601-0.53-3.54-1.46C105.53,62.6,105,61.32,105,60c0-1.32,0.53-2.61,1.46-3.54c0.93-0.93,2.22-1.46,3.54-1.46  C111.319,55,112.609,55.53,113.54,56.46z M116.46,46.46C115.53,47.4,115,48.69,115,50c0,1.32,0.53,2.6,1.46,3.54  c0.93,0.93,2.22,1.46,3.54,1.46c1.319,0,2.6-0.53,3.53-1.46C124.47,52.61,125,51.32,125,50c0-1.32-0.53-2.6-1.47-3.54  C122.6,45.53,121.319,45,120,45C118.68,45,117.39,45.53,116.46,46.46z M28.211,111.422l-10,5c-1.976,0.988-2.776,3.391-1.789,5.367  c0.701,1.401,2.113,2.212,3.581,2.212c0.601,0,1.212-0.136,1.786-0.423l10-5c1.976-0.988,2.776-3.391,1.789-5.367  C32.59,111.236,30.187,110.434,28.211,111.422z M147.828,52.829l-48.544,48.544l4.661,27.969c0.188,1.121-0.111,2.269-0.822,3.157  l-20,25C82.359,158.455,81.206,159,80,159c-0.17,0-0.341-0.011-0.512-0.033c-1.385-0.179-2.576-1.067-3.144-2.343L56.97,113.03  L13.375,93.655c-1.204-0.535-2.068-1.629-2.308-2.925c-0.241-1.296,0.172-2.627,1.104-3.559l20-20  c0.89-0.891,2.145-1.311,3.395-1.131l33.02,4.717l48.586-48.586C117.922,21.421,118.939,21,120,21h25c2.209,0,4,1.791,4,4v25  C149,51.061,148.578,52.078,147.828,52.829z M141,29h-19.343L72.829,77.829c-0.891,0.89-2.15,1.308-3.395,1.131l-33.02-4.717  L21.947,88.71l19.86,8.827l5.362-5.363c0.001,0,0.001-0.001,0.002-0.002l5-5c1.563-1.562,4.095-1.562,5.657,0  c1.562,1.563,1.562,4.095,0,5.657l-5,5c-0.001,0.001-0.002,0.001-0.002,0.002l-3.187,3.187l11.985,5.327  c0.905,0.402,1.628,1.126,2.031,2.031l5.327,11.986l3.187-3.188c0.001,0,0.001-0.001,0.002-0.002l5-5  c1.562-1.561,4.096-1.562,5.657,0c1.563,1.563,1.563,4.095,0,5.657l-5,5c-0.001,0.001-0.002,0.001-0.002,0.002l-5.363,5.362  l8.521,19.173l14.776-18.47l-4.706-28.238c-0.213-1.274,0.203-2.573,1.117-3.486L141,48.343V29z M48.211,153.578  c0.575,0.287,1.185,0.423,1.786,0.423c1.467,0,2.88-0.811,3.581-2.212l5-10c0.988-1.976,0.187-4.379-1.789-5.367  c-1.976-0.986-4.378-0.187-5.367,1.789l-5,10C45.435,150.187,46.235,152.59,48.211,153.578z M42.171,122.171l-15,15  c-1.562,1.563-1.562,4.095,0,5.657C27.953,143.609,28.976,144,30,144s2.047-0.391,2.829-1.171l15-15  c1.562-1.563,1.562-4.095,0-5.657C46.266,120.61,43.734,120.61,42.171,122.171z" id="rocket"/></svg>