<?xml version="1.0" ?><!DOCTYPE svg  PUBLIC '-//W3C//DTD SVG 1.0//EN'  'http://www.w3.org/TR/2001/REC-SVG-20010904/DTD/svg10.dtd'><svg height="160px" id="icon" style="enable-background:new 0 0 160 160;" version="1.0" viewBox="0 0 160 160" width="160px" xml:space="preserve" xmlns="http://www.w3.org/2000/svg" xmlns:xlink="http://www.w3.org/1999/xlink"><path fill="#ffb500" d="M31,55v90c0,2.209,1.791,4,4,4h90c2.209,0,4-1.791,4-4V55c0-2.209-1.791-4-4-4H35C32.791,51,31,52.791,31,55  z M39,141V88.858C39.321,88.941,39.652,89,40,89h81v52H39z M121,59v22H40c-0.348,0-0.679,0.059-1,0.142V59H121z M46.46,73.54  C45.53,72.6,45,71.319,45,70c0-1.32,0.53-2.601,1.46-3.54C47.4,65.53,48.68,65,50,65c1.32,0,2.6,0.53,3.54,1.46  C54.47,67.399,55,68.68,55,70c0,1.319-0.53,2.6-1.46,3.54C52.6,74.47,51.32,75,50,75C48.68,75,47.4,74.47,46.46,73.54z M91,40v-1H69  v1c0,2.209-1.791,4-4,4s-4-1.791-4-4v-5c0-2.209,1.791-4,4-4h30c2.209,0,4,1.791,4,4v5c0,2.209-1.791,4-4,4S91,42.209,91,40z   M53.54,96.46C54.47,97.399,55,98.68,55,100c0,1.31-0.53,2.6-1.46,3.53C52.61,104.47,51.32,105,50,105c-1.32,0-2.61-0.53-3.54-1.47  C45.53,102.6,45,101.319,45,100c0-1.32,0.53-2.61,1.46-3.54C47.39,95.53,48.68,95,50,95C51.32,95,52.61,95.53,53.54,96.46z   M53.54,111.46c0.93,0.939,1.46,2.229,1.46,3.54c0,1.31-0.53,2.6-1.46,3.54C52.61,119.47,51.32,120,50,120  c-1.31,0-2.6-0.53-3.54-1.46C45.53,117.6,45,116.31,45,115c0-1.311,0.53-2.601,1.46-3.54c0.93-0.93,2.22-1.46,3.54-1.46  C51.32,110,52.61,110.53,53.54,111.46z M53.54,126.46c0.93,0.93,1.46,2.22,1.46,3.54c0,1.319-0.53,2.6-1.46,3.53  C52.6,134.47,51.32,135,50,135c-1.32,0-2.6-0.53-3.54-1.47C45.53,132.6,45,131.319,45,130c0-1.32,0.53-2.61,1.46-3.54  c0.93-0.93,2.22-1.46,3.54-1.46C51.32,125,52.61,125.53,53.54,126.46z M68.54,96.46C69.47,97.39,70,98.68,70,100  c0,1.319-0.53,2.609-1.47,3.53C67.61,104.47,66.32,105,65,105c-1.32,0-2.6-0.53-3.54-1.47C60.53,102.6,60,101.319,60,100  c0-1.32,0.53-2.61,1.46-3.54C62.39,95.53,63.68,95,65,95C66.32,95,67.61,95.53,68.54,96.46z M68.54,111.46  c0.93,0.939,1.46,2.229,1.46,3.54c0,1.31-0.53,2.6-1.46,3.54C67.6,119.47,66.31,120,65,120c-1.32,0-2.61-0.53-3.54-1.46  C60.53,117.6,60,116.319,60,115c0-1.32,0.53-2.61,1.46-3.54c0.93-0.93,2.22-1.46,3.54-1.46C66.32,110,67.61,110.53,68.54,111.46z   M68.53,126.46c0.94,0.93,1.47,2.22,1.47,3.54c0,1.31-0.53,2.6-1.47,3.53C67.61,134.47,66.32,135,65,135c-1.32,0-2.6-0.53-3.54-1.47  C60.53,132.6,60,131.319,60,130c0-1.32,0.53-2.61,1.46-3.54C62.4,125.53,63.68,125,65,125C66.32,125,67.61,125.53,68.53,126.46z   M83.54,96.46C84.47,97.39,85,98.68,85,100c0,1.319-0.53,2.6-1.46,3.53C82.61,104.47,81.32,105,80,105c-1.32,0-2.61-0.53-3.53-1.47  C75.53,102.609,75,101.319,75,100c0-1.32,0.53-2.61,1.47-3.54C77.39,95.53,78.68,95,80,95C81.32,95,82.61,95.53,83.54,96.46z   M83.54,111.46c0.93,0.939,1.46,2.229,1.46,3.54c0,1.31-0.53,2.6-1.46,3.54C82.61,119.47,81.32,120,80,120  c-1.31,0-2.6-0.53-3.54-1.46C75.53,117.6,75,116.31,75,115c0-1.311,0.53-2.601,1.46-3.54c0.93-0.93,2.22-1.46,3.54-1.46  C81.32,110,82.61,110.53,83.54,111.46z M83.54,126.46c0.93,0.93,1.46,2.22,1.46,3.54c0,1.31-0.53,2.6-1.46,3.53  C82.6,134.47,81.32,135,80,135c-1.31,0-2.6-0.53-3.53-1.47C75.53,132.6,75,131.31,75,130c0-1.32,0.53-2.61,1.47-3.54  C77.4,125.53,78.68,125,80,125C81.32,125,82.6,125.53,83.54,126.46z M98.54,96.46c0.93,0.939,1.46,2.22,1.46,3.54  c0,1.31-0.53,2.6-1.46,3.53C97.61,104.47,96.32,105,95,105c-1.32,0-2.61-0.53-3.54-1.47C90.53,102.6,90,101.319,90,100  c0-1.32,0.53-2.61,1.46-3.54C92.39,95.53,93.68,95,95,95C96.32,95,97.61,95.53,98.54,96.46z M98.54,111.46  c0.93,0.939,1.46,2.229,1.46,3.54c0,1.31-0.53,2.6-1.46,3.54C97.6,119.47,96.31,120,95,120c-1.32,0-2.61-0.53-3.54-1.46  C90.53,117.6,90,116.319,90,115c0-1.32,0.53-2.61,1.46-3.54c0.93-0.93,2.22-1.46,3.54-1.46C96.32,110,97.61,110.53,98.54,111.46z   M98.54,126.46c0.93,0.93,1.46,2.22,1.46,3.54c0,1.319-0.53,2.6-1.46,3.53C97.6,134.47,96.32,135,95,135c-1.32,0-2.6-0.53-3.54-1.47  C90.53,132.6,90,131.319,90,130c0-1.32,0.53-2.61,1.46-3.54c0.93-0.93,2.22-1.46,3.54-1.46C96.32,125,97.6,125.53,98.54,126.46z   M113.54,96.46c0.93,0.93,1.46,2.22,1.46,3.54c0,1.319-0.53,2.609-1.47,3.53c-0.92,0.939-2.21,1.47-3.53,1.47  c-1.32,0-2.6-0.53-3.54-1.47c-0.93-0.931-1.46-2.211-1.46-3.53c0-1.32,0.53-2.61,1.46-3.54c0.93-0.93,2.22-1.46,3.54-1.46  C111.32,95,112.61,95.53,113.54,96.46z M113.54,111.46c0.93,0.939,1.46,2.229,1.46,3.54c0,1.31-0.53,2.6-1.46,3.54  c-0.93,0.93-2.22,1.46-3.54,1.46c-1.31,0-2.6-0.53-3.54-1.46c-0.93-0.94-1.46-2.23-1.46-3.54c0-1.311,0.53-2.601,1.46-3.54  c0.93-0.93,2.22-1.46,3.54-1.46C111.32,110,112.61,110.53,113.54,111.46z M113.54,126.46c0.93,0.93,1.46,2.22,1.46,3.54  c0,1.319-0.53,2.6-1.46,3.53c-0.94,0.939-2.22,1.47-3.54,1.47c-1.32,0-2.6-0.53-3.54-1.47c-0.93-0.931-1.46-2.211-1.46-3.53  c0-1.32,0.53-2.61,1.46-3.54c0.94-0.93,2.22-1.46,3.54-1.46C111.32,125,112.61,125.53,113.54,126.46z" id="amplifier"/></svg>