<?xml version="1.0" ?><!DOCTYPE svg  PUBLIC '-//W3C//DTD SVG 1.0//EN'  'http://www.w3.org/TR/2001/REC-SVG-20010904/DTD/svg10.dtd'><svg height="160px" id="icon" style="enable-background:new 0 0 160 160;" version="1.0" viewBox="0 0 160 160" width="160px" xml:space="preserve" xmlns="http://www.w3.org/2000/svg" xmlns:xlink="http://www.w3.org/1999/xlink"><path fill="#ffb500" d="M105,120c1.319,0,2.609,0.529,3.53,1.46c0.939,0.939,1.47,2.229,1.47,3.54c0,1.319-0.53,2.6-1.47,3.54  C107.6,129.47,106.31,130,105,130c-1.32,0-2.601-0.53-3.54-1.46c-0.93-0.931-1.46-2.221-1.46-3.54c0-1.32,0.53-2.601,1.46-3.54  C102.39,120.529,103.68,120,105,120z M120,121c-2.209,0-4,1.791-4,4s1.791,4,4,4h25c2.209,0,4-1.791,4-4V45c0-2.209-1.791-4-4-4H15  c-2.209,0-4,1.791-4,4v80c0,2.209,1.791,4,4,4h61v12H55c-2.209,0-4,1.791-4,4s1.791,4,4,4h50c2.209,0,4-1.791,4-4s-1.791-4-4-4H84  v-12h6c2.209,0,4-1.791,4-4s-1.791-4-4-4H19V49h122v72H120z" id="tv"/></svg>