<?xml version="1.0" ?><!DOCTYPE svg  PUBLIC '-//W3C//DTD SVG 1.0//EN'  'http://www.w3.org/TR/2001/REC-SVG-20010904/DTD/svg10.dtd'><svg height="160px" id="icon" style="enable-background:new 0 0 160 160;" version="1.0" viewBox="0 0 160 160" width="160px" xml:space="preserve" xmlns="http://www.w3.org/2000/svg" xmlns:xlink="http://www.w3.org/1999/xlink"><path fill="#ffb500" d="M137.828,72.829C137.048,73.609,136.023,74,135,74s-2.048-0.391-2.828-1.171  c-1.563-1.563-1.563-4.095,0-5.657c8.227-8.227,8.227-21.116,0-29.343c-8.228-8.227-21.116-8.227-29.344,0  c-1.561,1.562-4.096,1.562-5.656,0c-1.563-1.563-1.563-4.095,0-5.657c11.398-11.398,29.258-11.398,40.656,0  C149.227,43.571,149.227,61.43,137.828,72.829z M22.171,147.828c5.477,5.478,12.697,8.495,20.329,8.494  c7.632,0,14.851-3.017,20.329-8.494c1.562-1.563,1.562-4.095,0-5.657c-1.563-1.562-4.095-1.562-5.657,0  c-3.966,3.966-9.177,6.151-14.671,6.151c-5.495,0-10.706-2.184-14.671-6.15c-8.227-8.228-8.227-21.117,0-29.343  c1.562-1.563,1.562-4.095,0-5.657c-1.563-1.562-4.095-1.562-5.657,0C10.773,118.57,10.773,136.429,22.171,147.828z M62.171,117.829  C62.953,118.609,63.976,119,65,119s2.047-0.391,2.829-1.171c1.562-1.563,1.562-4.095,0-5.657l-10-10  c-1.563-1.562-4.095-1.562-5.657,0c-1.562,1.563-1.562,4.095,0,5.657L62.171,117.829z M50,79.343L69.343,60l-2.171-2.171  c-1.562-1.563-1.562-4.095,0-5.657l15-15c1.561-1.562,4.096-1.562,5.656,0l10,10c1.563,1.563,1.563,4.095,0,5.657l-15,15  C82.048,68.609,81.023,69,80,69c-1.024,0-2.047-0.391-2.829-1.171L75,65.657L55.657,85l2.171,2.171c1.562,1.563,1.562,4.095,0,5.657  l-15,15C42.047,108.609,41.024,109,40,109s-2.047-0.391-2.829-1.171l-10-10c-1.562-1.563-1.562-4.095,0-5.657l15-15  c1.563-1.562,4.095-1.562,5.657,0L50,79.343z M75.657,55l2.169,2.169c0,0.001,0.001,0.001,0.002,0.002s0.001,0.002,0.002,0.002  L80,59.343L89.343,50L85,45.657L75.657,55z M49.343,90l-2.169-2.169c0-0.001-0.001-0.001-0.002-0.002s-0.001-0.002-0.002-0.002  L45,85.657L35.657,95L40,99.343L49.343,90z M62.171,132.829c-1.562-1.563-1.562-4.095,0-5.657l15-15  c1.562-1.561,4.096-1.562,5.657,0L85,114.343L104.344,95l-2.172-2.171c-1.563-1.563-1.563-4.095,0-5.657l15-15  c1.561-1.562,4.096-1.562,5.656,0l10,10c1.563,1.563,1.563,4.095,0,5.657l-15,15c-0.78,0.781-1.805,1.171-2.828,1.171  s-2.048-0.391-2.828-1.171L110,100.657L90.656,120l2.172,2.171c1.563,1.563,1.563,4.095,0,5.657l-15,15  C77.047,143.609,76.024,144,75,144s-2.047-0.391-2.829-1.171L62.171,132.829z M110.657,90L115,94.343L124.343,85L120,80.657  L110.657,90z M70.657,130L75,134.343L84.343,125L80,120.657L70.657,130z M92.172,62.171c-1.563,1.563-1.563,4.095,0,5.657l10,10  C102.952,78.609,103.977,79,105,79s2.048-0.391,2.828-1.171c1.563-1.563,1.563-4.095,0-5.657l-10-10  C96.268,60.61,93.732,60.61,92.172,62.171z" id="skateboard"/></svg>