<?xml version="1.0" ?><!DOCTYPE svg  PUBLIC '-//W3C//DTD SVG 1.0//EN'  'http://www.w3.org/TR/2001/REC-SVG-20010904/DTD/svg10.dtd'><svg height="160px" id="icon" style="enable-background:new 0 0 160 160;" version="1.0" viewBox="0 0 160 160" width="160px" xml:space="preserve" xmlns="http://www.w3.org/2000/svg" xmlns:xlink="http://www.w3.org/1999/xlink"><path fill="#ffb500" d="M129,145V35c0-2.209-1.791-4-4-4H35c-2.209,0-4,1.791-4,4v110c0,2.209,1.791,4,4,4h90  C127.209,149,129,147.209,129,145z M121,141H39V39h82V141z M76.46,133.529C75.53,132.6,75,131.31,75,130  c0-1.311,0.53-2.601,1.46-3.54C77.4,125.529,78.68,125,80,125c1.319,0,2.6,0.529,3.53,1.46C84.47,127.399,85,128.689,85,130  c0,1.31-0.53,2.6-1.47,3.529C82.609,134.46,81.319,135,80,135C78.68,135,77.39,134.46,76.46,133.529z" id="tablet"/></svg>