<?xml version="1.0" ?><!DOCTYPE svg  PUBLIC '-//W3C//DTD SVG 1.0//EN'  'http://www.w3.org/TR/2001/REC-SVG-20010904/DTD/svg10.dtd'><svg height="160px" id="icon" style="enable-background:new 0 0 160 160;" version="1.0" viewBox="0 0 160 160" width="160px" xml:space="preserve" xmlns="http://www.w3.org/2000/svg" xmlns:xlink="http://www.w3.org/1999/xlink"><path fill="#ffb500" d="M80,31c-2.209,0-4,1.791-4,4v13.534l-54.054,63.882c-0.086,0.103-0.166,0.21-0.241,0.321  c-0.009,0.012-0.019,0.023-0.027,0.036c-0.002,0.003-0.004,0.005-0.006,0.008l-10,15c-1.226,1.838-0.729,4.322,1.109,5.547  c1.839,1.225,4.322,0.728,5.547-1.109L21,128.211V145c0,2.209,1.791,4,4,4h45c1.933,0,3.59-1.382,3.936-3.285L80,112.361  l6.064,33.354C86.41,147.618,88.066,149,90,149h45c2.209,0,4-1.791,4-4v-16.789l2.672,4.008c0.771,1.156,2.039,1.782,3.332,1.782  c0.762,0,1.533-0.218,2.215-0.672c1.838-1.225,2.335-3.709,1.109-5.547l-10-15c-0.002-0.003-0.004-0.005-0.006-0.008  c-0.009-0.012-0.019-0.023-0.027-0.036c-0.075-0.111-0.154-0.219-0.241-0.321L84,48.534V35C84,32.791,82.209,31,80,31z M93.338,141  l-9.402-51.715C83.59,87.382,81.934,86,80,86c-1.933,0-3.59,1.382-3.936,3.285L66.662,141H29v-24.535l51-60.272l51,60.272V141  H93.338z M156.789,131.422c1.976,0.988,2.776,3.391,1.789,5.367l-5,10c-0.701,1.401-2.114,2.212-3.581,2.212  c-0.602,0-1.212-0.136-1.786-0.423c-1.976-0.988-2.776-3.391-1.789-5.367l5-10C152.411,131.235,154.813,130.435,156.789,131.422z   M1.422,136.789c-0.988-1.976-0.187-4.379,1.789-5.367c1.976-0.988,4.378-0.187,5.367,1.789l5,10  c0.988,1.976,0.187,4.379-1.789,5.367c-0.574,0.287-1.185,0.423-1.786,0.423c-1.467,0-2.88-0.811-3.581-2.212L1.422,136.789z" id="tent"/></svg>