<?xml version="1.0" ?><!DOCTYPE svg  PUBLIC '-//W3C//DTD SVG 1.0//EN'  'http://www.w3.org/TR/2001/REC-SVG-20010904/DTD/svg10.dtd'><svg height="160px" id="icon" style="enable-background:new 0 0 160 160;" version="1.0" viewBox="0 0 160 160" width="160px" xml:space="preserve" xmlns="http://www.w3.org/2000/svg" xmlns:xlink="http://www.w3.org/1999/xlink"><path fill="#ffb500" d="M35,59c7.72,0,14-6.28,14-14s-6.28-14-14-14s-14,6.28-14,14S27.28,59,35,59z M35,39c3.309,0,6,2.691,6,6  s-2.691,6-6,6s-6-2.691-6-6S31.691,39,35,39z M119,45c0-7.72-6.28-14-14-14s-14,6.28-14,14s6.28,14,14,14S119,52.72,119,45z M99,45  c0-3.309,2.691-6,6-6s6,2.691,6,6s-2.691,6-6,6S99,48.309,99,45z M64.081,21.107C62.275,21.533,61,23.145,61,25v24.056  l-9.578,19.155C51.145,68.767,51,69.379,51,70v25c0,1.061,0.421,2.078,1.171,2.829l19.541,19.541L83.528,141H67.471L43.578,93.213  c-0.046-0.091-0.095-0.181-0.147-0.269l-15-25.001c-0.751-1.252-2.14-1.99-3.583-1.939c-1.459,0.056-2.771,0.902-3.424,2.208l-15,30  c-0.988,1.977-0.187,4.379,1.789,5.367c1.978,0.988,4.379,0.188,5.367-1.789l11.741-23.482l11.172,18.622L58.527,141H25  c-2.209,0-4,1.791-4,4s1.791,4,4,4h39.988c0.005,0,0.009,0.001,0.014,0.001c0.003,0,0.006-0.001,0.008-0.001h24.979  c0.005,0,0.009,0.001,0.014,0.001c0.003,0,0.006-0.001,0.008-0.001h34.981c0.002,0,0.005,0,0.007,0s0.005,0,0.007,0H135  c2.209,0,4-1.791,4-4s-1.791-4-4-4h-6v-38.528l17.789-8.895C148.144,92.9,149,91.515,149,90s-0.856-2.9-2.211-3.578L119,72.528  v-4.645l27.265-9.088c2.096-0.699,3.228-2.964,2.53-5.06c-0.699-2.095-2.962-3.228-5.06-2.53l-30,10  C112.102,61.75,111,63.278,111,65v10c0,1.515,0.856,2.9,2.211,3.578L136.056,90L99,108.528V85c0-0.621-0.145-1.233-0.422-1.789  l-30-60C67.748,21.552,65.885,20.68,64.081,21.107z M121,129.938l-10.429-18.252L121,106.472V129.938z M69,41.944l22,44V115  c0,1.386,0.718,2.674,1.897,3.403c1.179,0.729,2.651,0.795,3.892,0.175l6.615-3.308L118.107,141H92.472l-13.895-27.789  c-0.192-0.384-0.445-0.735-0.749-1.04L59,93.343V70.944l9.578-19.155C68.855,51.233,69,50.621,69,50V41.944z" id="dance"/></svg>