<?xml version="1.0" ?><!DOCTYPE svg  PUBLIC '-//W3C//DTD SVG 1.0//EN'  'http://www.w3.org/TR/2001/REC-SVG-20010904/DTD/svg10.dtd'><svg height="160px" id="icon" style="enable-background:new 0 0 160 160;" version="1.0" viewBox="0 0 160 160" width="160px" xml:space="preserve" xmlns="http://www.w3.org/2000/svg" xmlns:xlink="http://www.w3.org/1999/xlink"><path fill="#ffb500" d="M121.47,71.54C120.53,70.6,120,69.319,120,68c0-1.32,0.53-2.601,1.47-3.54c0.92-0.93,2.21-1.46,3.53-1.46  c1.32,0,2.61,0.53,3.54,1.46c0.93,0.939,1.46,2.22,1.46,3.54c0,1.319-0.53,2.6-1.46,3.54C127.6,72.47,126.31,73,125,73  C123.68,73,122.4,72.47,121.47,71.54z M35,73c1.31,0,2.6-0.53,3.54-1.46C39.47,70.6,40,69.319,40,68c0-1.32-0.53-2.601-1.46-3.54  C37.61,63.53,36.32,63,35,63c-1.32,0-2.61,0.53-3.54,1.46C30.53,65.39,30,66.68,30,68c0,1.319,0.53,2.609,1.46,3.54  C32.4,72.47,33.69,73,35,73z M111,115c0-7.72,6.281-14,14-14c7.72,0,14,6.28,14,14c0,7.72-6.281,14-14,14  C117.28,129,111,122.72,111,115z M119,115c0,3.309,2.692,6,6,6s6-2.691,6-6c0-3.309-2.692-6-6-6S119,111.691,119,115z M49,115  c0,7.72-6.281,14-14,14c-7.72,0-14-6.28-14-14c0-7.72,6.281-14,14-14C42.72,101,49,107.28,49,115z M41,115c0-3.309-2.692-6-6-6  s-6,2.691-6,6c0,3.309,2.692,6,6,6S41,118.309,41,115z M70,124h20c2.209,0,4-1.791,4-4s-1.791-4-4-4H70c-2.209,0-4,1.791-4,4  S67.791,124,70,124z M125,88c1.32,0,2.6-0.53,3.53-1.46c0.94-0.931,1.47-2.221,1.47-3.54c0-1.32-0.53-2.61-1.47-3.54  C127.6,78.53,126.32,78,125,78c-1.32,0-2.61,0.53-3.54,1.46C120.53,80.399,120,81.68,120,83c0,1.319,0.53,2.609,1.46,3.54  C122.39,87.47,123.68,88,125,88z M35,88c1.32,0,2.61-0.53,3.54-1.46C39.47,85.6,40,84.319,40,83c0-1.311-0.53-2.601-1.46-3.54  C37.61,78.53,36.32,78,35,78c-1.32,0-2.6,0.53-3.53,1.46C30.53,80.39,30,81.68,30,83c0,1.319,0.53,2.609,1.47,3.54  C32.4,87.47,33.68,88,35,88z M70,139h20c2.209,0,4-1.791,4-4s-1.791-4-4-4H70c-2.209,0-4,1.791-4,4S67.791,139,70,139z M11,145V44  c0-2.209,1.791-4,4-4h40c2.209,0,4,1.791,4,4v101c0,2.209-1.791,4-4,4H15C12.791,149,11,147.209,11,145z M19,141h32V48H19V141z   M149,145c0,2.209-1.791,4-4,4h-40c-2.209,0-4-1.791-4-4V44c0-2.209,1.791-4,4-4h40c2.209,0,4,1.791,4,4V145z M141,48h-32v93h32V48z   M70,94h20c2.209,0,4-1.791,4-4s-1.791-4-4-4H70c-2.209,0-4,1.791-4,4S67.791,94,70,94z M70,109h20c2.209,0,4-1.791,4-4  s-1.791-4-4-4H70c-2.209,0-4,1.791-4,4S67.791,109,70,109z" id="stereo"/></svg>