<?xml version="1.0" ?><!DOCTYPE svg  PUBLIC '-//W3C//DTD SVG 1.0//EN'  'http://www.w3.org/TR/2001/REC-SVG-20010904/DTD/svg10.dtd'><svg height="160px" id="icon" style="enable-background:new 0 0 160 160;" version="1.0" viewBox="0 0 160 160" width="160px" xml:space="preserve" xmlns="http://www.w3.org/2000/svg" xmlns:xlink="http://www.w3.org/1999/xlink"><path fill="#ffb500" d="M105,150c-1.32,0-2.61-0.53-3.54-1.471c-0.93-0.92-1.46-2.21-1.46-3.529c0-1.32,0.53-2.61,1.47-3.54  c0.92-0.931,2.21-1.46,3.53-1.46c1.32,0,2.6,0.529,3.54,1.46c0.93,0.939,1.46,2.22,1.46,3.54c0,1.319-0.53,2.6-1.46,3.529  C107.6,149.47,106.32,150,105,150z M155,149h-35c-2.209,0-4-1.791-4-4s1.791-4,4-4h25.343l-12-12H26.657l-12,12H90  c2.209,0,4,1.791,4,4s-1.791,4-4,4H5c-1.618,0-3.076-0.975-3.695-2.47c-0.619-1.494-0.277-3.215,0.867-4.358L21,123.344V55  c0-2.209,1.791-4,4-4h110c2.209,0,4,1.791,4,4v68.344l18.829,18.828c1.144,1.144,1.486,2.864,0.867,4.358  C158.076,148.025,156.618,149,155,149z M29,121h102V59H29V121z" id="notebook"/></svg>