<?xml version="1.0" ?><!DOCTYPE svg  PUBLIC '-//W3C//DTD SVG 1.0//EN'  'http://www.w3.org/TR/2001/REC-SVG-20010904/DTD/svg10.dtd'><svg height="160px" id="icon" style="enable-background:new 0 0 160 160;" version="1.0" viewBox="0 0 160 160" width="160px" xml:space="preserve" xmlns="http://www.w3.org/2000/svg" xmlns:xlink="http://www.w3.org/1999/xlink"><path fill="#ffb500" d="M143.578,48.211C142.9,46.856,141.515,46,140,46c-0.402,0-8.522,0.091-17.687,6.762l-2.655-10.618l7.13-3.565  c1.976-0.988,2.776-3.391,1.789-5.367c-0.988-1.976-3.391-2.777-5.367-1.789l-20,10c-1.976,0.988-2.776,3.391-1.789,5.367  c0.701,1.401,2.113,2.212,3.581,2.212c0.601,0,1.212-0.136,1.786-0.423l5.54-2.77l3.791,15.161c0.027,0.109,0.072,0.209,0.107,0.313  c0.032,0.093,0.057,0.187,0.095,0.277c0.089,0.212,0.194,0.412,0.316,0.601c0.009,0.014,0.014,0.029,0.023,0.043  c0.14,0.211,0.301,0.402,0.475,0.581c0.013,0.014,0.021,0.029,0.035,0.043c0.038,0.037,0.082,0.063,0.12,0.098  c0.13,0.121,0.266,0.234,0.411,0.336c0.075,0.053,0.151,0.102,0.229,0.148c0.132,0.08,0.269,0.151,0.409,0.216  c0.083,0.038,0.164,0.077,0.249,0.109c0.158,0.06,0.321,0.104,0.486,0.144c0.067,0.017,0.133,0.039,0.201,0.052  c0.235,0.044,0.476,0.07,0.72,0.07c0.225,0,0.453-0.026,0.681-0.065c0.052-0.01,0.104-0.019,0.155-0.029  c0.046-0.01,0.092-0.014,0.137-0.025c0.084-0.021,0.158-0.061,0.239-0.086c0.138-0.044,0.275-0.088,0.409-0.147  c0.122-0.054,0.234-0.118,0.348-0.183c0.111-0.063,0.221-0.125,0.327-0.199c0.123-0.086,0.234-0.183,0.345-0.281  c0.063-0.055,0.132-0.097,0.191-0.156c5.944-5.944,11.747-7.887,14.853-8.521l11.952,23.904l-21.861,10.93  C122.817,67.333,103.286,51,80,51S37.183,67.333,32.228,89.141l-21.861-10.93l11.944-23.889c3.12,0.652,8.97,2.615,14.86,8.506  c0.06,0.06,0.129,0.102,0.191,0.156c0.111,0.099,0.222,0.195,0.345,0.281c0.105,0.074,0.216,0.136,0.327,0.199  c0.114,0.064,0.226,0.129,0.348,0.183c0.134,0.06,0.271,0.104,0.408,0.147c0.082,0.025,0.156,0.064,0.24,0.086  c0.046,0.012,0.091,0.016,0.137,0.025c0.052,0.011,0.103,0.02,0.155,0.029c0.228,0.039,0.456,0.065,0.681,0.065  c0.244,0,0.484-0.026,0.72-0.07c0.068-0.013,0.134-0.035,0.202-0.052c0.165-0.039,0.328-0.084,0.486-0.144  c0.085-0.032,0.167-0.071,0.25-0.109c0.141-0.064,0.277-0.136,0.409-0.216c0.078-0.047,0.154-0.096,0.229-0.148  c0.145-0.102,0.281-0.215,0.411-0.336c0.039-0.035,0.083-0.061,0.12-0.098c0.014-0.014,0.022-0.029,0.035-0.043  c0.174-0.179,0.335-0.37,0.475-0.581c0.009-0.014,0.014-0.029,0.023-0.043c0.121-0.188,0.226-0.389,0.315-0.601  c0.039-0.091,0.064-0.185,0.096-0.278c0.035-0.104,0.08-0.204,0.107-0.313l3.791-15.161l5.54,2.77  c0.575,0.287,1.185,0.423,1.786,0.423c1.467,0,2.88-0.811,3.581-2.212c0.988-1.977,0.187-4.379-1.789-5.367l-20-10  c-1.976-0.987-4.378-0.187-5.367,1.789c-0.988,1.977-0.187,4.379,1.789,5.367l7.13,3.565l-2.655,10.618  C28.522,46.091,20.402,46,20,46c-1.515,0-2.9,0.856-3.578,2.211l-15,30c-0.988,1.977-0.187,4.379,1.789,5.367l12.792,6.396  C16.002,89.982,16,89.991,16,90v46h-6c-2.209,0-4,1.791-4,4s1.791,4,4,4h20c2.209,0,4-1.791,4-4s-1.791-4-4-4h-6V93.973l7.063,3.531  C31.021,98.331,31,99.163,31,100c0,16.107,7.814,30.421,19.849,39.357l-2.927,5.854c-0.988,1.977-0.187,4.379,1.789,5.367  c0.575,0.287,1.185,0.423,1.786,0.423c1.467,0,2.88-0.811,3.581-2.212l2.597-5.193C64.375,147.041,71.961,149,80,149  s15.625-1.959,22.326-5.404l2.597,5.193c0.701,1.401,2.113,2.212,3.581,2.212c0.601,0,1.212-0.136,1.786-0.423  c1.976-0.988,2.776-3.391,1.789-5.367l-2.927-5.854C121.186,130.421,129,116.107,129,100c0-0.837-0.021-1.669-0.063-2.496  L136,93.973V136h-6c-2.209,0-4,1.791-4,4s1.791,4,4,4h20c2.209,0,4-1.791,4-4s-1.791-4-4-4h-6V90c0-0.009-0.002-0.018-0.002-0.025  l12.792-6.396c1.976-0.988,2.776-3.391,1.789-5.367L143.578,48.211z M80,141c-22.607,0-41-18.393-41-41s18.393-41,41-41  s41,18.393,41,41S102.607,141,80,141z" id="drums"/></svg>