<?xml version="1.0" ?><!DOCTYPE svg  PUBLIC '-//W3C//DTD SVG 1.0//EN'  'http://www.w3.org/TR/2001/REC-SVG-20010904/DTD/svg10.dtd'><svg height="160px" id="icon" style="enable-background:new 0 0 160 160;" version="1.0" viewBox="0 0 160 160" width="160px" xml:space="preserve" xmlns="http://www.w3.org/2000/svg" xmlns:xlink="http://www.w3.org/1999/xlink"><path fill="#ffb500" d="M36,115c0-2.209,1.791-4,4-4h10c2.209,0,4,1.791,4,4s-1.791,4-4,4H40C37.791,119,36,117.209,36,115z   M40,139h10c2.209,0,4-1.791,4-4s-1.791-4-4-4H40c-2.209,0-4,1.791-4,4S37.791,139,40,139z M40,99h10c2.209,0,4-1.791,4-4  s-1.791-4-4-4H40c-2.209,0-4,1.791-4,4S37.791,99,40,99z M40,79h10c2.209,0,4-1.791,4-4s-1.791-4-4-4H40c-2.209,0-4,1.791-4,4  S37.791,79,40,79z M95,60c-1.32,0-2.61,0.53-3.54,1.46C90.53,62.4,90,63.69,90,65c0,1.32,0.53,2.6,1.46,3.54  C92.39,69.47,93.68,70,95,70c1.32,0,2.61-0.53,3.54-1.46C99.47,67.6,100,66.32,100,65c0-1.31-0.53-2.6-1.46-3.54  C97.61,60.53,96.32,60,95,60z M109,75c0-2.209-1.791-4-4-4H95c-1.386,0-2.674,0.718-3.403,1.897  c-0.729,1.179-0.795,2.651-0.175,3.892l5,10c0.192,0.384,0.445,0.735,0.749,1.04l10,10C107.953,98.609,108.976,99,110,99  s2.047-0.391,2.829-1.171c1.562-1.563,1.562-4.095,0-5.657l-9.541-9.541L101.472,79H105C107.209,79,109,77.209,109,75z   M150.789,143.422l-13.419-6.71L67.829,67.171c-1.144-1.144-2.864-1.485-4.359-0.867C61.975,66.924,61,68.382,61,70v77  c0,2.209,1.791,4,4,4s4-1.791,4-4V79.657l63.171,63.172c0.304,0.304,0.655,0.557,1.04,0.749l14,7  c0.575,0.287,1.185,0.423,1.786,0.423c1.467,0,2.88-0.811,3.581-2.212C153.565,146.813,152.765,144.41,150.789,143.422z   M12.171,42.829C12.953,43.609,13.976,44,15,44s2.047-0.391,2.829-1.171L21,39.657V147c0,2.209,1.791,4,4,4s4-1.791,4-4V31.657  l16-16l27.171,27.172c1.563,1.562,4.095,1.562,5.657,0c1.562-1.563,1.562-4.095,0-5.657l-30-30c-1.563-1.562-4.095-1.562-5.657,0  l-20,20l-10,10C10.609,38.734,10.609,41.266,12.171,42.829z" id="playground"/></svg>