<?xml version="1.0" ?><!DOCTYPE svg  PUBLIC '-//W3C//DTD SVG 1.0//EN'  'http://www.w3.org/TR/2001/REC-SVG-20010904/DTD/svg10.dtd'><svg height="160px" id="icon" style="enable-background:new 0 0 160 160;" version="1.0" viewBox="0 0 160 160" width="160px" xml:space="preserve" xmlns="http://www.w3.org/2000/svg" xmlns:xlink="http://www.w3.org/1999/xlink"><path fill="#ffb500" d="M137.829,17.829l-70,70C67.047,88.609,66.024,89,65,89s-2.047-0.391-2.829-1.171l-40-40  c-1.562-1.563-1.562-4.095,0-5.657c1.563-1.562,4.095-1.562,5.657,0L65,79.343L74.343,70L22.171,17.829  c-1.562-1.563-1.562-4.095,0-5.657c1.563-1.562,4.095-1.562,5.657,0L80,64.343l52.171-52.171c1.563-1.562,4.095-1.562,5.657,0  C139.391,13.734,139.391,16.266,137.829,17.829z M80,149c-15.991,0-29-13.009-29-29s13.009-29,29-29s29,13.009,29,29  S95.991,149,80,149z M80,141c11.58,0,21-9.42,21-21s-9.42-21-21-21s-21,9.42-21,21S68.42,141,80,141z M84,110c0-2.209-1.791-4-4-4  c-7.72,0-14,6.28-14,14c0,2.209,1.791,4,4,4s4-1.791,4-4c0-3.309,2.691-6,6-6C82.209,114,84,112.209,84,110z M137.829,42.171  c-1.563-1.562-4.095-1.562-5.657,0l-40,40c-1.562,1.563-1.562,4.095,0,5.657C92.953,88.609,93.976,89,95,89s2.047-0.391,2.829-1.171  l40-40C139.391,46.266,139.391,43.734,137.829,42.171z" id="medal"/></svg>