<?xml version="1.0" ?><!DOCTYPE svg  PUBLIC '-//W3C//DTD SVG 1.0//EN'  'http://www.w3.org/TR/2001/REC-SVG-20010904/DTD/svg10.dtd'><svg height="160px" id="icon" style="enable-background:new 0 0 160 160;" version="1.0" viewBox="0 0 160 160" width="160px" xml:space="preserve" xmlns="http://www.w3.org/2000/svg" xmlns:xlink="http://www.w3.org/1999/xlink"><path fill="#ffb500" d="M158.578,31.789L149.473,50l9.105,18.211c0.987,1.976,0.187,4.379-1.789,5.367  c-0.574,0.287-1.185,0.423-1.786,0.423c-1.467,0-2.88-0.811-3.581-2.212l-7.974-15.947l-26.229,17.486  c-1.84,1.226-4.323,0.728-5.547-1.109c-1.226-1.838-0.729-4.321,1.109-5.547l29.115-19.41l9.525-19.051  c0.988-1.976,3.392-2.777,5.367-1.789C158.765,27.41,159.565,29.813,158.578,31.789z M3.211,73.578  c0.574,0.287,1.185,0.423,1.786,0.423c1.467,0,2.88-0.811,3.581-2.212l7.974-15.947l26.229,17.486  c1.838,1.225,4.321,0.729,5.547-1.109c1.226-1.838,0.729-4.321-1.109-5.547l-29.115-19.41L8.578,28.211  c-0.989-1.976-3.394-2.777-5.367-1.789c-1.976,0.988-2.776,3.391-1.789,5.367L10.527,50L1.422,68.211  C0.435,70.187,1.235,72.59,3.211,73.578z M6.177,86.176c-0.373-1.213-0.148-2.532,0.605-3.553S8.73,81,10,81h35  c0.05,0,0.098,0.009,0.146,0.01c0.073,0.002,0.145,0.009,0.217,0.015c0.182,0.017,0.359,0.045,0.535,0.086  c0.054,0.013,0.108,0.02,0.161,0.034c0.218,0.06,0.428,0.14,0.63,0.234c0.054,0.025,0.104,0.055,0.156,0.082  c0.159,0.083,0.312,0.176,0.458,0.279c0.05,0.035,0.1,0.068,0.147,0.106c0.181,0.14,0.352,0.291,0.506,0.461  c0.016,0.017,0.028,0.037,0.044,0.054c0.136,0.154,0.257,0.32,0.368,0.496c0.038,0.06,0.073,0.12,0.108,0.182  c0.032,0.058,0.07,0.111,0.101,0.171C54.93,95.916,66.677,103.5,80,103.5s25.07-7.584,31.422-20.289C112.1,81.856,113.485,81,115,81  h35c1.27,0,2.464,0.603,3.218,1.624s0.979,2.339,0.605,3.553c-3.954,12.851-11.165,23.831-20.722,32.319  c-0.039,0.04-0.067,0.085-0.108,0.124c-1.032,0.961-2.269,1.974-3.672,3.006C116.034,131.896,98.92,137.75,80,137.75  C44.794,137.75,15.816,117.506,6.177,86.176z M53.128,101.744c4.549,12.515,11.853,20.633,21.854,24.165  c16.964,5.99,37.956-2.552,48.584-9.985c9.181-6.857,16.376-16.019,20.775-26.924h-26.938c-7.969,14.138-21.781,22.5-37.403,22.5  C69.926,111.5,60.615,108.006,53.128,101.744z M15.659,89c7.862,19.488,24.65,33.407,45.75,38.557  C51.328,119.828,44.684,106.92,41.587,89H15.659z" id="hammock"/></svg>