<?xml version="1.0" ?><!DOCTYPE svg  PUBLIC '-//W3C//DTD SVG 1.0//EN'  'http://www.w3.org/TR/2001/REC-SVG-20010904/DTD/svg10.dtd'><svg height="160px" id="icon" style="enable-background:new 0 0 160 160;" version="1.0" viewBox="0 0 160 160" width="160px" xml:space="preserve" xmlns="http://www.w3.org/2000/svg" xmlns:xlink="http://www.w3.org/1999/xlink"><path fill="#ffb500" d="M45,105c1.31,0,2.6,0.529,3.54,1.46c0.93,0.939,1.46,2.229,1.46,3.54c0,1.31-0.53,2.6-1.46,3.54  C47.61,114.47,46.32,115,45,115c-1.32,0-2.61-0.53-3.53-1.46C40.53,112.6,40,111.31,40,110c0-1.32,0.53-2.61,1.47-3.54  C42.4,105.529,43.68,105,45,105z M60,95c0-1.32-0.53-2.601-1.46-3.54C57.6,90.529,56.32,90,55,90c-1.32,0-2.61,0.529-3.54,1.46  C50.53,92.399,50,93.68,50,95c0,1.319,0.53,2.609,1.46,3.529C52.4,99.47,53.69,100,55,100s2.6-0.53,3.54-1.471  C59.47,97.609,60,96.319,60,95z M60,125c1.32,0,2.6-0.53,3.53-1.46C64.47,122.6,65,121.31,65,120c0-1.311-0.53-2.601-1.47-3.54  C62.6,115.529,61.31,115,60,115c-1.32,0-2.6,0.529-3.54,1.46C55.53,117.399,55,118.689,55,120c0,1.31,0.53,2.6,1.46,3.54  C57.39,124.47,58.68,125,60,125z M128.791,31.21c-1.563-1.563-4.095-1.563-5.657,0c-1.562,1.562-1.562,4.095,0,5.656  c23.784,23.784,23.784,62.483,0,86.268c-23.783,23.783-62.483,23.783-86.267,0c-23.784-23.784-23.784-62.483,0-86.268  c1.562-1.562,1.562-4.095,0-5.656c-1.563-1.563-4.095-1.563-5.657,0C18.177,44.242,11,61.569,11,80s7.177,35.758,20.209,48.79  c6.072,6.071,13.007,10.76,20.41,14.091C51.233,143.496,51,144.219,51,145c0,2.209,1.791,4,4,4h50c2.209,0,4-1.791,4-4  c0-0.781-0.233-1.504-0.62-2.119c7.403-3.331,14.338-8.02,20.41-14.091C141.823,115.758,149,98.431,149,80  S141.823,44.242,128.791,31.21z M119,85c0,3.309,2.691,6,6,6c2.209,0,4,1.791,4,4s-1.791,4-4,4c-5.497,0-10.25-3.191-12.539-7.813  L92.058,103.43c-0.639,0.384-1.35,0.57-2.057,0.57c-1.035,0-2.059-0.4-2.83-1.172l-15-15c-1.562-1.562-1.562-4.095,0-5.656l15-15  c1.299-1.299,3.313-1.547,4.887-0.602l20.403,12.242C114.75,74.191,119.503,71,125,71c2.209,0,4,1.791,4,4s-1.791,4-4,4  C121.691,79,119,81.691,119,85z M107.226,85L90.62,75.037L80.657,85l9.963,9.963L107.226,85z M35,84c2.209,0,4-1.791,4-4  c0-10.951,4.265-21.247,12.008-28.992c1.562-1.563,1.562-4.095,0-5.656c-1.562-1.563-4.094-1.563-5.657,0  C36.097,54.606,31,66.912,31,80C31,82.209,32.791,84,35,84z" id="aquarium"/></svg>