<?xml version="1.0" ?><!DOCTYPE svg  PUBLIC '-//W3C//DTD SVG 1.0//EN'  'http://www.w3.org/TR/2001/REC-SVG-20010904/DTD/svg10.dtd'><svg height="160px" id="icon" style="enable-background:new 0 0 160 160;" version="1.0" viewBox="0 0 160 160" width="160px" xml:space="preserve" xmlns="http://www.w3.org/2000/svg" xmlns:xlink="http://www.w3.org/1999/xlink"><path fill="#ffb500" d="M80,121c2.209,0,4,1.791,4,4v10c0,2.209-1.791,4-4,4s-4-1.791-4-4v-10C76,122.791,77.791,121,80,121z   M107.248,111.692c0.096,0.065,0.175,0.146,0.263,0.218c0.112,0.09,0.229,0.174,0.33,0.276c0.095,0.097,0.171,0.206,0.256,0.31  c0.078,0.098,0.164,0.188,0.233,0.291c0.066,0.101,0.114,0.211,0.171,0.316c0.066,0.121,0.14,0.238,0.193,0.368  c0.05,0.12,0.077,0.247,0.115,0.371c0.037,0.122,0.085,0.241,0.11,0.368c0.053,0.258,0.08,0.521,0.08,0.789l0,0  c0,15.368-9.89,31.329-16.124,37.779C92.092,153.592,91.046,154,90,154c-1.001,0-2.003-0.373-2.779-1.123  c-1.589-1.536-1.632-4.068-0.097-5.656c4.236-4.384,12.689-16.957,13.761-29.611l-20.575-8.641C80.205,108.977,80.105,109,80,109  s-0.205-0.023-0.31-0.031l-20.579,8.643c1.072,12.863,9.659,25.503,13.717,29.561c1.563,1.562,1.563,4.095,0,5.656  C72.048,153.609,71.023,154,70,154s-2.048-0.391-2.828-1.172C60.919,146.576,51,130.777,51,115l0,0c0-0.268,0.027-0.531,0.08-0.789  c0.025-0.127,0.072-0.244,0.109-0.365c0.038-0.125,0.066-0.254,0.116-0.374c0.054-0.129,0.126-0.245,0.192-0.366  c0.058-0.107,0.105-0.217,0.172-0.318c0.07-0.104,0.156-0.195,0.234-0.292c0.084-0.104,0.16-0.213,0.255-0.309  c0.102-0.103,0.219-0.187,0.331-0.278c0.088-0.071,0.167-0.151,0.262-0.216c0.221-0.149,0.457-0.278,0.705-0.382L76,101.842V89H55  c-1.552,0-2.964-0.897-3.622-2.304c-0.658-1.405-0.444-3.064,0.549-4.257c0.925-1.119,22.509-27.869,0-54.879  c-0.993-1.192-1.207-2.852-0.549-4.257C52.036,21.897,53.448,21,55,21h60c1.16,0,2.263,0.504,3.022,1.38  c27.947,32.247,0.283,64.914,0,65.24C117.263,88.496,116.16,89,115,89H84v12.842l22.543,9.469  C106.791,111.414,107.027,111.543,107.248,111.692z M62.405,81h50.665c4.366-5.825,18.972-28.652,0.063-52H62.829  C76.077,50.33,68.141,70.863,62.405,81z M85,14c2.209,0,4-1.791,4-4s-1.791-4-4-4H75c-2.209,0-4,1.791-4,4s1.791,4,4,4H85z   M12.172,147.328c3.281,3.282,6.805,4.924,10.328,4.924s7.047-1.642,10.328-4.924c3.449-3.449,5.895-3.449,9.344,0  c1.561,1.563,4.096,1.563,5.656,0c1.563-1.562,1.563-4.095,0-5.656c-6.563-6.564-14.094-6.564-20.656,0  c-3.449,3.449-5.895,3.449-9.344,0c-1.561-1.563-4.096-1.563-5.656,0C10.609,143.233,10.609,145.767,12.172,147.328z   M117.828,147.328c3.449-3.449,5.895-3.449,9.344,0c3.281,3.282,6.805,4.924,10.328,4.924s7.047-1.642,10.328-4.924  c1.563-1.562,1.563-4.095,0-5.656c-1.561-1.563-4.096-1.563-5.656,0c-3.449,3.449-5.895,3.449-9.344,0  c-6.563-6.564-14.094-6.564-20.656,0c-1.563,1.562-1.563,4.095,0,5.656C113.732,148.891,116.268,148.891,117.828,147.328z" id="ship"/></svg>