<?xml version="1.0" ?><!DOCTYPE svg  PUBLIC '-//W3C//DTD SVG 1.0//EN'  'http://www.w3.org/TR/2001/REC-SVG-20010904/DTD/svg10.dtd'><svg height="160px" id="icon" style="enable-background:new 0 0 160 160;" version="1.0" viewBox="0 0 160 160" width="160px" xml:space="preserve" xmlns="http://www.w3.org/2000/svg" xmlns:xlink="http://www.w3.org/1999/xlink"><path fill="#ffb500" d="M17.172,147.829c-1.563-1.563-1.563-4.095,0-5.657c1.561-1.562,4.096-1.562,5.656,0  c3.449,3.449,5.895,3.449,9.344,0c6.563-6.563,14.094-6.563,20.656,0c1.711,1.711,3.283,2.579,4.672,2.579s2.961-0.868,4.672-2.579  c6.563-6.563,14.094-6.563,20.656,0c3.449,3.449,5.895,3.449,9.344,0c6.563-6.563,14.094-6.563,20.656,0  c3.449,3.449,5.895,3.449,9.344,0c6.563-6.563,14.094-6.563,20.656,0c1.563,1.563,1.563,4.095,0,5.657  c-1.561,1.562-4.096,1.562-5.656,0c-3.449-3.449-5.895-3.449-9.344,0c-3.281,3.282-6.805,4.923-10.328,4.923  s-7.047-1.641-10.328-4.923c-1.711-1.711-3.283-2.579-4.672-2.579s-2.961,0.868-4.672,2.579c-6.563,6.563-14.094,6.563-20.656,0  c-3.449-3.449-5.895-3.449-9.344,0c-6.563,6.563-14.094,6.563-20.656,0c-3.449-3.449-5.895-3.449-9.344,0  C31.266,154.392,23.734,154.392,17.172,147.829z M17.172,122.829c6.563,6.563,14.094,6.563,20.656,0  c3.449-3.449,5.895-3.449,9.344,0c6.563,6.563,14.094,6.563,20.656,0c3.449-3.449,5.895-3.449,9.344,0  c6.563,6.563,14.094,6.563,20.656,0c1.711-1.711,3.283-2.579,4.672-2.579s2.961,0.868,4.672,2.579  c3.281,3.282,6.805,4.923,10.328,4.923s7.047-1.641,10.328-4.923c3.449-3.449,5.895-3.449,9.344,0c1.561,1.562,4.096,1.562,5.656,0  c1.563-1.563,1.563-4.095,0-5.657c-6.563-6.563-14.094-6.563-20.656,0c-3.449,3.449-5.895,3.449-9.344,0  c-6.563-6.563-14.094-6.563-20.656,0c-3.449,3.449-5.895,3.449-9.344,0c-6.563-6.563-14.094-6.563-20.656,0  c-1.711,1.711-3.283,2.579-4.672,2.579s-2.961-0.868-4.672-2.579c-6.563-6.563-14.094-6.563-20.656,0  c-3.449,3.449-5.895,3.449-9.344,0c-1.561-1.562-4.096-1.562-5.656,0C15.609,118.734,15.609,121.266,17.172,122.829z M48.211,31.422  c21.855-10.927,59.365-5.213,70.367,16.789c0.987,1.976,0.187,4.379-1.789,5.367L74.367,74.789l14.211,28.422  c0.987,1.976,0.187,4.379-1.789,5.367c-0.574,0.287-1.185,0.423-1.786,0.423c-1.467,0-2.88-0.811-3.581-2.212L67.211,78.367  L26.789,98.578c-0.574,0.287-1.185,0.423-1.786,0.423c-1.467,0-2.88-0.811-3.581-2.212c-5.162-10.326-4.735-23.871,1.173-37.164  C28.104,47.231,37.68,36.688,48.211,31.422z M29.905,62.875c-4.219,9.492-5.172,18.947-2.806,26.604l82.206-41.103  C98.25,33.486,69.058,29.942,51.789,38.578C42.864,43.04,34.684,52.123,29.905,62.875z M44.53,28.54C45.47,27.6,46,26.32,46,25  c0-1.31-0.53-2.6-1.47-3.54C43.609,20.53,42.319,20,41,20c-1.32,0-2.601,0.53-3.54,1.46C36.53,22.39,36,23.68,36,25  c0,1.32,0.53,2.61,1.46,3.54C38.399,29.47,39.689,30,41,30C42.319,30,43.6,29.47,44.53,28.54z" id="beach"/></svg>