<?xml version="1.0" ?><!DOCTYPE svg  PUBLIC '-//W3C//DTD SVG 1.0//EN'  'http://www.w3.org/TR/2001/REC-SVG-20010904/DTD/svg10.dtd'><svg height="160px" id="icon" style="enable-background:new 0 0 160 160;" version="1.0" viewBox="0 0 160 160" width="160px" xml:space="preserve" xmlns="http://www.w3.org/2000/svg" xmlns:xlink="http://www.w3.org/1999/xlink"><path fill="#ffb500" d="M17.172,142.172c1.561-1.563,4.096-1.563,5.656,0c3.449,3.449,5.895,3.449,9.344,0  c6.563-6.564,14.094-6.564,20.656,0c1.711,1.711,3.283,2.578,4.672,2.578s2.961-0.867,4.672-2.578  c6.563-6.564,14.094-6.564,20.656,0c3.449,3.449,5.895,3.449,9.344,0c6.563-6.564,14.094-6.564,20.656,0  c3.449,3.449,5.895,3.449,9.344,0c6.563-6.564,14.094-6.564,20.656,0c1.563,1.562,1.563,4.095,0,5.656  c-1.561,1.563-4.096,1.563-5.656,0c-3.449-3.449-5.895-3.449-9.344,0c-3.281,3.282-6.805,4.924-10.328,4.924  s-7.047-1.642-10.328-4.924c-1.711-1.711-3.283-2.578-4.672-2.578s-2.961,0.867-4.672,2.578c-6.563,6.564-14.094,6.564-20.656,0  c-3.449-3.449-5.895-3.449-9.344,0c-6.563,6.564-14.094,6.564-20.656,0c-3.449-3.449-5.895-3.449-9.344,0  c-6.563,6.564-14.094,6.564-20.656,0C15.609,146.267,15.609,143.733,17.172,142.172z M17.172,122.828  c6.563,6.564,14.094,6.564,20.656,0c3.449-3.449,5.895-3.449,9.344,0c6.563,6.564,14.094,6.564,20.656,0  c1.698-1.698,3.153-2.557,4.604-2.582c0.023,0,0.047,0.006,0.07,0.006c0.017,0,0.034-0.007,0.051-0.007  c1.456,0.021,2.915,0.88,4.618,2.583c6.563,6.564,14.094,6.564,20.656,0c1.711-1.711,3.283-2.578,4.672-2.578  s2.961,0.867,4.672,2.578c3.281,3.282,6.805,4.924,10.328,4.924s7.047-1.642,10.328-4.924c3.449-3.449,5.895-3.449,9.344,0  c1.561,1.563,4.096,1.563,5.656,0c1.563-1.562,1.563-4.095,0-5.656c-6.563-6.564-14.094-6.564-20.656,0  c-3.449,3.449-5.895,3.449-9.344,0c-6.563-6.564-14.094-6.564-20.656,0c-3.449,3.449-5.895,3.449-9.344,0  c-0.373-0.373-0.75-0.719-1.129-1.049l25.09-12.545c1.976-0.988,2.776-3.391,1.789-5.367l-8.212-16.422l16.423-8.211  c1.976-0.988,2.776-3.391,1.789-5.367c-0.989-1.977-3.395-2.776-5.367-1.789l-20,10c-1.976,0.988-2.776,3.391-1.789,5.367  l8.212,16.422l-28.2,14.1c-3.166,0.298-6.312,1.91-9.262,4.861c-1.711,1.711-3.283,2.578-4.672,2.578s-2.961-0.867-4.672-2.578  c-6.563-6.564-14.094-6.564-20.656,0c-3.449,3.449-5.895,3.449-9.344,0c-1.561-1.563-4.096-1.563-5.656,0  C15.609,118.733,15.609,121.267,17.172,122.828z M125,81c7.72,0,14,6.28,14,14s-6.28,14-14,14s-14-6.28-14-14S117.28,81,125,81z   M125,89c-3.309,0-6,2.691-6,6s2.691,6,6,6s6-2.691,6-6S128.309,89,125,89z M40,16c2.209,0,4,1.791,4,4s-1.791,4-4,4  c-6.065,0-11,4.935-11,11v6h12v-6c0-2.52,0.486-4.968,1.444-7.276c0.955-2.306,2.341-4.378,4.118-6.157  c1.78-1.778,3.852-3.164,6.16-4.123c4.631-1.92,9.932-1.916,14.549-0.002c2.712,1.126,5.16,2.895,7.086,5.113  c1.646,1.895,2.883,4.063,3.675,6.445c0.223,0.67,0.24,1.354,0.117,2.002L140,31c2.209,0,4,1.791,4,4s-1.791,4-4,4l-80,0.002  c-2.209,0-4-1.791-4-4s1.791-4,4-4h10.238c-0.456-1.17-1.093-2.248-1.922-3.203c-1.12-1.291-2.54-2.316-4.109-2.968  c-2.66-1.102-5.75-1.104-8.42,0.003c-1.333,0.553-2.535,1.357-3.568,2.389c-1.027,1.03-1.831,2.23-2.385,3.566  C49.28,32.123,49,33.538,49,35v40c0,2.209-1.791,4-4,4s-4-1.791-4-4v-6H29v6c0,2.209-1.791,4-4,4s-4-1.791-4-4V35  C21,24.523,29.523,16,40,16z M29,49v12h12V49H29z M17.172,92.172c-1.563,1.562-1.563,4.095,0,5.656  c6.563,6.564,14.094,6.564,20.656,0c3.449-3.449,5.895-3.449,9.344,0c3.281,3.282,6.805,4.924,10.328,4.924  s7.047-1.642,10.328-4.924c1.711-1.711,3.283-2.578,4.672-2.578s2.961,0.867,4.672,2.578c1.561,1.563,4.096,1.563,5.656,0  c1.563-1.562,1.563-4.095,0-5.656c-6.563-6.564-14.094-6.564-20.656,0c-3.449,3.449-5.895,3.449-9.344,0  c-6.563-6.564-14.094-6.564-20.656,0c-1.711,1.711-3.283,2.578-4.672,2.578s-2.961-0.867-4.672-2.578  C21.268,90.609,18.732,90.609,17.172,92.172z" id="swimming_pool"/></svg>