<?xml version="1.0" ?><!DOCTYPE svg  PUBLIC '-//W3C//DTD SVG 1.0//EN'  'http://www.w3.org/TR/2001/REC-SVG-20010904/DTD/svg10.dtd'><svg height="160px" id="icon" style="enable-background:new 0 0 160 160;" version="1.0" viewBox="0 0 160 160" width="160px" xml:space="preserve" xmlns="http://www.w3.org/2000/svg" xmlns:xlink="http://www.w3.org/1999/xlink"><path fill="#ffb500" d="M70,111H20c-10.477,0-19,8.523-19,19s8.523,19,19,19h50c10.477,0,19-8.523,19-19S80.477,111,70,111z M70,141H20  c-6.065,0-11-4.935-11-11s4.935-11,11-11h50c6.065,0,11,4.935,11,11S76.065,141,70,141z M28.54,126.46  c0.93,0.939,1.46,2.229,1.46,3.54c0,1.31-0.53,2.6-1.46,3.54C27.6,134.47,26.31,135,25,135c-1.311,0-2.601-0.53-3.54-1.46  C20.53,132.6,20,131.319,20,130c0-1.311,0.53-2.601,1.46-3.54c0.93-0.931,2.22-1.46,3.54-1.46  C26.319,125,27.609,125.529,28.54,126.46z M48.53,126.46C49.47,127.399,50,128.68,50,130c0,1.319-0.53,2.609-1.47,3.54  C47.6,134.47,46.31,135,45,135c-1.32,0-2.61-0.53-3.53-1.46C40.53,132.609,40,131.319,40,130c0-1.32,0.53-2.601,1.47-3.54  c0.92-0.931,2.21-1.46,3.53-1.46C46.319,125,47.6,125.529,48.53,126.46z M68.53,126.46c0.93,0.939,1.47,2.22,1.47,3.54  c0,1.319-0.54,2.609-1.47,3.54C67.609,134.47,66.319,135,65,135c-1.311,0-2.601-0.53-3.54-1.46C60.53,132.609,60,131.319,60,130  c0-1.32,0.53-2.601,1.46-3.54c0.939-0.931,2.22-1.46,3.54-1.46C66.319,125,67.609,125.529,68.53,126.46z M158.632,93.324  c0.702,1.521,0.382,3.319-0.804,4.504l-15,15c-0.75,0.75-1.768,1.172-2.828,1.172h-20c-2.209,0-4-1.791-4-4V90c0-2.209,1.791-4,4-4  h15c2.209,0,4,1.791,4,4s-1.791,4-4,4h-11v12h14.343l11.856-11.856l-26.427-57.259l-65.944,65.943c-1.561,1.563-4.096,1.563-5.656,0  c-1.563-1.562-1.563-4.095,0-5.656L59.344,90L43.343,74H19v26c0,2.209-1.791,4-4,4s-4-1.791-4-4V70c0-2.209,1.791-4,4-4h30  c1.061,0,2.078,0.422,2.828,1.172L65,84.344l57.172-57.172c0.925-0.925,2.246-1.343,3.53-1.109c1.288,0.23,2.382,1.074,2.93,2.262  L158.632,93.324z" id="digger"/></svg>