<?xml version="1.0" ?><!DOCTYPE svg  PUBLIC '-//W3C//DTD SVG 1.0//EN'  'http://www.w3.org/TR/2001/REC-SVG-20010904/DTD/svg10.dtd'><svg height="160px" id="icon" style="enable-background:new 0 0 160 160;" version="1.0" viewBox="0 0 160 160" width="160px" xml:space="preserve" xmlns="http://www.w3.org/2000/svg" xmlns:xlink="http://www.w3.org/1999/xlink"><path fill="#ffb500" d="M30,91h18.215c-6.076-13.065-9.377-34.193,9.286-49.123c1.726-1.383,4.242-1.101,5.622,0.624  c1.381,1.726,1.101,4.242-0.624,5.622C47.01,60.515,50.989,77.185,54.897,86.26l16.524-33.049c0.988-1.977,3.392-2.777,5.367-1.789  s2.776,3.391,1.789,5.367L59,95.945v42.109L78.527,99H75c-2.209,0-4-1.791-4-4s1.791-4,4-4h12.527l23.001-46L96.904,17.753  C88,12.008,80.36,10.052,74.181,11.93c-5.42,1.649-8.518,6.015-9.789,8.236C65.913,23.413,70.486,31,80,31c2.209,0,4,1.791,4,4  s-1.791,4-4,4c-17.68,0-23.554-17.011-23.795-17.735c-0.299-0.897-0.271-1.872,0.081-2.75c0.176-0.438,4.422-10.778,15.439-14.2  c8.807-2.732,19.067-0.26,30.493,7.357c0.579,0.386,1.048,0.917,1.359,1.539l15,30c0.563,1.126,0.563,2.452,0,3.578L96.473,91H125  c2.209,0,4,1.791,4,4s-1.791,4-4,4H90.012c-0.005,0-0.01,0.001-0.015,0.001c-0.003,0-0.006-0.001-0.009-0.001h-2.516l-28.895,57.789  c-0.064,0.129-0.142,0.248-0.218,0.367c-0.021,0.031-0.036,0.066-0.058,0.098c-0.134,0.195-0.283,0.373-0.444,0.538  c-0.034,0.034-0.071,0.065-0.106,0.1c-0.137,0.13-0.281,0.249-0.434,0.357c-0.048,0.034-0.095,0.069-0.145,0.102  c-0.191,0.124-0.391,0.235-0.6,0.325c-0.03,0.014-0.063,0.021-0.094,0.033c-0.188,0.075-0.381,0.134-0.577,0.18  c-0.063,0.015-0.126,0.027-0.19,0.039c-0.235,0.043-0.474,0.073-0.716,0.073c-0.03,0-0.061-0.01-0.091-0.011  c-0.262-0.006-0.517-0.033-0.764-0.088c-0.08-0.018-0.157-0.051-0.237-0.073c-0.204-0.059-0.403-0.126-0.592-0.214  c-0.034-0.016-0.069-0.021-0.103-0.037c-0.074-0.037-0.135-0.089-0.205-0.13c-0.122-0.071-0.242-0.142-0.355-0.226  c-0.106-0.077-0.204-0.161-0.301-0.248c-0.095-0.084-0.187-0.168-0.272-0.262c-0.091-0.098-0.173-0.2-0.253-0.307  c-0.076-0.1-0.149-0.201-0.216-0.309c-0.067-0.109-0.127-0.222-0.184-0.337c-0.058-0.116-0.111-0.233-0.157-0.356  c-0.046-0.121-0.082-0.244-0.115-0.369c-0.033-0.123-0.064-0.244-0.086-0.371c-0.023-0.143-0.034-0.285-0.043-0.43  C51.019,155.154,51,155.08,51,155V99H30c-2.209,0-4-1.791-4-4S27.791,91,30,91z" id="parrot"/></svg>