<?xml version="1.0" ?><!DOCTYPE svg  PUBLIC '-//W3C//DTD SVG 1.0//EN'  'http://www.w3.org/TR/2001/REC-SVG-20010904/DTD/svg10.dtd'><svg height="160px" id="icon" style="enable-background:new 0 0 160 160;" version="1.0" viewBox="0 0 160 160" width="160px" xml:space="preserve" xmlns="http://www.w3.org/2000/svg" xmlns:xlink="http://www.w3.org/1999/xlink"><path fill="#ffb500" d="M78.211,148.695c0.563,0.282,1.176,0.422,1.789,0.422s1.226-0.141,1.789-0.422  C116.543,131.318,139,104.4,139,80.118C139,54.437,121.854,41,104.915,41C95.153,41,85.309,45.618,80,54.572  C74.691,45.618,64.847,41,55.085,41C38.146,41,21,54.437,21,80.118C21,104.4,43.457,131.318,78.211,148.695z M55.085,49  C65.158,49,76,55.608,76,70.118c0,2.209,1.791,4,4,4s4-1.791,4-4C84,55.608,94.842,49,104.915,49C117.479,49,131,58.738,131,80.118  c0,20.88-19.953,44.487-51,60.514c-31.047-16.027-51-39.634-51-60.514C29,58.738,42.521,49,55.085,49z M51,89h-6  c-2.209,0-4-1.791-4-4s1.791-4,4-4h6v-6c0-2.209,1.791-4,4-4s4,1.791,4,4v6h6c2.209,0,4,1.791,4,4s-1.791,4-4,4h-6v6  c0,2.209-1.791,4-4,4s-4-1.791-4-4V89z" id="health"/></svg>