<?xml version="1.0" ?><!DOCTYPE svg  PUBLIC '-//W3C//DTD SVG 1.0//EN'  'http://www.w3.org/TR/2001/REC-SVG-20010904/DTD/svg10.dtd'><svg height="160px" id="icon" style="enable-background:new 0 0 160 160;" version="1.0" viewBox="0 0 160 160" width="160px" xml:space="preserve" xmlns="http://www.w3.org/2000/svg" xmlns:xlink="http://www.w3.org/1999/xlink"><path fill="#ffb500" d="M120,21c-15.991,0-29,13.01-29,29s13.009,29,29,29s29-13.01,29-29S135.991,21,120,21z M120,71  c-11.58,0-21-9.421-21-21s9.42-21,21-21s21,9.421,21,21S131.58,71,120,71z M15,141h15.343l-3.172-3.172  c-1.562-1.562-1.562-4.095,0-5.656L34.343,125l-2.172-2.172c-1.51-1.51-1.567-3.938-0.131-5.519l50-55  c1.487-1.636,4.016-1.754,5.651-0.27c1.634,1.486,1.755,4.016,0.269,5.65l-47.435,52.178l4.85,4.851L102.6,81.8  c1.765-1.324,4.273-0.968,5.6,0.8c1.325,1.768,0.967,4.274-0.8,5.601l-60,45c-0.715,0.536-1.559,0.8-2.399,0.8  c-1.03,0-2.054-0.396-2.83-1.172L40,130.656L35.657,135l7.172,7.172c1.144,1.144,1.486,2.864,0.867,4.358  C43.076,148.025,41.618,149,40,149H15c-2.209,0-4-1.791-4-4S12.791,141,15,141z M134,50c0,7.72-6.28,14-14,14c-2.209,0-4-1.791-4-4  s1.791-4,4-4c3.309,0,6-2.691,6-6c0-2.209,1.791-4,4-4S134,47.791,134,50z" id="microphone"/></svg>