<?xml version="1.0" ?><!DOCTYPE svg  PUBLIC '-//W3C//DTD SVG 1.0//EN'  'http://www.w3.org/TR/2001/REC-SVG-20010904/DTD/svg10.dtd'><svg height="160px" id="icon" style="enable-background:new 0 0 160 160;" version="1.0" viewBox="0 0 160 160" width="160px" xml:space="preserve" xmlns="http://www.w3.org/2000/svg" xmlns:xlink="http://www.w3.org/1999/xlink"><path fill="#ffb500" d="M21.078,119.216l4.792-23.959l-4.664-13.992c-0.698-2.096,0.434-4.36,2.53-5.06  c2.098-0.699,4.361,0.435,5.06,2.53l5,15c0.22,0.66,0.264,1.366,0.127,2.049L29,120.396V147c0,2.209-1.791,4-4,4s-4-1.791-4-4v-27  C21,119.736,21.026,119.474,21.078,119.216z M113.211,118.578c0.575,0.287,1.185,0.423,1.786,0.423c1.467,0,2.88-0.811,3.581-2.212  c0.988-1.977,0.187-4.379-1.789-5.367l-20-10C96.233,101.145,95.621,101,95,101H55c-2.011,0-3.659,1.488-3.941,3.421l-9.618,18.754  C41.151,123.739,41,124.365,41,125v23c0,2.209,1.791,4,4,4s4-1.791,4-4v-22.034L57.7,109h24.556L91,126.924V148c0,2.209,1.791,4,4,4  s4-1.791,4-4v-22c0-0.607-0.139-1.207-0.405-1.754L91.158,109h2.897L113.211,118.578z M1.286,81.485l10,25  c0.82,2.052,3.148,3.054,5.199,2.229c2.051-0.82,3.049-3.148,2.229-5.199L9.693,80.963L26.227,64.43l17.803,4.451  C44.347,68.96,44.673,69,45,69h45c1.061,0,2.078-0.422,2.829-1.172l14.843-14.843L126,38.322V45c0,0.621,0.145,1.233,0.422,1.789  L140.528,75l-1.962,3.924L122.4,66.8c-1.072-0.804-2.476-1.017-3.738-0.569c-1.263,0.448-2.217,1.499-2.542,2.8l-5,20  c-0.309,1.233-0.012,2.54,0.799,3.52L130.495,115l-18.576,22.45c-1.409,1.702-1.17,4.224,0.531,5.632  c0.746,0.617,1.65,0.918,2.548,0.918c1.151,0,2.293-0.494,3.084-1.45l20.687-25c1.225-1.479,1.225-3.62,0-5.1l-19.397-23.442  l3.048-12.193L137.6,88.2c0.949,0.712,2.165,0.969,3.319,0.692c1.154-0.272,2.128-1.043,2.659-2.104l5-10  c0.563-1.126,0.563-2.452,0-3.578L134,44.056V30c0-1.538-0.881-2.939-2.267-3.605c-1.387-0.666-3.031-0.479-4.231,0.482l-25,20  c-0.116,0.092-0.226,0.19-0.33,0.295L88.343,61H45.493L25.97,56.119c-1.363-0.34-2.806,0.059-3.799,1.053l-20,20  C1.04,78.303,0.692,80,1.286,81.485z" id="horse"/></svg>