<?xml version="1.0" ?><!DOCTYPE svg  PUBLIC '-//W3C//DTD SVG 1.0//EN'  'http://www.w3.org/TR/2001/REC-SVG-20010904/DTD/svg10.dtd'><svg height="160px" id="icon" style="enable-background:new 0 0 160 160;" version="1.0" viewBox="0 0 160 160" width="160px" xml:space="preserve" xmlns="http://www.w3.org/2000/svg" xmlns:xlink="http://www.w3.org/1999/xlink"><path fill="#ffb500" d="M145.005,106.002c-0.001,0-0.003,0-0.005,0h-19.6c-12.719-2.603-22.695-7.58-30.8-13.502  c0.554-0.688,0.899-1.549,0.899-2.5c0-2.209-1.791-4-4-4h-4.748c-0.993-0.923-1.953-1.854-2.884-2.791  C84.854,82.479,85.5,81.318,85.5,80c0-2.209-1.791-4-4-4h-4.21c-0.691-0.814-1.365-1.625-2.021-2.43c1.317-0.654,2.231-2,2.231-3.57  c0-2.209-1.791-4-4-4h-4.229C62.638,57.527,57.214,51,50,51H15c-2.209,0-4,1.791-4,4c0,9.563-2.494,20.783-4.905,31.636  C3.613,97.802,1.048,109.344,1,119.707c-0.013,0.186-0.013,0.371,0,0.557V140c0,1.061,0.421,2.078,1.171,2.828  C4.027,144.684,11.915,149,45,149h80c0.43,0,0.857-0.069,1.265-0.205l30-10c2.096-0.699,3.229-2.964,2.53-5.06  c-0.698-2.098-2.969-3.224-5.06-2.53L124.351,141H45c-23.527,0-32.786-2.265-36-3.436v-11.516c4.927,1.497,13.063,2.97,26,2.97  c0.13,0,0.259-0.006,0.386-0.019h89.595c0.007,0,0.013,0.002,0.02,0.002s0.014-0.002,0.021-0.002  c24.717-0.003,31.36-4.725,32.808-6.172c0.75-0.75,1.172-1.768,1.172-2.828c0-3.74-1.456-7.256-4.101-9.899  C152.256,107.457,148.742,106.002,145.005,106.002z M35,121c-0.128,0-0.256,0.006-0.381,0.019  c-15.147-0.035-22.541-2.168-25.569-3.411c0.36-9.011,2.642-19.279,4.855-29.236c2.189-9.854,4.444-20,4.978-29.371H50  c3.652,0,8.406,6.086,13.91,13.131c10.597,13.564,26.435,33.83,57.09,41.088V121H35z M129,120.947v-6.945h16.001  c0.001,0,0.002,0,0.003,0c1.602,0,3.106,0.623,4.239,1.756c0.607,0.607,1.069,1.323,1.366,2.103  C147.913,118.932,141.662,120.643,129,120.947z M35,71c-7.72,0-14,6.28-14,14s6.28,14,14,14s14-6.28,14-14S42.72,71,35,71z M35,91  c-3.309,0-6-2.691-6-6s2.691-6,6-6s6,2.691,6,6S38.309,91,35,91z" id="converse"/></svg>