<?xml version="1.0" ?><!DOCTYPE svg  PUBLIC '-//W3C//DTD SVG 1.0//EN'  'http://www.w3.org/TR/2001/REC-SVG-20010904/DTD/svg10.dtd'><svg height="160px" id="icon" style="enable-background:new 0 0 160 160;" version="1.0" viewBox="0 0 160 160" width="160px" xml:space="preserve" xmlns="http://www.w3.org/2000/svg" xmlns:xlink="http://www.w3.org/1999/xlink"><path fill="#ffb500" d="M11.652,87.821c-0.123,0.188-0.232,0.385-0.321,0.591c-0.019,0.044-0.031,0.09-0.049,0.135  c-0.068,0.176-0.124,0.355-0.168,0.54c-0.016,0.066-0.03,0.132-0.042,0.2C11.029,89.521,11,89.758,11,90v40  c0,1.515,0.856,2.9,2.211,3.578l30,15c0.029,0.015,0.063,0.02,0.092,0.033c0.202,0.096,0.414,0.168,0.633,0.229  c0.063,0.018,0.121,0.043,0.184,0.058c0.284,0.064,0.577,0.104,0.881,0.104c0.007,0,0.013-0.002,0.02-0.002h69.961  c0.007,0,0.013,0.002,0.02,0.002c0.304,0,0.597-0.04,0.881-0.104c0.063-0.015,0.121-0.04,0.184-0.058  c0.219-0.061,0.431-0.133,0.633-0.229c0.029-0.014,0.063-0.019,0.092-0.033l30-15C148.144,132.9,149,131.515,149,130V90  c0-0.242-0.029-0.479-0.072-0.713c-0.012-0.068-0.026-0.134-0.042-0.2c-0.044-0.185-0.099-0.364-0.167-0.539  c-0.018-0.045-0.03-0.091-0.05-0.136c-0.089-0.206-0.198-0.402-0.321-0.591c-0.033-0.052-0.07-0.1-0.107-0.149  c-0.104-0.146-0.217-0.282-0.34-0.412c-0.041-0.043-0.079-0.088-0.121-0.129c-0.164-0.158-0.338-0.307-0.529-0.436  c-0.025-0.019-0.055-0.031-0.081-0.049c-0.123-0.08-0.247-0.158-0.38-0.225l-15.344-7.672l0.344-0.172  c1.149-0.575,1.953-1.668,2.159-2.938s-0.211-2.56-1.12-3.469l-15-15c-0.908-0.91-2.199-1.33-3.469-1.12  c-1.27,0.206-2.362,1.01-2.938,2.159l-10,20c-0.987,1.977-0.187,4.379,1.789,5.367c1.974,0.986,4.378,0.187,5.367-1.789  l7.518-15.036l7.151,7.151l-5.036,2.518c-1.976,0.988-2.776,3.391-1.789,5.367c0.701,1.401,2.114,2.213,3.581,2.213  c0.602,0,1.212-0.137,1.786-0.424l0.795-0.396c0.194,0.146,0.4,0.283,0.627,0.396L136.056,90l-22,11H45.944l-22-11l22-11H60  c1.061,0,2.078-0.422,2.828-1.172l11.076-11.075l7.518,15.036c0.988,1.976,3.393,2.775,5.367,1.789  c1.976-0.988,2.776-3.391,1.789-5.367l-10-20c-0.575-1.149-1.668-1.953-2.938-2.159c-1.269-0.208-2.56,0.21-3.469,1.12L58.343,71H45  c-0.621,0-1.233,0.145-1.789,0.422l-30,15c-0.133,0.066-0.257,0.145-0.38,0.225c-0.026,0.018-0.056,0.03-0.081,0.049  c-0.191,0.129-0.365,0.277-0.529,0.436c-0.042,0.041-0.08,0.086-0.121,0.129c-0.123,0.13-0.236,0.267-0.34,0.412  C11.723,87.722,11.686,87.77,11.652,87.821z M111,141H49v-32h62V141z M141,96.473v31.056l-22,10.999v-31.055L141,96.473z   M41,107.473v31.055l-22-10.999V96.473L41,107.473z M81,45c0,7.72,6.28,14,14,14s14-6.28,14-14s-6.28-14-14-14S81,37.28,81,45z   M101,45c0,3.309-2.691,6-6,6s-6-2.691-6-6s2.691-6,6-6S101,41.691,101,45z M57.828,22.828c-3.449,3.449-3.449,5.895,0,9.344  c1.563,1.562,1.563,4.095,0,5.656C57.048,38.609,56.023,39,55,39s-2.048-0.391-2.828-1.172c-6.564-6.563-6.564-14.093,0-20.656  c3.449-3.449,3.449-5.895,0-9.344c-1.563-1.562-1.563-4.095,0-5.656c1.561-1.563,4.096-1.563,5.656,0  C64.393,8.735,64.393,16.265,57.828,22.828z M37.172,47.172c3.449-3.449,3.449-5.895,0-9.344c-6.564-6.563-6.564-14.093,0-20.656  c1.561-1.563,4.096-1.563,5.656,0c1.563,1.562,1.563,4.095,0,5.656c-3.449,3.449-3.449,5.895,0,9.344  c6.564,6.563,6.564,14.093,0,20.656C42.048,53.609,41.023,54,40,54s-2.048-0.391-2.828-1.172  C35.609,51.267,35.609,48.733,37.172,47.172z" id="jacuzii"/></svg>