<?xml version="1.0" ?><!DOCTYPE svg  PUBLIC '-//W3C//DTD SVG 1.0//EN'  'http://www.w3.org/TR/2001/REC-SVG-20010904/DTD/svg10.dtd'><svg height="160px" id="icon" style="enable-background:new 0 0 160 160;" version="1.0" viewBox="0 0 160 160" width="160px" xml:space="preserve" xmlns="http://www.w3.org/2000/svg" xmlns:xlink="http://www.w3.org/1999/xlink"><path fill="#ffb500" d="M53.735,128.795c-2.096-0.699-3.229-2.964-2.53-5.06l5-15C56.75,107.102,58.278,106,60,106h40  c1.722,0,3.25,1.102,3.795,2.735l5,15c0.698,2.096-0.435,4.361-2.53,5.06c-0.419,0.14-0.846,0.206-1.266,0.206  c-1.675,0-3.235-1.06-3.794-2.736L97.117,114H62.883l-4.088,12.265C58.096,128.361,55.823,129.49,53.735,128.795z M44,95v-5  c0-2.209-1.791-4-4-4s-4,1.791-4,4v4.508l-8.801,35.2c-5.732-4.444-10.397-9.702-13.702-15.65c-1.072-1.931-3.507-2.626-5.439-1.554  c-1.932,1.073-2.627,3.508-1.555,5.439C18.773,140.029,46.937,153.75,80,153.75s61.227-13.721,73.497-35.808  c1.072-1.931,0.377-4.366-1.555-5.439c-1.931-1.072-4.365-0.377-5.439,1.554c-3.305,5.948-7.97,11.207-13.702,15.65L124.123,95  l3.297-13.186L142.6,93.2c0.949,0.711,2.168,0.966,3.319,0.693c1.154-0.272,2.128-1.043,2.659-2.104l5-10  c0.563-1.126,0.563-2.452,0-3.578L139,49.056V35c0-1.538-0.882-2.939-2.268-3.605c-1.386-0.666-3.03-0.479-4.231,0.482l-25,20  c-0.263,0.211-0.499,0.454-0.701,0.724L93,71H46.657l-8.829-8.829c-0.847-0.847-2.024-1.27-3.223-1.152  c-1.192,0.118-2.269,0.765-2.934,1.762l-10,15C21.233,78.438,21,79.21,21,80v20c0,2.209,1.791,4,4,4s4-1.791,4-4V81.211l6.622-9.933  l6.55,6.55C42.922,78.579,43.939,79,45,79h50c1.259,0,2.444-0.593,3.2-1.6l14.695-19.594L131,43.322V50  c0,0.621,0.145,1.233,0.422,1.789L145.528,80l-1.963,3.924L127.4,71.8c-1.072-0.804-2.476-1.017-3.738-0.569  c-1.264,0.448-2.218,1.5-2.543,2.799l-5,20c-0.159,0.637-0.159,1.303,0,1.94l9.621,38.483c-12.396,7.22-28.28,11.297-45.74,11.297  s-33.345-4.077-45.74-11.297l9.621-38.483C43.96,95.653,44,95.327,44,95z" id="rocking_horse"/></svg>