<?xml version="1.0" ?><!DOCTYPE svg  PUBLIC '-//W3C//DTD SVG 1.0//EN'  'http://www.w3.org/TR/2001/REC-SVG-20010904/DTD/svg10.dtd'><svg height="160px" id="icon" style="enable-background:new 0 0 160 160;" version="1.0" viewBox="0 0 160 160" width="160px" xml:space="preserve" xmlns="http://www.w3.org/2000/svg" xmlns:xlink="http://www.w3.org/1999/xlink"><path fill="#ffb500" d="M140,121H30c-2.209,0-4,1.791-4,4v0.5c0,1.078,0.436,2.111,1.208,2.864l20,19.5  C47.955,148.593,48.957,149,50,149h70c1.061,0,2.078-0.422,2.828-1.172l20-20c1.145-1.144,1.486-2.864,0.867-4.358  C143.076,121.975,141.618,121,140,121z M118.343,141H51.627l-12.308-12h91.023L118.343,141z M145,109H85c-2.209,0-4-1.791-4-4  s1.791-4,4-4h50.343L69,34.657V110c0,2.209-1.791,4-4,4s-4-1.791-4-4V41.944L31.472,101H45c2.209,0,4,1.791,4,4s-1.791,4-4,4H25  c-1.387,0-2.674-0.718-3.402-1.897c-0.729-1.179-0.795-2.651-0.176-3.892L61,24.055V20c0-2.209,1.791-4,4-4s4,1.791,4,4v3.344  l78.828,78.828c1.145,1.144,1.486,2.864,0.867,4.358C148.076,108.025,146.618,109,145,109z" id="sailboat"/></svg>