<?xml version="1.0" ?><!DOCTYPE svg  PUBLIC '-//W3C//DTD SVG 1.0//EN'  'http://www.w3.org/TR/2001/REC-SVG-20010904/DTD/svg10.dtd'><svg height="160px" id="icon" style="enable-background:new 0 0 160 160;" version="1.0" viewBox="0 0 160 160" width="160px" xml:space="preserve" xmlns="http://www.w3.org/2000/svg" xmlns:xlink="http://www.w3.org/1999/xlink"><path fill="#ffb500" d="M96.843,67.456c-1.356-1.744-1.042-4.257,0.701-5.613l45-35c1.745-1.358,4.258-1.043,5.613,0.701  c1.356,1.744,1.042,4.257-0.701,5.613l-45,35c-0.73,0.568-1.595,0.843-2.453,0.843C98.811,69,97.631,68.47,96.843,67.456z   M83.53,88.54C84.47,87.6,85,86.31,85,85c0-1.311-0.53-2.601-1.47-3.54C82.6,80.53,81.319,80,80,80c-1.32,0-2.6,0.53-3.53,1.46  C75.53,82.399,75,83.689,75,85c0,1.319,0.53,2.6,1.47,3.54C77.4,89.47,78.68,90,80,90C81.31,90,82.6,89.47,83.53,88.54z   M93.53,78.54C94.47,77.6,95,76.319,95,75c0-1.32-0.53-2.61-1.47-3.54C92.609,70.53,91.319,70,90,70c-1.32,0-2.61,0.53-3.54,1.46  C85.53,72.399,85,73.68,85,75c0,1.31,0.53,2.6,1.46,3.54C87.39,79.47,88.68,80,90,80C91.319,80,92.609,79.47,93.53,78.54z M149,45  c0-1.618-0.975-3.076-2.47-3.695c-1.491-0.618-3.215-0.277-4.358,0.867L43.343,141H26.77L19,132.453v-21.767l18.792-18.322  c1.057-1.031,1.46-2.56,1.049-3.978L30.324,59H64.44L51.502,97.6l-19.349,19.59c-1.552,1.571-1.537,4.104,0.035,5.656  c1.572,1.553,4.104,1.538,5.657-0.035l20-20.25c0.429-0.434,0.752-0.961,0.946-1.539l15-44.75c0.409-1.221,0.206-2.563-0.545-3.607  C72.495,51.619,71.287,51,70,51H25c-1.258,0-2.442,0.592-3.198,1.598c-0.755,1.005-0.994,2.308-0.644,3.516l9.333,32.197  l-18.283,17.825C11.436,106.889,11,107.922,11,109v25c0,0.995,0.371,1.954,1.04,2.69l10,11c0.758,0.834,1.833,1.31,2.96,1.31h20  c1.061,0,2.078-0.422,2.829-1.172L141,54.657V80c0,2.209,1.791,4,4,4s4-1.791,4-4V45z" id="saxophone"/></svg>