<?xml version="1.0" ?><!DOCTYPE svg  PUBLIC '-//W3C//DTD SVG 1.0//EN'  'http://www.w3.org/TR/2001/REC-SVG-20010904/DTD/svg10.dtd'><svg height="160px" id="icon" style="enable-background:new 0 0 160 160;" version="1.0" viewBox="0 0 160 160" width="160px" xml:space="preserve" xmlns="http://www.w3.org/2000/svg" xmlns:xlink="http://www.w3.org/1999/xlink"><path fill="#ffb500" d="M38.28,48.281c5.528-5.528,11.967-9.836,19.138-12.803c2.042-0.846,4.381,0.125,5.226,2.167  s-0.126,4.381-2.167,5.225c-6.194,2.563-11.759,6.287-16.54,11.069c-19.885,19.885-19.884,52.24,0.001,72.125  C53.57,135.696,66.378,141,80,141c13.623,0,26.43-5.305,36.063-14.938C125.694,116.43,131,103.623,131,90  c0-13.623-5.305-26.43-14.938-36.063c-4.783-4.784-10.348-8.507-16.539-11.068c-2.041-0.845-3.012-3.184-2.167-5.225  c0.845-2.042,3.181-3.014,5.226-2.167c7.168,2.965,13.606,7.273,19.137,12.803C132.863,59.424,139,74.24,139,90  c0,15.759-6.138,30.576-17.281,41.719C110.576,142.862,95.76,149,80,149s-30.575-6.137-41.719-17.28  C15.276,108.717,15.276,71.286,38.28,48.281z M80,40c2.209,0,4-1.791,4-4V11c0-2.209-1.791-4-4-4s-4,1.791-4,4v25  C76,38.209,77.791,40,80,40z M31.422,36.789c0.701,1.401,2.114,2.212,3.581,2.212c0.602,0,1.212-0.136,1.786-0.423  c1.976-0.988,2.776-3.39,1.789-5.367l-5-10c-0.989-1.976-3.394-2.776-5.367-1.789c-1.976,0.988-2.776,3.391-1.789,5.367  L31.422,36.789z M11.422,38.211c-0.987,1.977-0.187,4.379,1.789,5.367l10,5c0.574,0.287,1.185,0.423,1.786,0.423  c1.467,0,2.88-0.811,3.581-2.212c0.987-1.976,0.187-4.379-1.789-5.367l-10-5C14.813,35.434,12.41,36.234,11.422,38.211z   M126.422,156.789c0.701,1.401,2.114,2.212,3.581,2.212c0.602,0,1.212-0.136,1.786-0.423c1.976-0.988,2.776-3.39,1.789-5.367l-5-10  c-0.989-1.977-3.394-2.777-5.367-1.789c-1.976,0.988-2.776,3.391-1.789,5.367L126.422,156.789z M144.997,144.001  c1.467,0,2.88-0.811,3.581-2.212c0.987-1.976,0.187-4.379-1.789-5.367l-10-5c-1.976-0.988-4.379-0.188-5.367,1.789  c-0.987,1.977-0.187,4.379,1.789,5.367l10,5C143.785,143.865,144.396,144.001,144.997,144.001z M63.578,56.789  c-0.56,1.12-1.081,2.278-1.574,3.461c4.547-0.877,9.252-1.413,13.996-1.605V51c0-2.209,1.791-4,4-4s4,1.791,4,4v7.646  c4.744,0.192,9.449,0.728,13.996,1.605c-0.493-1.183-1.015-2.342-1.574-3.461c-0.987-1.976-0.187-4.379,1.789-5.367  c1.974-0.988,4.378-0.188,5.367,1.789c1.474,2.947,2.732,6.11,3.792,9.42c3.309,1.059,6.472,2.318,9.419,3.792  c1.976,0.988,2.776,3.391,1.789,5.367c-0.701,1.401-2.114,2.212-3.581,2.212c-0.602,0-1.212-0.136-1.786-0.423  c-1.119-0.56-2.278-1.081-3.461-1.575c0.939,4.867,1.488,9.915,1.643,14.997H120c2.209,0,4,1.791,4,4s-1.791,4-4,4h-8.685  c-0.224,4.405-0.75,8.769-1.565,12.997c1.183-0.494,2.342-1.015,3.461-1.575c1.973-0.988,4.378-0.188,5.367,1.789  c0.987,1.977,0.187,4.379-1.789,5.367c-2.947,1.474-6.11,2.732-9.419,3.792c-1.06,3.31-2.318,6.473-3.792,9.42  c-0.701,1.401-2.114,2.212-3.581,2.212c-0.602,0-1.212-0.136-1.786-0.423c-1.976-0.988-2.776-3.39-1.789-5.367  c0.56-1.12,1.081-2.278,1.574-3.461c-4.547,0.877-9.252,1.413-13.996,1.605V131c0,2.209-1.791,4-4,4s-4-1.791-4-4v-9.646  c-4.744-0.192-9.449-0.728-13.996-1.605c0.493,1.183,1.015,2.342,1.574,3.461c0.987,1.977,0.187,4.379-1.789,5.367  c-0.574,0.287-1.185,0.423-1.786,0.423c-1.467,0-2.88-0.811-3.581-2.212c-1.474-2.947-2.732-6.11-3.792-9.42  c-3.309-1.059-6.472-2.318-9.419-3.792c-1.976-0.988-2.776-3.39-1.789-5.367c0.988-1.977,3.393-2.777,5.367-1.789  c1.119,0.56,2.278,1.081,3.461,1.575c-0.815-4.228-1.342-8.592-1.565-12.997H40c-2.209,0-4-1.791-4-4s1.791-4,4-4h8.607  c0.154-5.082,0.704-10.13,1.643-14.997c-1.183,0.494-2.342,1.015-3.461,1.575c-1.975,0.986-4.379,0.187-5.367-1.789  c-0.987-1.976-0.187-4.379,1.789-5.367c2.947-1.474,6.11-2.732,9.419-3.792c1.06-3.31,2.318-6.473,3.792-9.42  c0.988-1.977,3.392-2.776,5.367-1.789S64.565,54.813,63.578,56.789z M76,113.423V95H56.631c0.308,5.463,1.124,10.847,2.442,15.928  C64.465,112.326,70.195,113.162,76,113.423z M103.369,95H84v18.423c5.805-0.261,11.535-1.097,16.927-2.495  C102.245,105.847,103.062,100.463,103.369,95z M84,66.577V87h19.447c-0.207-6.145-1.042-12.227-2.521-17.928  C95.535,67.674,89.805,66.838,84,66.577z M59.073,69.072C57.595,74.773,56.76,80.855,56.553,87H76V66.577  C70.195,66.838,64.465,67.674,59.073,69.072z" id="party"/></svg>