<?xml version="1.0" ?><!DOCTYPE svg  PUBLIC '-//W3C//DTD SVG 1.0//EN'  'http://www.w3.org/TR/2001/REC-SVG-20010904/DTD/svg10.dtd'><svg height="160px" id="icon" style="enable-background:new 0 0 160 160;" version="1.0" viewBox="0 0 160 160" width="160px" xml:space="preserve" xmlns="http://www.w3.org/2000/svg" xmlns:xlink="http://www.w3.org/1999/xlink"><path fill="#ffb500" d="M17.172,117.828C17.952,118.609,18.977,119,20,119s2.048-0.391,2.828-1.172L37.5,103.156l4.672,4.672  C42.952,108.609,43.977,109,45,109s2.048-0.391,2.828-1.172L75,80.656l1,1v12.432l-24.605,51.179  c-0.957,1.991-0.119,4.381,1.872,5.339c1.993,0.956,4.381,0.118,5.339-1.872L76,112.552V147c0,2.209,1.791,4,4,4s4-1.791,4-4  v-34.448l17.395,36.182c0.689,1.432,2.119,2.269,3.608,2.269c0.581,0,1.172-0.128,1.73-0.396c1.991-0.958,2.829-3.348,1.872-5.339  L84,94.088V81.656l21-21l2.172,2.172C107.952,63.609,108.977,64,110,64s2.048-0.391,2.828-1.172l15-15  c1.563-1.562,1.563-4.095,0-5.656l-35-35c-1.561-1.563-4.096-1.563-5.656,0l-15,15c-1.563,1.562-1.563,4.095,0,5.656L74.344,30  L52.172,52.172c-1.563,1.562-1.563,4.095,0,5.656L54.344,60L27.172,87.172c-1.563,1.562-1.563,4.095,0,5.656l4.672,4.672  l-14.672,14.672C15.609,113.733,15.609,116.267,17.172,117.828z M90,15.657L119.343,45L110,54.343L80.657,25L90,15.657z M80,35.656  L99.344,55L80,74.343L60.657,55L80,35.656z M60,65.656L69.344,75L45,99.343L35.657,90L60,65.656z M101,5c0-2.209,1.791-4,4-4  c15.99,0,29,13.01,29,29c0,2.209-1.791,4-4,4s-4-1.791-4-4c0-11.579-9.421-21-21-21C102.791,9,101,7.209,101,5z" id="telescope"/></svg>