<?xml version="1.0" ?><!DOCTYPE svg  PUBLIC '-//W3C//DTD SVG 1.0//EN'  'http://www.w3.org/TR/2001/REC-SVG-20010904/DTD/svg10.dtd'><svg height="160px" id="icon" style="enable-background:new 0 0 160 160;" version="1.0" viewBox="0 0 160 160" width="160px" xml:space="preserve" xmlns="http://www.w3.org/2000/svg" xmlns:xlink="http://www.w3.org/1999/xlink"><path fill="#ffb500" d="M126.422,146.789l-5-10c-0.987-1.976-0.187-4.379,1.789-5.367c1.975-0.988,4.378-0.188,5.367,1.789l5,10  c0.987,1.976,0.187,4.379-1.789,5.367c-0.574,0.287-1.185,0.423-1.786,0.423C128.536,149.001,127.123,148.19,126.422,146.789z   M146.789,126.422l-10-5c-1.976-0.987-4.379-0.188-5.367,1.789c-0.987,1.976-0.187,4.379,1.789,5.367l10,5  c0.574,0.287,1.185,0.423,1.786,0.423c1.467,0,2.88-0.811,3.581-2.212C149.565,129.813,148.765,127.41,146.789,126.422z   M23.211,38.578c0.575,0.287,1.185,0.423,1.786,0.423c1.467,0,2.88-0.811,3.581-2.212c0.988-1.976,0.187-4.379-1.789-5.367l-10-5  c-1.976-0.987-4.378-0.187-5.367,1.789c-0.988,1.976-0.187,4.379,1.789,5.367L23.211,38.578z M28.211,11.422  c-1.976,0.988-2.776,3.391-1.789,5.367l5,10c0.701,1.401,2.113,2.212,3.581,2.212c0.601,0,1.212-0.136,1.786-0.423  c1.976-0.988,2.776-3.391,1.789-5.367l-5-10C32.59,11.236,30.187,10.435,28.211,11.422z M148.981,64.614  c0.024,0.248,0.025,0.499,0.002,0.749c-0.068,0.756-0.351,1.498-0.852,2.126c-0.071,0.089-0.146,0.175-0.224,0.258l-64.977,69.975  c-0.025,0.027-0.058,0.047-0.084,0.074c-0.094,0.095-0.188,0.188-0.289,0.273c-0.052,0.042-0.106,0.08-0.159,0.12  c-0.002,0.001-0.004,0.002-0.005,0.003c-0.047,0.035-0.091,0.072-0.139,0.104c-0.096,0.065-0.194,0.122-0.295,0.178  c-0.062,0.035-0.121,0.07-0.186,0.102c-0.049,0.024-0.098,0.051-0.147,0.074c-0.042,0.019-0.085,0.031-0.128,0.048  c-0.127,0.052-0.254,0.104-0.387,0.142c-0.005,0.001-0.01,0.004-0.015,0.006c-0.062,0.018-0.124,0.025-0.186,0.04  c-0.06,0.014-0.12,0.027-0.18,0.039c-0.058,0.011-0.114,0.027-0.171,0.036c-0.189,0.027-0.377,0.041-0.563,0.041  c-0.006,0-0.011-0.001-0.017-0.001c-0.049,0-0.098-0.001-0.146-0.003c-0.043-0.002-0.084-0.016-0.128-0.02  c-0.146-0.011-0.292-0.022-0.436-0.049c-0.063-0.011-0.125-0.03-0.187-0.044c-0.066-0.016-0.13-0.031-0.195-0.05  c-0.117-0.034-0.23-0.074-0.344-0.119c-0.04-0.016-0.082-0.021-0.122-0.038c-0.038-0.017-0.069-0.042-0.107-0.059  c-0.026-0.012-0.054-0.021-0.081-0.034c-0.023-0.011-0.047-0.018-0.07-0.03c-0.108-0.056-0.208-0.126-0.312-0.192  c-0.062-0.039-0.126-0.074-0.186-0.116c-0.051-0.037-0.098-0.076-0.147-0.114c-0.054-0.042-0.103-0.089-0.154-0.135  c-0.082-0.072-0.168-0.137-0.244-0.216c-0.021-0.021-0.036-0.045-0.055-0.066c-0.044-0.048-0.083-0.102-0.125-0.151  c-0.028-0.033-0.063-0.058-0.09-0.092L21.887,67.512c-0.567-0.701-0.862-1.549-0.885-2.403c-0.004-0.139,0-0.279,0.011-0.418  c0-0.001,0-0.003,0-0.004c0,0,0-0.001,0-0.002c0.066-0.836,0.394-1.656,0.984-2.325c0.063-0.072,0.128-0.141,0.196-0.208  l29.979-29.979C52.922,31.421,53.939,31,55,31h60c1.061,0,2.078,0.421,2.828,1.171l29.987,29.987  C148.504,62.84,148.895,63.714,148.981,64.614z M101.473,39l11,22h22.87l-22-22H101.473z M77.472,39l-11,22h37.056L92.527,39H77.472  z M34.657,61h22.871l11-22H56.657L34.657,61z M70.556,116.506L56.982,69H33.23L70.556,116.506z M103.934,69H65.303l15.452,54.083  L103.934,69z M135.827,69h-23.189l-19.877,46.379L135.827,69z" id="diamond"/></svg>