<?xml version="1.0" ?><!DOCTYPE svg  PUBLIC '-//W3C//DTD SVG 1.0//EN'  'http://www.w3.org/TR/2001/REC-SVG-20010904/DTD/svg10.dtd'><svg height="160px" id="icon" style="enable-background:new 0 0 160 160;" version="1.0" viewBox="0 0 160 160" width="160px" xml:space="preserve" xmlns="http://www.w3.org/2000/svg" xmlns:xlink="http://www.w3.org/1999/xlink"><path fill="#ffb500" d="M63.181,81.44c-0.06,0.031-0.113,0.07-0.171,0.104c-0.151,0.087-0.298,0.18-0.436,0.285  c-0.074,0.056-0.142,0.117-0.21,0.178c-0.113,0.1-0.22,0.203-0.321,0.315c-0.062,0.068-0.12,0.136-0.177,0.208  c-0.097,0.123-0.185,0.253-0.267,0.388c-0.042,0.069-0.087,0.135-0.125,0.207c-0.017,0.03-0.037,0.056-0.053,0.086l-14.403,28.808  l-18.808,9.404c-1.976,0.988-2.776,3.391-1.789,5.367c0.989,1.976,3.392,2.775,5.367,1.789l20-10  c0.773-0.387,1.401-1.015,1.789-1.789l10.401-20.803l7.175,25.113c0.502,1.757,2.103,2.902,3.844,2.902  c0.363,0,0.733-0.05,1.101-0.155c2.124-0.607,3.354-2.821,2.747-4.945l-9.088-31.808L85,79.472l15.242,7.621l-9.088,31.808  c-0.607,2.125,0.623,4.338,2.747,4.945c0.367,0.105,0.736,0.155,1.101,0.155c1.74,0,3.342-1.145,3.844-2.902l7.175-25.113  l10.401,20.803c0.388,0.774,1.016,1.401,1.789,1.789l20,10c0.574,0.287,1.185,0.423,1.786,0.423c1.467,0,2.88-0.811,3.581-2.212  c0.987-1.976,0.187-4.379-1.789-5.367l-18.808-9.404l-14.403-28.808c-0.016-0.03-0.036-0.057-0.053-0.086  c-0.037-0.071-0.083-0.138-0.125-0.207c-0.082-0.135-0.17-0.265-0.267-0.388c-0.057-0.072-0.115-0.14-0.177-0.208  c-0.102-0.112-0.208-0.215-0.321-0.315c-0.069-0.061-0.136-0.122-0.21-0.178c-0.137-0.105-0.284-0.198-0.436-0.285  c-0.059-0.034-0.111-0.073-0.171-0.104c-0.011-0.005-0.02-0.013-0.03-0.018L94.483,75.27C97.253,72.71,99,69.06,99,65  c0-7.72-6.28-14-14-14s-14,6.28-14,14c0,4.06,1.747,7.71,4.517,10.27l-12.306,6.153C63.2,81.428,63.191,81.435,63.181,81.44z M85,59  c3.309,0,6,2.691,6,6c0,3.308-2.69,5.999-5.998,6C85,71,85,71,84.998,71C81.69,70.999,79,68.308,79,65C79,61.691,81.691,59,85,59z   M21,75c0-35.29,28.71-64,64-64s64,28.71,64,64c0,2.209-1.791,4-4,4s-4-1.791-4-4c0-30.878-25.121-56-56-56S29,44.122,29,75  c0,2.209-1.791,4-4,4S21,77.209,21,75z M135.784,138.922l-50,10c-0.012,0.002-0.023,0.001-0.035,0.003  c-0.243,0.047-0.491,0.075-0.745,0.075c-0.001,0-0.003,0-0.004,0s-0.003,0-0.004,0c-0.254,0-0.502-0.028-0.745-0.075  c-0.012-0.002-0.023-0.001-0.035-0.003l-50-10c-2.167-0.433-3.571-2.541-3.138-4.707c0.433-2.166,2.538-3.567,4.706-3.138  L85,140.921l49.216-9.843c2.169-0.429,4.273,0.972,4.706,3.138C139.355,136.382,137.951,138.489,135.784,138.922z" id="calm"/></svg>