<?xml version="1.0" ?><!DOCTYPE svg  PUBLIC '-//W3C//DTD SVG 1.0//EN'  'http://www.w3.org/TR/2001/REC-SVG-20010904/DTD/svg10.dtd'><svg height="160px" id="icon" style="enable-background:new 0 0 160 160;" version="1.0" viewBox="0 0 160 160" width="160px" xml:space="preserve" xmlns="http://www.w3.org/2000/svg" xmlns:xlink="http://www.w3.org/1999/xlink"><path fill="#ffb500" d="M20,99c7.222,0,13.514-4.052,16.727-10h31.132l18.813,28.219C87.414,118.332,88.663,119,90,119h50  c1.259,0,2.444-0.593,3.2-1.6l15-20c1.018-1.356,1.069-3.208,0.128-4.619l-20-30c-0.001-0.002-0.003-0.004-0.005-0.006  c-0.147-0.219-0.314-0.422-0.5-0.607c-0.091-0.091-0.196-0.162-0.295-0.243c-0.102-0.084-0.197-0.175-0.307-0.249  c-0.111-0.075-0.233-0.128-0.351-0.191c-0.112-0.06-0.218-0.128-0.335-0.177c-0.133-0.055-0.273-0.087-0.411-0.127  c-0.111-0.033-0.217-0.077-0.332-0.1c-0.258-0.052-0.521-0.079-0.785-0.079c-0.002,0-0.005-0.001-0.007-0.001H85.026  c-0.003,0-0.007,0-0.01,0H20C9.523,61,1,69.523,1,80S9.523,99,20,99z M20,69h62.859l18.813,28.219  c0.771,1.156,2.039,1.782,3.332,1.782c0.762,0,1.533-0.218,2.215-0.672c1.838-1.225,2.335-3.709,1.109-5.547L92.474,69h40.385  l17.243,25.864L138,111H92.141L73.328,82.781c-0.001-0.002-0.003-0.004-0.005-0.006c-0.147-0.219-0.314-0.423-0.5-0.608  c-0.093-0.093-0.2-0.166-0.301-0.248c-0.1-0.082-0.193-0.172-0.301-0.244c-0.113-0.076-0.236-0.13-0.355-0.193  c-0.11-0.059-0.215-0.126-0.332-0.175c-0.133-0.055-0.273-0.087-0.412-0.128c-0.111-0.032-0.216-0.077-0.331-0.1  c-0.258-0.052-0.521-0.079-0.785-0.079C70.005,81.001,70.002,81,70,81H38.949C38.967,80.667,39,80.337,39,80c0-2.209-1.791-4-4-4  s-4,1.791-4,4c0,6.065-4.935,11-11,11S9,86.065,9,80S13.935,69,20,69z M80,139c-2.209,0-4-1.791-4-4s1.791-4,4-4h63.343l3.828-3.829  c1.563-1.562,4.095-1.562,5.657,0c1.562,1.563,1.562,4.095,0,5.657l-5,5c-0.75,0.75-1.768,1.171-2.829,1.171H80z M135,49H83.854  C83.94,49.327,84,49.66,84,50c0,1.05-0.43,2.08-1.17,2.83C82.08,53.57,81.05,54,80,54c-1.05,0-2.08-0.43-2.83-1.17  C76.43,52.08,76,51.05,76,50c0-0.34,0.06-0.673,0.146-1H25c-2.209,0-4-1.791-4-4s1.791-4,4-4h110c2.209,0,4,1.791,4,4  S137.209,49,135,49z" id="helicopter"/></svg>