<?xml version="1.0" ?><!DOCTYPE svg  PUBLIC '-//W3C//DTD SVG 1.0//EN'  'http://www.w3.org/TR/2001/REC-SVG-20010904/DTD/svg10.dtd'><svg height="160px" id="icon" style="enable-background:new 0 0 160 160;" version="1.0" viewBox="0 0 160 160" width="160px" xml:space="preserve" xmlns="http://www.w3.org/2000/svg" xmlns:xlink="http://www.w3.org/1999/xlink"><path fill="#ffb500" d="M51,100c0-6.064-4.935-10.998-11-10.998c-15.991,0-29-13.01-29-29c0-15.951,12.945-28.937,28.882-29  c0.074-0.002,0.149-0.002,0.227,0C51.639,30.943,61,21.545,61,10.002c0-1.061,0.421-2.078,1.171-2.828  c1.562-1.561,4.095-1.563,5.658-0.001c0.811,0.811,1.201,1.883,1.17,2.945c-0.063,15.937-13.048,28.884-29,28.884  c-11.58,0-21,9.421-21,21s9.42,21,21,21c10.477,0,19,8.522,19,18.998c0,10.43-8.448,18.924-18.86,19  c-0.046,0.002-0.093,0.002-0.14,0.002c-6.065,0-11,4.934-11,10.998c0,2.938,1.145,5.701,3.222,7.779  C34.3,139.856,37.061,141,39.998,141c0.001,0,0.001,0,0.002,0c2.939,0,5.701-1.145,7.777-3.222c1.562-1.563,4.094-1.562,5.657-0.001  c1.562,1.562,1.563,4.095,0.001,5.657C49.848,147.023,45.077,149,40.001,149c-0.001,0-0.003,0-0.004,0  c-5.073,0-9.843-1.976-13.431-5.564C22.977,139.847,21,135.075,21,130c0-10.429,8.448-18.922,18.861-18.997  c0.046-0.001,0.093-0.003,0.14-0.003C46.066,111,51,106.065,51,100z M125,51c7.72,0,14,6.28,14,14s-6.28,14-14,14s-14-6.28-14-14  S117.28,51,125,51z M119,65c0,3.309,2.691,6,6,6s6-2.691,6-6s-2.691-6-6-6S119,61.691,119,65z M158.2,72.6  c-1.327-1.768-3.835-2.124-5.6-0.8L133.667,86H120c-0.79,0-1.562,0.233-2.219,0.672l-43.359,28.906l28.906-43.359  C103.766,71.562,104,70.79,104,70V56.334L118.2,37.4c1.325-1.768,0.967-4.275-0.8-5.601c-1.768-1.323-4.274-0.966-5.6,0.8l-15,20  C96.281,53.293,96,54.135,96,55v13.789l-38.622,57.933l-4.55-4.55c-1.563-1.563-4.095-1.563-5.657,0  c-1.562,1.562-1.562,4.095,0,5.656l15,15C62.953,143.609,63.976,144,65,144s2.047-0.391,2.829-1.172  c1.562-1.562,1.562-4.095,0-5.656l-4.55-4.551L121.211,94H135c0.865,0,1.708-0.28,2.4-0.8l20-15  C159.167,76.875,159.525,74.367,158.2,72.6z" id="bungee"/></svg>