<?xml version="1.0" ?><!DOCTYPE svg  PUBLIC '-//W3C//DTD SVG 1.0//EN'  'http://www.w3.org/TR/2001/REC-SVG-20010904/DTD/svg10.dtd'><svg height="160px" id="icon" style="enable-background:new 0 0 160 160;" version="1.0" viewBox="0 0 160 160" width="160px" xml:space="preserve" xmlns="http://www.w3.org/2000/svg" xmlns:xlink="http://www.w3.org/1999/xlink"><path fill="#ffb500" d="M80,128c10.477,0,19,8.523,19,19c0,2.209-1.791,4-4,4s-4-1.791-4-4c0-6.065-4.935-11-11-11s-11,4.935-11,11  c0,2.209-1.791,4-4,4s-4-1.791-4-4C61,136.523,69.523,128,80,128z M102.942,119H57.058l-21.66,30.325  c-1.285,1.798-3.782,2.214-5.58,0.93c-1.798-1.284-2.214-3.782-0.93-5.58l18.845-26.384C46.688,117.57,46,116.366,46,115  c0-2.209,1.791-4,4-4h2.292l5.172-12.931C56.577,97.336,56,96.241,56,95c0-2.209,1.791-4,4-4h0.292l0.849-2.122L76.068,9.263  C76.423,7.371,78.075,6,80,6s3.577,1.371,3.932,3.263l14.928,79.615L99.708,91H100c2.209,0,4,1.791,4,4  c0,1.241-0.577,2.336-1.464,3.069L107.708,111H110c2.209,0,4,1.791,4,4c0,1.366-0.688,2.57-1.733,3.292l18.845,26.384  c1.284,1.797,0.868,4.295-0.93,5.58c-0.705,0.503-1.517,0.746-2.321,0.746c-1.248,0-2.478-0.583-3.258-1.676L102.942,119z   M68.855,91h22.29c-0.023-0.088-0.06-0.173-0.077-0.263L80,31.705L68.932,90.737C68.915,90.827,68.878,90.912,68.855,91z   M99.092,111l-4.8-12H65.708l-4.8,12H99.092z" id="paris"/></svg>