<?xml version="1.0" ?><!DOCTYPE svg  PUBLIC '-//W3C//DTD SVG 1.0//EN'  'http://www.w3.org/TR/2001/REC-SVG-20010904/DTD/svg10.dtd'><svg height="160px" id="icon" style="enable-background:new 0 0 160 160;" version="1.0" viewBox="0 0 160 160" width="160px" xml:space="preserve" xmlns="http://www.w3.org/2000/svg" xmlns:xlink="http://www.w3.org/1999/xlink"><path fill="#ffb500" d="M107.171,82.829c-1.562-1.563-1.562-4.095,0-5.657l5-5c1.563-1.562,4.095-1.562,5.657,0  c1.563,1.563,1.563,4.095,0,5.657l-5,5C112.047,83.609,111.023,84,110,84S107.953,83.609,107.171,82.829z M72.829,122.829l5-5  c1.562-1.563,1.562-4.095,0-5.657c-1.563-1.563-4.095-1.563-5.657,0l-5,5c-1.562,1.563-1.562,4.096,0,5.657  C67.953,123.609,68.976,124,70,124S72.047,123.609,72.829,122.829z M90,90c-1.32,0-2.6,0.529-3.54,1.46C85.529,92.4,85,93.68,85,95  s0.529,2.6,1.46,3.54C87.4,99.471,88.68,100,90,100s2.6-0.529,3.54-1.46C94.471,97.6,95,96.32,95,95s-0.529-2.6-1.46-3.54  C92.6,90.529,91.32,90,90,90z M101.313,106.314c-1.498,1.498-3.244,2.666-5.189,3.474C94.182,110.592,92.122,111,90,111  c-2.209,0-4,1.791-4,4s1.791,4,4,4c3.18,0,6.271-0.613,9.188-1.823c2.922-1.211,5.539-2.963,7.783-5.206  c2.244-2.244,3.996-4.863,5.207-7.783C113.387,101.271,114,98.18,114,95c0-2.209-1.791-4-4-4s-4,1.791-4,4  c0,2.123-0.408,4.184-1.212,6.124C103.98,103.068,102.813,104.814,101.313,106.314z M12.171,152.829  c-1.562-1.563-1.562-4.095,0-5.657L65.133,94.21l-8.71-17.421c-0.77-1.54-0.468-3.4,0.749-4.618L59.343,70l-7.171-7.171  c-1.562-1.563-1.562-4.095,0-5.657c1.563-1.562,4.095-1.562,5.657,0L65,64.343l2.171-2.171c1.218-1.218,3.077-1.519,4.618-0.749  l17.421,8.71l52.961-52.961c1.563-1.562,4.095-1.562,5.657,0c1.563,1.563,1.563,4.095,0,5.657l-13.775,13.775  C139.803,38.346,144,43.69,144,50c0,7.72-6.279,14-14,14c-6.311,0-11.654-4.198-13.396-9.946L98.189,72.467  c0.332,0.121,0.67,0.22,0.998,0.356c2.041,0.846,3.01,3.187,2.164,5.227c-0.847,2.041-3.188,3.011-5.228,2.163  c-3.88-1.608-8.365-1.61-12.248,0c-1.944,0.807-3.691,1.977-5.19,3.475c-1.497,1.496-2.666,3.244-3.473,5.189  C74.408,90.814,74,92.873,74,94.993c0,0.005,0,0.01,0,0.015c0.001,2.12,0.409,4.178,1.212,6.115  c0.847,2.041-0.121,4.381-2.161,5.229c-0.501,0.207-1.021,0.307-1.532,0.307c-1.568,0-3.057-0.93-3.696-2.469  c-0.134-0.322-0.258-0.649-0.378-0.977l-18.392,18.393C54.802,123.346,59,128.689,59,135c0,7.721-6.28,14-14,14  c-6.31,0-11.654-4.198-13.396-9.945l-13.775,13.774C17.047,153.609,16.024,154,15,154S12.953,153.609,12.171,152.829z M124,50  c0,3.309,2.691,6,6,6s6-2.691,6-6s-2.691-6-6-6S124,46.691,124,50z M68.822,83.7c1.11-2.081,2.519-3.981,4.207-5.67  c1.689-1.689,3.59-3.097,5.671-4.208l-7.91-3.955l-5.923,5.923L68.822,83.7z M39,135c0,3.309,2.691,6,6,6s6-2.691,6-6s-2.691-6-6-6  S39,131.691,39,135z" id="plane"/></svg>