<?xml version="1.0" ?><!DOCTYPE svg  PUBLIC '-//W3C//DTD SVG 1.0//EN'  'http://www.w3.org/TR/2001/REC-SVG-20010904/DTD/svg10.dtd'><svg height="160px" id="icon" style="enable-background:new 0 0 160 160;" version="1.0" viewBox="0 0 160 160" width="160px" xml:space="preserve" xmlns="http://www.w3.org/2000/svg" xmlns:xlink="http://www.w3.org/1999/xlink"><path fill="#ffb500" d="M119,105.944v31.69l7.928,4.36c1.936,1.064,2.642,3.497,1.577,5.433c-0.729,1.324-2.097,2.073-3.508,2.073  c-0.652,0-1.313-0.16-1.924-0.496l-10-5.5C111.794,142.802,111,141.459,111,140v-35c0-0.621,0.145-1.233,0.422-1.789L116,94.056V70  c0-0.07,0.017-0.137,0.021-0.206c-0.057-1.39,0.595-2.771,1.859-3.561l13.79-8.619l3.758-11.087L123.305,34H115  c-2.209,0-4-1.791-4-4s1.791-4,4-4h10c1.083,0,2.121,0.439,2.875,1.219l15,15.5c1.042,1.076,1.395,2.646,0.914,4.065l-5,14.75  c-0.296,0.874-0.885,1.619-1.668,2.107l-13.12,8.2V95c0,0.621-0.145,1.233-0.422,1.789L119,105.944z M66,145c0,2.209,1.791,4,4,4h30  c1.232,0,2.395-0.567,3.153-1.538s1.026-2.237,0.728-3.432l-10-40c-0.535-2.144-2.705-3.442-4.851-2.911  c-2.143,0.536-3.446,2.708-2.91,4.851L94.877,141H70C67.791,141,66,142.791,66,145z M111.655,11.358  c-2.011-0.914-4.382-0.025-5.297,1.986L81.962,67.018c-2.99,1.496-10.126,5.49-17.291,12.654C56.154,88.189,46,102.968,46,125v15  c0,1.93-1.57,3.5-3.5,3.5S39,141.93,39,140v-25c0-17.706-3.77-30.359-11.205-37.611c-6.033-5.884-12.196-5.898-12.896-5.888  c-2.208,0.056-3.954,1.891-3.898,4.099c0.055,2.209,1.859,3.947,4.099,3.899h0c0.066,0,3.496,0.093,7.109,3.617  C26.22,87.027,31,95.733,31,115v26c0,0.451,0.091,0.877,0.229,1.282c1.062,5.251,5.711,9.218,11.271,9.218  c6.341,0,11.5-5.159,11.5-11.5v-15c0-36.777,31.253-50.75,32.583-51.327c0.007-0.003,0.013-0.008,0.02-0.011  c0.219-0.096,0.427-0.215,0.626-0.349c0.052-0.035,0.101-0.073,0.151-0.11c0.146-0.108,0.283-0.227,0.414-0.354  c0.044-0.045,0.091-0.086,0.134-0.133c0.157-0.169,0.304-0.35,0.432-0.548c0.009-0.015,0.015-0.029,0.023-0.044  c0.094-0.149,0.182-0.305,0.257-0.47l25-55C114.556,14.645,113.667,12.272,111.655,11.358z" id="cat"/></svg>